<?xml version="1.0" standalone="no"?><!DOCTYPE svg PUBLIC "-//W3C//DTD SVG 1.1//EN" "http://www.w3.org/Graphics/SVG/1.1/DTD/svg11.dtd" ><svg version="1.1" xmlns="http://www.w3.org/2000/svg"><defs><font horiz-adv-x="0" id="font"><font-face ascent="750" bbox="-64 -266 1358 1016" cap-height="750" descent="-250" font-family="Apex Sans Bold" font-stretch="normal" font-style="normal" font-weight="600" units-per-em="1000" x-height="500" /><missing-glyph d="M151 632V118L408 375ZM759 118V632L502 375ZM193 66H717L455 328ZM455 422 717 684H193ZM80 750H830V0H80Z" horiz-adv-x="910" /><glyph d="M340 517 277 321H401ZM25 0 292 766H388L654 0H505L442 190H235L175 0Z" glyph-name="A" horiz-adv-x="679" unicode="A" /><glyph d="M554 454V618L450 454ZM990 321H692V133H1021V0H554V321H366L163 0H5L498 750H1021V617H692V454H990Z" glyph-name="AE" horiz-adv-x="1076" unicode="&#198;" /><glyph d="M340 517 277 321H401ZM296 825 376 1000H527L382 825ZM25 0 292 766H388L654 0H505L442 190H235L175 0Z" glyph-name="Aacute" horiz-adv-x="679" unicode="&#193;" /><glyph d="M339 809Q249 809 211 858Q173 907 171 1000H273Q274 973 279.5 957Q285 941 294 932.5Q303 924 314.5 921Q326 918 339 918Q352 918 363.5 921Q375 924 384 932.5Q393 941 398.5 957Q404 973 405 1000H507Q505 907 467 858Q429 809 339 809ZM340 517 277 321H401ZM25 0 292 766H388L654 0H505L442 190H235L175 0Z" glyph-name="Abreve" horiz-adv-x="679" unicode="&#258;" /><glyph d="M340 517 277 321H401ZM422 825 340 889 258 825H162L287 1000H393L518 825ZM25 0 292 766H388L654 0H505L442 190H235L175 0Z" glyph-name="Acircumflex" horiz-adv-x="679" unicode="&#194;" /><glyph d="M340 517 277 321H401ZM147 908Q147 942 170.5 966Q194 990 228 990Q262 990 286 966Q310 942 310 908Q310 874 286 850.5Q262 827 228 827Q194 827 170.5 850.5Q147 874 147 908ZM370 908Q370 942 393.5 966Q417 990 451 990Q485 990 509 966Q533 942 533 908Q533 874 509 850.5Q485 827 451 827Q417 827 393.5 850.5Q370 874 370 908ZM25 0 292 766H388L654 0H505L442 190H235L175 0Z" glyph-name="Adieresis" horiz-adv-x="679" unicode="&#196;" /><glyph d="M340 517 277 321H401ZM298 825 153 1000H304L384 825ZM25 0 292 766H388L654 0H505L442 190H235L175 0Z" glyph-name="Agrave" horiz-adv-x="679" unicode="&#192;" /><glyph d="M476 825H202V953H476ZM340 517 277 321H401ZM25 0 292 766H388L654 0H505L442 190H235L175 0Z" glyph-name="Amacron" horiz-adv-x="679" unicode="&#256;" /><glyph d="M340 517 277 321H401ZM25 0 292 766H388L654 0H649Q625 0 603 -6.5Q581 -13 564.5 -24Q548 -35 538 -50.5Q528 -66 528 -84Q528 -106 545 -113.5Q562 -121 579 -121Q593 -121 604.5 -119Q616 -117 625 -115Q636 -112 644 -109V-213Q636 -218 613 -225Q590 -232 549 -232Q525 -232 501 -225Q477 -218 458 -203.5Q439 -189 427 -166.5Q415 -144 415 -113Q415 -67 437 -28.5Q459 10 494 34L442 190H235L175 0Z" glyph-name="Aogonek" horiz-adv-x="679" unicode="&#260;" /><glyph d="M376 912Q376 933 366.5 941Q357 949 340 949Q322 949 313 941Q304 933 304 912Q304 892 313 884.5Q322 877 340 877Q357 877 366.5 884.5Q376 892 376 912ZM340 517 277 321H401ZM444 912Q444 858 415.5 833.5Q387 809 340 809Q292 809 263.5 833.5Q235 858 235 912Q235 966 263.5 991Q292 1016 340 1016Q387 1016 415.5 991Q444 966 444 912ZM25 0 292 766H388L654 0H505L442 190H235L175 0Z" glyph-name="Aring" horiz-adv-x="679" unicode="&#197;" /><glyph d="M548 984Q542 895 510 855.5Q478 816 408 818Q377 819 358 830.5Q339 842 325.5 855Q312 868 300.5 878.5Q289 889 274 889Q251 889 243 871.5Q235 854 233 829L131 842Q137 931 169 970.5Q201 1010 271 1008Q302 1007 321 995.5Q340 984 353.5 971Q367 958 378.5 947.5Q390 937 405 937Q428 937 436 954.5Q444 972 446 997ZM340 517 277 321H401ZM25 0 292 766H388L654 0H505L442 190H235L175 0Z" glyph-name="Atilde" horiz-adv-x="679" unicode="&#195;" /><glyph d="M424 536Q424 551 420.5 566Q417 581 406.5 592Q396 603 376.5 610Q357 617 326 617H209V454H334Q361 454 378.5 461Q396 468 406 480Q416 492 420 506.5Q424 521 424 536ZM209 133H332Q368 133 390.5 141Q413 149 426 162Q439 175 443.5 192Q448 209 448 226Q448 275 422.5 298Q397 321 334 321H209ZM70 750H323Q392 750 439.5 733Q487 716 516 687Q545 658 557.5 619Q570 580 570 536Q570 498 556.5 461.5Q543 425 514 396Q556 367 574.5 322Q593 277 593 226Q593 179 579.5 137.5Q566 96 534.5 65.5Q503 35 452.5 17.5Q402 0 328 0H70Z" glyph-name="B" horiz-adv-x="633" unicode="B" /><glyph d="M55 375Q55 455 70 526Q85 597 120.5 650.5Q156 704 214.5 735Q273 766 360 766Q426 766 480.5 755.5Q535 745 573 728V585Q538 599 509 608.5Q480 618 454.5 623.5Q429 629 406 631Q383 633 360 633Q315 633 283.5 613Q252 593 233 558Q214 523 205.5 476Q197 429 197 375Q197 321 205.5 274Q214 227 233 192Q252 157 283.5 137Q315 117 360 117Q383 117 406 119Q429 121 454.5 126.5Q480 132 509 141.5Q538 151 573 165V22Q535 5 480.5 -5.5Q426 -16 360 -16Q273 -16 214.5 15Q156 46 120.5 99.5Q85 153 70 224Q55 295 55 375Z" glyph-name="C" horiz-adv-x="628" unicode="C" /><glyph d="M370 1000H521L396 825H290ZM55 375Q55 455 70 526Q85 597 120.5 650.5Q156 704 214.5 735Q273 766 360 766Q426 766 480.5 755.5Q535 745 573 728V585Q538 599 509 608.5Q480 618 454.5 623.5Q429 629 406 631Q383 633 360 633Q315 633 283.5 613Q252 593 233 558Q214 523 205.5 476Q197 429 197 375Q197 321 205.5 274Q214 227 233 192Q252 157 283.5 137Q315 117 360 117Q383 117 406 119Q429 121 454.5 126.5Q480 132 509 141.5Q538 151 573 165V22Q535 5 480.5 -5.5Q426 -16 360 -16Q273 -16 214.5 15Q156 46 120.5 99.5Q85 153 70 224Q55 295 55 375Z" glyph-name="Cacute" horiz-adv-x="628" unicode="&#262;" /><glyph d="M268 1000 350 936 432 1000H528L403 825H297L172 1000ZM55 375Q55 455 70 526Q85 597 120.5 650.5Q156 704 214.5 735Q273 766 360 766Q426 766 480.5 755.5Q535 745 573 728V585Q538 599 509 608.5Q480 618 454.5 623.5Q429 629 406 631Q383 633 360 633Q315 633 283.5 613Q252 593 233 558Q214 523 205.5 476Q197 429 197 375Q197 321 205.5 274Q214 227 233 192Q252 157 283.5 137Q315 117 360 117Q383 117 406 119Q429 121 454.5 126.5Q480 132 509 141.5Q538 151 573 165V22Q535 5 480.5 -5.5Q426 -16 360 -16Q273 -16 214.5 15Q156 46 120.5 99.5Q85 153 70 224Q55 295 55 375Z" glyph-name="Ccaron" horiz-adv-x="628" unicode="&#268;" /><glyph d="M288 -185Q298 -176 307 -165Q316 -154 320.5 -142.5Q325 -131 323.5 -121.5Q322 -112 312 -106Q295 -97 289 -84.5Q283 -72 283.5 -59.5Q284 -47 290 -34.5Q296 -22 303 -12Q233 -2 185.5 32.5Q138 67 109 118.5Q80 170 67.5 236Q55 302 55 375Q55 455 70 526Q85 597 120.5 650.5Q156 704 214.5 735Q273 766 360 766Q426 766 480.5 755.5Q535 745 573 728V585Q538 599 509 608.5Q480 618 454.5 623.5Q429 629 406 631Q383 633 360 633Q315 633 283.5 613Q252 593 233 558Q214 523 205.5 476Q197 429 197 375Q197 321 205.5 274Q214 227 233 192Q252 157 283.5 137Q315 117 360 117Q383 117 406 119Q429 121 454.5 126.5Q480 132 509 141.5Q538 151 573 165V22Q539 7 493.5 -3Q448 -13 392 -15Q384 -29 384 -43.5Q384 -58 405 -71Q430 -85 437 -101Q444 -117 441 -133Q438 -149 428.5 -162.5Q419 -176 410 -185Z" glyph-name="Ccedilla" horiz-adv-x="628" unicode="&#199;" /><glyph d="M432 825 350 889 268 825H172L297 1000H403L528 825ZM55 375Q55 455 70 526Q85 597 120.5 650.5Q156 704 214.5 735Q273 766 360 766Q426 766 480.5 755.5Q535 745 573 728V585Q538 599 509 608.5Q480 618 454.5 623.5Q429 629 406 631Q383 633 360 633Q315 633 283.5 613Q252 593 233 558Q214 523 205.5 476Q197 429 197 375Q197 321 205.5 274Q214 227 233 192Q252 157 283.5 137Q315 117 360 117Q383 117 406 119Q429 121 454.5 126.5Q480 132 509 141.5Q538 151 573 165V22Q535 5 480.5 -5.5Q426 -16 360 -16Q273 -16 214.5 15Q156 46 120.5 99.5Q85 153 70 224Q55 295 55 375Z" glyph-name="Ccircumflex" horiz-adv-x="628" unicode="&#264;" /><glyph d="M269 908Q269 942 292.5 966Q316 990 350 990Q384 990 408 966Q432 942 432 908Q432 874 408 850.5Q384 827 350 827Q316 827 292.5 850.5Q269 874 269 908ZM55 375Q55 455 70 526Q85 597 120.5 650.5Q156 704 214.5 735Q273 766 360 766Q426 766 480.5 755.5Q535 745 573 728V585Q538 599 509 608.5Q480 618 454.5 623.5Q429 629 406 631Q383 633 360 633Q315 633 283.5 613Q252 593 233 558Q214 523 205.5 476Q197 429 197 375Q197 321 205.5 274Q214 227 233 192Q252 157 283.5 137Q315 117 360 117Q383 117 406 119Q429 121 454.5 126.5Q480 132 509 141.5Q538 151 573 165V22Q535 5 480.5 -5.5Q426 -16 360 -16Q273 -16 214.5 15Q156 46 120.5 99.5Q85 153 70 224Q55 295 55 375Z" glyph-name="Cdotaccent" horiz-adv-x="628" unicode="&#266;" /><glyph d="M208 133H295Q346 133 379.5 151Q413 169 433.5 201Q454 233 462.5 277.5Q471 322 471 375Q471 428 462.5 472.5Q454 517 433.5 549Q413 581 379.5 599Q346 617 295 617H208ZM70 0V750H292Q386 750 448 721.5Q510 693 547 642.5Q584 592 599 523.5Q614 455 614 375Q614 295 599 226.5Q584 158 547 107.5Q510 57 448 28.5Q386 0 292 0Z" glyph-name="D" horiz-adv-x="669" unicode="D" /><glyph d="M222 1000 304 936 386 1000H482L357 825H251L126 1000ZM208 133H295Q346 133 379.5 151Q413 169 433.5 201Q454 233 462.5 277.5Q471 322 471 375Q471 428 462.5 472.5Q454 517 433.5 549Q413 581 379.5 599Q346 617 295 617H208ZM70 0V750H292Q386 750 448 721.5Q510 693 547 642.5Q584 592 599 523.5Q614 455 614 375Q614 295 599 226.5Q584 158 547 107.5Q510 57 448 28.5Q386 0 292 0Z" glyph-name="Dcaron" horiz-adv-x="669" unicode="&#270;" /><glyph d="M238 433H358V317H238V133H325Q376 133 409.5 151Q443 169 463.5 201Q484 233 492.5 277.5Q501 322 501 375Q501 428 492.5 472.5Q484 517 463.5 549Q443 581 409.5 599Q376 617 325 617H238ZM10 433H100V750H322Q416 750 478 721.5Q540 693 577 642.5Q614 592 629 523.5Q644 455 644 375Q644 295 629 226.5Q614 158 577 107.5Q540 57 478 28.5Q416 0 322 0H100V317H10Z" glyph-name="Dcroat" horiz-adv-x="699" unicode="&#272;" /><glyph d="M64 250Q64 305 85 353.5Q106 402 142 438Q178 474 226.5 495Q275 516 330 516Q385 516 433.5 495Q482 474 518 438Q554 402 575 353.5Q596 305 596 250Q596 195 575 146.5Q554 98 518 62Q482 26 433.5 5Q385 -16 330 -16Q275 -16 226.5 5Q178 26 142 62Q106 98 85 146.5Q64 195 64 250Z" glyph-name="Delta" horiz-adv-x="660" unicode="&#8710;" /><glyph d="M506 321H208V133H537V0H70V750H537V617H208V454H506Z" glyph-name="E" horiz-adv-x="592" unicode="E" /><glyph d="M260 825 340 1000H491L346 825ZM506 321H208V133H537V0H70V750H537V617H208V454H506Z" glyph-name="Eacute" horiz-adv-x="592" unicode="&#201;" /><glyph d="M304 809Q214 809 176 858Q138 907 136 1000H238Q239 973 244.5 957Q250 941 259 932.5Q268 924 279.5 921Q291 918 304 918Q317 918 328.5 921Q340 924 349 932.5Q358 941 363.5 957Q369 973 370 1000H472Q470 907 432 858Q394 809 304 809ZM506 321H208V133H537V0H70V750H537V617H208V454H506Z" glyph-name="Ebreve" horiz-adv-x="592" unicode="&#276;" /><glyph d="M222 1000 304 936 386 1000H482L357 825H251L126 1000ZM506 321H208V133H537V0H70V750H537V617H208V454H506Z" glyph-name="Ecaron" horiz-adv-x="592" unicode="&#282;" /><glyph d="M386 825 304 889 222 825H126L251 1000H357L482 825ZM506 321H208V133H537V0H70V750H537V617H208V454H506Z" glyph-name="Ecircumflex" horiz-adv-x="592" unicode="&#202;" /><glyph d="M111 908Q111 942 134.5 966Q158 990 192 990Q226 990 250 966Q274 942 274 908Q274 874 250 850.5Q226 827 192 827Q158 827 134.5 850.5Q111 874 111 908ZM334 908Q334 942 357.5 966Q381 990 415 990Q449 990 473 966Q497 942 497 908Q497 874 473 850.5Q449 827 415 827Q381 827 357.5 850.5Q334 874 334 908ZM506 321H208V133H537V0H70V750H537V617H208V454H506Z" glyph-name="Edieresis" horiz-adv-x="592" unicode="&#203;" /><glyph d="M223 908Q223 942 246.5 966Q270 990 304 990Q338 990 362 966Q386 942 386 908Q386 874 362 850.5Q338 827 304 827Q270 827 246.5 850.5Q223 874 223 908ZM506 321H208V133H537V0H70V750H537V617H208V454H506Z" glyph-name="Edotaccent" horiz-adv-x="592" unicode="&#278;" /><glyph d="M262 825 117 1000H268L348 825ZM506 321H208V133H537V0H70V750H537V617H208V454H506Z" glyph-name="Egrave" horiz-adv-x="592" unicode="&#200;" /><glyph d="M441 825H167V953H441ZM506 321H208V133H537V0H70V750H537V617H208V454H506Z" glyph-name="Emacron" horiz-adv-x="592" unicode="&#274;" /><glyph d="M372 -144Q391 -144 410.5 -139.5Q430 -135 446 -126.5Q462 -118 471.5 -106Q481 -94 481 -78V39L203 470L205 0H70V750H178L481 280L479 750H614V-81Q614 -125 595.5 -159.5Q577 -194 544 -217.5Q511 -241 467 -253.5Q423 -266 372 -266Z" glyph-name="Eng" horiz-adv-x="684" unicode="&#330;" /><glyph d="M506 321H208V133H537V0Q512 0 489.5 -6Q467 -12 449.5 -23Q432 -34 421.5 -49.5Q411 -65 411 -84Q411 -106 428 -113.5Q445 -121 462 -121Q476 -121 487.5 -119Q499 -117 508 -115Q519 -112 527 -109V-213Q519 -218 496 -225Q473 -232 432 -232Q408 -232 384 -225Q360 -218 341 -203.5Q322 -189 310 -166.5Q298 -144 298 -113Q298 -51 341 0H70V750H537V617H208V454H506Z" glyph-name="Eogonek" horiz-adv-x="592" unicode="&#280;" /><glyph d="M238 433H358V317H238V133H325Q376 133 409.5 151Q443 169 463.5 201Q484 233 492.5 277.5Q501 322 501 375Q501 428 492.5 472.5Q484 517 463.5 549Q443 581 409.5 599Q376 617 325 617H238ZM10 433H100V750H322Q416 750 478 721.5Q540 693 577 642.5Q614 592 629 523.5Q644 455 644 375Q644 295 629 226.5Q614 158 577 107.5Q540 57 478 28.5Q416 0 322 0H100V317H10Z" glyph-name="Eth" horiz-adv-x="699" unicode="&#208;" /><glyph d="M473 524 429 395H223V355H416L372 226H238Q247 191 261 168.5Q275 146 293 132.5Q311 119 333 114Q355 109 380 109Q423 109 467.5 119Q512 129 555 143V17Q510 -2 462.5 -9Q415 -16 380 -16Q323 -16 276.5 -5Q230 6 194.5 33.5Q159 61 135.5 108Q112 155 100 226H32V355H90V395H32V524H100Q112 595 135.5 642Q159 689 194.5 716.5Q230 744 276.5 755Q323 766 380 766Q415 766 462.5 759Q510 752 555 733V607Q512 621 467.5 631Q423 641 380 641Q355 641 333 635.5Q311 630 293 617Q275 604 261 581Q247 558 238 524Z" glyph-name="Euro" horiz-adv-x="600" unicode="&#8364;" /><glyph d="M226 187Q237 145 261.5 127Q286 109 324 109Q367 109 406.5 117.5Q446 126 489 140V14Q444 -5 401.5 -10.5Q359 -16 324 -16Q222 -16 162 33Q102 82 88 187H32V316H88Q102 419 162.5 467.5Q223 516 324 516Q359 516 401.5 510.5Q444 505 489 486V360Q446 374 406.5 382.5Q367 391 324 391Q287 391 262 373Q237 355 226 316H401L357 187Z" glyph-name="Euro.OP" horiz-adv-x="546" /><glyph d="M497 321H209V0H70V750H529V617H209V454H497Z" glyph-name="F" horiz-adv-x="564" unicode="F" /><glyph d="M360 -16Q273 -16 214.5 15Q156 46 120.5 99.5Q85 153 70 224Q55 295 55 375Q55 455 70 526Q85 597 120.5 650.5Q156 704 214.5 735Q273 766 360 766Q435 766 492 752.5Q549 739 587 721V579Q549 595 518 605.5Q487 616 460 622Q433 628 408.5 630.5Q384 633 360 633Q314 633 283 613Q252 593 232.5 558Q213 523 204.5 476Q196 429 196 375Q196 321 204.5 274Q213 227 232.5 192Q252 157 283 137Q314 117 360 117Q386 117 414.5 119Q443 121 466 126V296H326V429H604V34Q557 13 496.5 -1.5Q436 -16 360 -16Z" glyph-name="G" horiz-adv-x="674" unicode="G" /><glyph d="M347 809Q257 809 219 858Q181 907 179 1000H281Q282 973 287.5 957Q293 941 302 932.5Q311 924 322.5 921Q334 918 347 918Q360 918 371.5 921Q383 924 392 932.5Q401 941 406.5 957Q412 973 413 1000H515Q513 907 475 858Q437 809 347 809ZM360 -16Q273 -16 214.5 15Q156 46 120.5 99.5Q85 153 70 224Q55 295 55 375Q55 455 70 526Q85 597 120.5 650.5Q156 704 214.5 735Q273 766 360 766Q435 766 492 752.5Q549 739 587 721V579Q549 595 518 605.5Q487 616 460 622Q433 628 408.5 630.5Q384 633 360 633Q314 633 283 613Q252 593 232.5 558Q213 523 204.5 476Q196 429 196 375Q196 321 204.5 274Q213 227 232.5 192Q252 157 283 137Q314 117 360 117Q386 117 414.5 119Q443 121 466 126V296H326V429H604V34Q557 13 496.5 -1.5Q436 -16 360 -16Z" glyph-name="Gbreve" horiz-adv-x="674" unicode="&#286;" /><glyph d="M428 825 346 889 264 825H168L293 1000H399L524 825ZM360 -16Q273 -16 214.5 15Q156 46 120.5 99.5Q85 153 70 224Q55 295 55 375Q55 455 70 526Q85 597 120.5 650.5Q156 704 214.5 735Q273 766 360 766Q435 766 492 752.5Q549 739 587 721V579Q549 595 518 605.5Q487 616 460 622Q433 628 408.5 630.5Q384 633 360 633Q314 633 283 613Q252 593 232.5 558Q213 523 204.5 476Q196 429 196 375Q196 321 204.5 274Q213 227 232.5 192Q252 157 283 137Q314 117 360 117Q386 117 414.5 119Q443 121 466 126V296H326V429H604V34Q557 13 496.5 -1.5Q436 -16 360 -16Z" glyph-name="Gcircumflex" horiz-adv-x="674" unicode="&#284;" /><glyph d="M285 -250 298 -192Q266 -168 266 -127Q266 -93 289.5 -69Q313 -45 347 -45Q381 -45 405 -69Q429 -93 429 -127Q429 -138 426 -148Q423 -158 419 -166L380 -250ZM360 -16Q273 -16 214.5 15Q156 46 120.5 99.5Q85 153 70 224Q55 295 55 375Q55 455 70 526Q85 597 120.5 650.5Q156 704 214.5 735Q273 766 360 766Q435 766 492 752.5Q549 739 587 721V579Q549 595 518 605.5Q487 616 460 622Q433 628 408.5 630.5Q384 633 360 633Q314 633 283 613Q252 593 232.5 558Q213 523 204.5 476Q196 429 196 375Q196 321 204.5 274Q213 227 232.5 192Q252 157 283 137Q314 117 360 117Q386 117 414.5 119Q443 121 466 126V296H326V429H604V34Q557 13 496.5 -1.5Q436 -16 360 -16Z" glyph-name="Gcommaaccent" horiz-adv-x="674" unicode="&#290;" /><glyph d="M265 908Q265 942 288.5 966Q312 990 346 990Q380 990 404 966Q428 942 428 908Q428 874 404 850.5Q380 827 346 827Q312 827 288.5 850.5Q265 874 265 908ZM360 -16Q273 -16 214.5 15Q156 46 120.5 99.5Q85 153 70 224Q55 295 55 375Q55 455 70 526Q85 597 120.5 650.5Q156 704 214.5 735Q273 766 360 766Q435 766 492 752.5Q549 739 587 721V579Q549 595 518 605.5Q487 616 460 622Q433 628 408.5 630.5Q384 633 360 633Q314 633 283 613Q252 593 232.5 558Q213 523 204.5 476Q196 429 196 375Q196 321 204.5 274Q213 227 232.5 192Q252 157 283 137Q314 117 360 117Q386 117 414.5 119Q443 121 466 126V296H326V429H604V34Q557 13 496.5 -1.5Q436 -16 360 -16Z" glyph-name="Gdotaccent" horiz-adv-x="674" unicode="&#288;" /><glyph d="M468 0V321H208V0H70V750H208V454H468V750H606V0Z" glyph-name="H" horiz-adv-x="676" unicode="H" /><glyph d="M468 454V552H208V454ZM468 0V321H208V0H70V750H208V659H468V750H606V0Z" glyph-name="Hbar" horiz-adv-x="676" unicode="&#294;" /><glyph d="M420 825 338 889 256 825H160L285 1000H391L516 825ZM468 0V321H208V0H70V750H208V454H468V750H606V0Z" glyph-name="Hcircumflex" horiz-adv-x="676" unicode="&#292;" /><glyph d="M80 0V750H219V0Z" glyph-name="I" horiz-adv-x="299" unicode="I" /><glyph d="M289 133Q325 123 347 119.5Q369 116 390 116Q417 116 434 124.5Q451 133 451 156V750H589V157Q589 75 541.5 29.5Q494 -16 390 -16Q381 -16 367.5 -14.5Q354 -13 339.5 -11Q325 -9 311.5 -5.5Q298 -2 289 1ZM80 0V750H219V0Z" glyph-name="IJ" horiz-adv-x="669" unicode="&#306;" /><glyph d="M106 825 186 1000H337L192 825ZM80 0V750H219V0Z" glyph-name="Iacute" horiz-adv-x="299" unicode="&#205;" /><glyph d="M150 809Q60 809 22 858Q-16 907 -18 1000H84Q85 973 90.5 957Q96 941 105 932.5Q114 924 125.5 921Q137 918 150 918Q163 918 174.5 921Q186 924 195 932.5Q204 941 209.5 957Q215 973 216 1000H318Q316 907 278 858Q240 809 150 809ZM80 0V750H219V0Z" glyph-name="Ibreve" horiz-adv-x="299" unicode="&#300;" /><glyph d="M232 825 150 889 68 825H-28L97 1000H203L328 825ZM80 0V750H219V0Z" glyph-name="Icircumflex" horiz-adv-x="299" unicode="&#206;" /><glyph d="M-43 908Q-43 942 -19.5 966Q4 990 38 990Q72 990 96 966Q120 942 120 908Q120 874 96 850.5Q72 827 38 827Q4 827 -19.5 850.5Q-43 874 -43 908ZM180 908Q180 942 203.5 966Q227 990 261 990Q295 990 319 966Q343 942 343 908Q343 874 319 850.5Q295 827 261 827Q227 827 203.5 850.5Q180 874 180 908ZM80 0V750H219V0Z" glyph-name="Idieresis" horiz-adv-x="299" unicode="&#207;" /><glyph d="M68 908Q68 942 91.5 966Q115 990 149 990Q183 990 207 966Q231 942 231 908Q231 874 207 850.5Q183 827 149 827Q115 827 91.5 850.5Q68 874 68 908ZM80 0V750H219V0Z" glyph-name="Idotaccent" horiz-adv-x="299" unicode="&#304;" /><glyph d="M108 825 -37 1000H114L194 825ZM80 0V750H219V0Z" glyph-name="Igrave" horiz-adv-x="299" unicode="&#204;" /><glyph d="M287 825H13V953H287ZM80 0V750H219V0Z" glyph-name="Imacron" horiz-adv-x="299" unicode="&#298;" /><glyph d="M219 0Q209 0 194.5 -6Q180 -12 166.5 -23Q153 -34 143 -49.5Q133 -65 133 -84Q133 -106 150 -113.5Q167 -121 184 -121Q198 -121 209.5 -119Q221 -117 230 -115Q241 -112 249 -109V-213Q241 -218 218 -225Q195 -232 154 -232Q130 -232 106 -225Q82 -218 63 -203.5Q44 -189 32 -166.5Q20 -144 20 -113Q20 -74 36.5 -40Q53 -6 80 19V750H219Z" glyph-name="Iogonek" horiz-adv-x="299" unicode="&#302;" /><glyph d="M358 984Q352 895 320 855.5Q288 816 218 818Q187 819 168 830.5Q149 842 135.5 855Q122 868 110.5 878.5Q99 889 84 889Q61 889 53 871.5Q45 854 43 829L-59 842Q-53 931 -21 970.5Q11 1010 81 1008Q112 1007 131 995.5Q150 984 163.5 971Q177 958 188.5 947.5Q200 937 215 937Q238 937 246 954.5Q254 972 256 997ZM80 0V750H219V0Z" glyph-name="Itilde" horiz-adv-x="299" unicode="&#296;" /><glyph d="M30 133Q66 123 88 119.5Q110 116 131 116Q158 116 175 124.5Q192 133 192 156V750H330V157Q330 75 282.5 29.5Q235 -16 131 -16Q122 -16 108.5 -14.5Q95 -13 80.5 -11Q66 -9 52.5 -5.5Q39 -2 30 1Z" glyph-name="J" horiz-adv-x="410" unicode="J" /><glyph d="M343 825 261 889 179 825H83L208 1000H314L439 825ZM30 133Q66 123 88 119.5Q110 116 131 116Q158 116 175 124.5Q192 133 192 156V750H330V157Q330 75 282.5 29.5Q235 -16 131 -16Q122 -16 108.5 -14.5Q95 -13 80.5 -11Q66 -9 52.5 -5.5Q39 -2 30 1Z" glyph-name="Jcircumflex" horiz-adv-x="410" unicode="&#308;" /><glyph d="M206 274V0H70V750H206V465L429 750H611L315 405L634 0H454L225 299Z" glyph-name="K" horiz-adv-x="649" unicode="K" /><glyph d="M265 -250 278 -192Q246 -168 246 -127Q246 -93 269.5 -69Q293 -45 327 -45Q361 -45 385 -69Q409 -93 409 -127Q409 -138 406 -148Q403 -158 399 -166L360 -250ZM206 274V0H70V750H206V465L429 750H611L315 405L634 0H454L225 299Z" glyph-name="Kcommaaccent" horiz-adv-x="649" unicode="&#310;" /><glyph d="M207 133H519V0H70V750H207Z" glyph-name="L" horiz-adv-x="554" unicode="L" /><glyph d="M95 825 175 1000H326L181 825ZM207 133H519V0H70V750H207Z" glyph-name="Lacute" horiz-adv-x="554" unicode="&#313;" /><glyph d="M400 750 352 550H286L302 750ZM207 133H519V0H70V750H207Z" glyph-name="Lcaron" horiz-adv-x="554" unicode="&#317;" /><glyph d="M225 -250 238 -192Q206 -168 206 -127Q206 -93 229.5 -69Q253 -45 287 -45Q321 -45 345 -69Q369 -93 369 -127Q369 -138 366 -148Q363 -158 359 -166L320 -250ZM207 133H519V0H70V750H207Z" glyph-name="Lcommaaccent" horiz-adv-x="554" unicode="&#315;" /><glyph d="M334 375Q334 409 357.5 433Q381 457 415 457Q449 457 473 433Q497 409 497 375Q497 341 473 317.5Q449 294 415 294Q381 294 357.5 317.5Q334 341 334 375ZM207 133H519V0H70V750H207Z" glyph-name="Ldot" horiz-adv-x="554" unicode="&#319;" /><glyph d="M110 362V750H247V432L457 540V395L247 287V133H559V0H110V217L20 171V316Z" glyph-name="Lslash" horiz-adv-x="594" unicode="&#321;" /><glyph d="M469 95H369L201 479L206 0H70V750H222L419 291L616 750H768V0H632L637 482Z" glyph-name="M" horiz-adv-x="838" unicode="M" /><glyph d="M506 0 203 470 205 0H70V750H178L481 280L479 750H614V0Z" glyph-name="N" horiz-adv-x="684" unicode="N" /><glyph d="M295 825 375 1000H526L381 825ZM506 0 203 470 205 0H70V750H178L481 280L479 750H614V0Z" glyph-name="Nacute" horiz-adv-x="684" unicode="&#323;" /><glyph d="M257 1000 339 936 421 1000H517L392 825H286L161 1000ZM506 0 203 470 205 0H70V750H178L481 280L479 750H614V0Z" glyph-name="Ncaron" horiz-adv-x="684" unicode="&#327;" /><glyph d="M285 -250 298 -192Q266 -168 266 -127Q266 -93 289.5 -69Q313 -45 347 -45Q381 -45 405 -69Q429 -93 429 -127Q429 -138 426 -148Q423 -158 419 -166L380 -250ZM506 0 203 470 205 0H70V750H178L481 280L479 750H614V0Z" glyph-name="Ncommaaccent" horiz-adv-x="684" unicode="&#325;" /><glyph d="M550 984Q544 895 512 855.5Q480 816 410 818Q379 819 360 830.5Q341 842 327.5 855Q314 868 302.5 878.5Q291 889 276 889Q253 889 245 871.5Q237 854 235 829L133 842Q139 931 171 970.5Q203 1010 273 1008Q304 1007 323 995.5Q342 984 355.5 971Q369 958 380.5 947.5Q392 937 407 937Q430 937 438 954.5Q446 972 448 997ZM506 0 203 470 205 0H70V750H178L481 280L479 750H614V0Z" glyph-name="Ntilde" horiz-adv-x="684" unicode="&#209;" /><glyph d="M495 375Q495 426 490 473Q485 520 469 555.5Q453 591 424 612Q395 633 346 633Q297 633 267.5 612Q238 591 222.5 555.5Q207 520 202 473Q197 426 197 375Q197 324 202 277Q207 230 222.5 194.5Q238 159 267.5 138Q297 117 346 117Q395 117 424 138Q453 159 469 194.5Q485 230 490 277Q495 324 495 375ZM637 375Q637 301 627.5 231Q618 161 587.5 106Q557 51 499.5 17.5Q442 -16 346 -16Q250 -16 192.5 17.5Q135 51 104.5 106Q74 161 64.5 231Q55 301 55 375Q55 448 64.5 518.5Q74 589 104.5 644Q135 699 192.5 732.5Q250 766 346 766Q442 766 499.5 732.5Q557 699 587.5 644Q618 589 627.5 518.5Q637 448 637 375Z" glyph-name="O" horiz-adv-x="692" unicode="O" /><glyph d="M410 617H374Q323 617 289.5 599Q256 581 235.5 549Q215 517 206.5 472.5Q198 428 198 375Q198 322 206.5 277.5Q215 233 235.5 201Q256 169 289.5 151Q323 133 374 133H410ZM806 321H548V133H837V0H377Q283 0 221 28.5Q159 57 122 107.5Q85 158 70 226.5Q55 295 55 375Q55 455 70 523.5Q85 592 122 642.5Q159 693 221 721.5Q283 750 377 750H837V617H548V454H806Z" glyph-name="OE" horiz-adv-x="892" unicode="&#338;" /><glyph d="M302 825 382 1000H533L388 825ZM495 375Q495 426 490 473Q485 520 469 555.5Q453 591 424 612Q395 633 346 633Q297 633 267.5 612Q238 591 222.5 555.5Q207 520 202 473Q197 426 197 375Q197 324 202 277Q207 230 222.5 194.5Q238 159 267.5 138Q297 117 346 117Q395 117 424 138Q453 159 469 194.5Q485 230 490 277Q495 324 495 375ZM637 375Q637 301 627.5 231Q618 161 587.5 106Q557 51 499.5 17.5Q442 -16 346 -16Q250 -16 192.5 17.5Q135 51 104.5 106Q74 161 64.5 231Q55 301 55 375Q55 448 64.5 518.5Q74 589 104.5 644Q135 699 192.5 732.5Q250 766 346 766Q442 766 499.5 732.5Q557 699 587.5 644Q618 589 627.5 518.5Q637 448 637 375Z" glyph-name="Oacute" horiz-adv-x="692" unicode="&#211;" /><glyph d="M346 809Q256 809 218 858Q180 907 178 1000H280Q281 973 286.5 957Q292 941 301 932.5Q310 924 321.5 921Q333 918 346 918Q359 918 370.5 921Q382 924 391 932.5Q400 941 405.5 957Q411 973 412 1000H514Q512 907 474 858Q436 809 346 809ZM495 375Q495 426 490 473Q485 520 469 555.5Q453 591 424 612Q395 633 346 633Q297 633 267.5 612Q238 591 222.5 555.5Q207 520 202 473Q197 426 197 375Q197 324 202 277Q207 230 222.5 194.5Q238 159 267.5 138Q297 117 346 117Q395 117 424 138Q453 159 469 194.5Q485 230 490 277Q495 324 495 375ZM637 375Q637 301 627.5 231Q618 161 587.5 106Q557 51 499.5 17.5Q442 -16 346 -16Q250 -16 192.5 17.5Q135 51 104.5 106Q74 161 64.5 231Q55 301 55 375Q55 448 64.5 518.5Q74 589 104.5 644Q135 699 192.5 732.5Q250 766 346 766Q442 766 499.5 732.5Q557 699 587.5 644Q618 589 627.5 518.5Q637 448 637 375Z" glyph-name="Obreve" horiz-adv-x="692" unicode="&#334;" /><glyph d="M428 825 346 889 264 825H168L293 1000H399L524 825ZM495 375Q495 426 490 473Q485 520 469 555.5Q453 591 424 612Q395 633 346 633Q297 633 267.5 612Q238 591 222.5 555.5Q207 520 202 473Q197 426 197 375Q197 324 202 277Q207 230 222.5 194.5Q238 159 267.5 138Q297 117 346 117Q395 117 424 138Q453 159 469 194.5Q485 230 490 277Q495 324 495 375ZM637 375Q637 301 627.5 231Q618 161 587.5 106Q557 51 499.5 17.5Q442 -16 346 -16Q250 -16 192.5 17.5Q135 51 104.5 106Q74 161 64.5 231Q55 301 55 375Q55 448 64.5 518.5Q74 589 104.5 644Q135 699 192.5 732.5Q250 766 346 766Q442 766 499.5 732.5Q557 699 587.5 644Q618 589 627.5 518.5Q637 448 637 375Z" glyph-name="Ocircumflex" horiz-adv-x="692" unicode="&#212;" /><glyph d="M376 908Q376 942 399.5 966Q423 990 457 990Q491 990 515 966Q539 942 539 908Q539 874 515 850.5Q491 827 457 827Q423 827 399.5 850.5Q376 874 376 908ZM153 908Q153 942 176.5 966Q200 990 234 990Q268 990 292 966Q316 942 316 908Q316 874 292 850.5Q268 827 234 827Q200 827 176.5 850.5Q153 874 153 908ZM495 375Q495 426 490 473Q485 520 469 555.5Q453 591 424 612Q395 633 346 633Q297 633 267.5 612Q238 591 222.5 555.5Q207 520 202 473Q197 426 197 375Q197 324 202 277Q207 230 222.5 194.5Q238 159 267.5 138Q297 117 346 117Q395 117 424 138Q453 159 469 194.5Q485 230 490 277Q495 324 495 375ZM637 375Q637 301 627.5 231Q618 161 587.5 106Q557 51 499.5 17.5Q442 -16 346 -16Q250 -16 192.5 17.5Q135 51 104.5 106Q74 161 64.5 231Q55 301 55 375Q55 448 64.5 518.5Q74 589 104.5 644Q135 699 192.5 732.5Q250 766 346 766Q442 766 499.5 732.5Q557 699 587.5 644Q618 589 627.5 518.5Q637 448 637 375Z" glyph-name="Odieresis" horiz-adv-x="692" unicode="&#214;" /><glyph d="M304 825 159 1000H310L390 825ZM495 375Q495 426 490 473Q485 520 469 555.5Q453 591 424 612Q395 633 346 633Q297 633 267.5 612Q238 591 222.5 555.5Q207 520 202 473Q197 426 197 375Q197 324 202 277Q207 230 222.5 194.5Q238 159 267.5 138Q297 117 346 117Q395 117 424 138Q453 159 469 194.5Q485 230 490 277Q495 324 495 375ZM637 375Q637 301 627.5 231Q618 161 587.5 106Q557 51 499.5 17.5Q442 -16 346 -16Q250 -16 192.5 17.5Q135 51 104.5 106Q74 161 64.5 231Q55 301 55 375Q55 448 64.5 518.5Q74 589 104.5 644Q135 699 192.5 732.5Q250 766 346 766Q442 766 499.5 732.5Q557 699 587.5 644Q618 589 627.5 518.5Q637 448 637 375Z" glyph-name="Ograve" horiz-adv-x="692" unicode="&#210;" /><glyph d="M374 825 454 1000H605L480 825ZM207 825 287 1000H438L313 825ZM495 375Q495 426 490 473Q485 520 469 555.5Q453 591 424 612Q395 633 346 633Q297 633 267.5 612Q238 591 222.5 555.5Q207 520 202 473Q197 426 197 375Q197 324 202 277Q207 230 222.5 194.5Q238 159 267.5 138Q297 117 346 117Q395 117 424 138Q453 159 469 194.5Q485 230 490 277Q495 324 495 375ZM637 375Q637 301 627.5 231Q618 161 587.5 106Q557 51 499.5 17.5Q442 -16 346 -16Q250 -16 192.5 17.5Q135 51 104.5 106Q74 161 64.5 231Q55 301 55 375Q55 448 64.5 518.5Q74 589 104.5 644Q135 699 192.5 732.5Q250 766 346 766Q442 766 499.5 732.5Q557 699 587.5 644Q618 589 627.5 518.5Q637 448 637 375Z" glyph-name="Ohungarumlaut" horiz-adv-x="692" unicode="&#336;" /><glyph d="M483 825H209V953H483ZM495 375Q495 426 490 473Q485 520 469 555.5Q453 591 424 612Q395 633 346 633Q297 633 267.5 612Q238 591 222.5 555.5Q207 520 202 473Q197 426 197 375Q197 324 202 277Q207 230 222.5 194.5Q238 159 267.5 138Q297 117 346 117Q395 117 424 138Q453 159 469 194.5Q485 230 490 277Q495 324 495 375ZM637 375Q637 301 627.5 231Q618 161 587.5 106Q557 51 499.5 17.5Q442 -16 346 -16Q250 -16 192.5 17.5Q135 51 104.5 106Q74 161 64.5 231Q55 301 55 375Q55 448 64.5 518.5Q74 589 104.5 644Q135 699 192.5 732.5Q250 766 346 766Q442 766 499.5 732.5Q557 699 587.5 644Q618 589 627.5 518.5Q637 448 637 375Z" glyph-name="Omacron" horiz-adv-x="692" unicode="&#332;" /><glyph d="M229 478Q256 478 286 483Q316 488 348 496V384Q310 374 280.5 370.5Q251 367 229 367Q133 367 91.5 418Q50 469 50 567Q50 664 91.5 715Q133 766 229 766Q251 766 280.5 762.5Q310 759 348 749V637Q316 645 286 650Q256 655 229 655Q194 655 179 635Q164 615 164 567Q164 518 179 498Q194 478 229 478Z" glyph-name="Omega" horiz-adv-x="396" unicode="&#8486;" /><glyph d="M495 375Q495 401 494 426Q493 451 490 474L287 127Q311 117 346 117Q395 117 424 138Q453 159 469 194.5Q485 230 490 277Q495 324 495 375ZM197 375Q197 346 198 319Q199 292 203 267L409 620Q381 633 346 633Q297 633 267.5 612Q238 591 222.5 555.5Q207 520 202 473Q197 426 197 375ZM588 643Q618 588 627.5 518Q637 448 637 375Q637 301 627.5 231Q618 161 587.5 106Q557 51 499.5 17.5Q442 -16 346 -16Q307 -16 274.5 -10.5Q242 -5 216 6L213 0H47L106 102Q74 158 64.5 229Q55 300 55 375Q55 448 64.5 518.5Q74 589 104.5 644Q135 699 192.5 732.5Q250 766 346 766Q387 766 420 759.5Q453 753 480 742L485 750H651Z" glyph-name="Oslash" horiz-adv-x="692" unicode="&#216;" /><glyph d="M554 984Q548 895 516 855.5Q484 816 414 818Q383 819 364 830.5Q345 842 331.5 855Q318 868 306.5 878.5Q295 889 280 889Q257 889 249 871.5Q241 854 239 829L137 842Q143 931 175 970.5Q207 1010 277 1008Q308 1007 327 995.5Q346 984 359.5 971Q373 958 384.5 947.5Q396 937 411 937Q434 937 442 954.5Q450 972 452 997ZM495 375Q495 426 490 473Q485 520 469 555.5Q453 591 424 612Q395 633 346 633Q297 633 267.5 612Q238 591 222.5 555.5Q207 520 202 473Q197 426 197 375Q197 324 202 277Q207 230 222.5 194.5Q238 159 267.5 138Q297 117 346 117Q395 117 424 138Q453 159 469 194.5Q485 230 490 277Q495 324 495 375ZM637 375Q637 301 627.5 231Q618 161 587.5 106Q557 51 499.5 17.5Q442 -16 346 -16Q250 -16 192.5 17.5Q135 51 104.5 106Q74 161 64.5 231Q55 301 55 375Q55 448 64.5 518.5Q74 589 104.5 644Q135 699 192.5 732.5Q250 766 346 766Q442 766 499.5 732.5Q557 699 587.5 644Q618 589 627.5 518.5Q637 448 637 375Z" glyph-name="Otilde" horiz-adv-x="692" unicode="&#213;" /><glyph d="M209 404H318Q354 404 376.5 414Q399 424 411.5 439.5Q424 455 428.5 474Q433 493 433 511Q433 529 428.5 548Q424 567 411.5 582Q399 597 376.5 607Q354 617 318 617H209ZM209 0H70V750H316Q389 750 439.5 730Q490 710 521.5 677Q553 644 566.5 601Q580 558 580 511Q580 464 566.5 420.5Q553 377 521.5 344Q490 311 439.5 291Q389 271 316 271H209Z" glyph-name="P" horiz-adv-x="600" unicode="P" /><glyph d="M495 375Q495 426 490 473Q485 520 469 555.5Q453 591 424 612Q395 633 346 633Q297 633 267.5 612Q238 591 222.5 555.5Q207 520 202 473Q197 426 197 375Q197 324 202 277Q207 230 222.5 194.5Q238 159 267.5 138Q297 117 346 117Q395 117 424 138Q453 159 469 194.5Q485 230 490 277Q495 324 495 375ZM637 375Q637 324 633 275Q629 226 617 181.5Q605 137 583.5 100Q562 63 527 37V36L737 0V-130L250 -5Q187 11 148.5 48.5Q110 86 89 137.5Q68 189 61.5 250.5Q55 312 55 375Q55 448 64.5 518.5Q74 589 104.5 644Q135 699 192.5 732.5Q250 766 346 766Q442 766 499.5 732.5Q557 699 587.5 644Q618 589 627.5 518.5Q637 448 637 375Z" glyph-name="Q" horiz-adv-x="692" unicode="Q" /><glyph d="M208 429H332Q365 429 385 436.5Q405 444 415.5 456.5Q426 469 429.5 486.5Q433 504 433 524Q433 543 429.5 560Q426 577 415.5 590Q405 603 385 610Q365 617 332 617H208ZM208 0H70V750H319Q393 750 443 734Q493 718 523 689Q553 660 566 618Q579 576 579 524Q579 453 555 402Q531 351 469 323L639 0H472L327 296H208Z" glyph-name="R" horiz-adv-x="654" unicode="R" /><glyph d="M253 825 333 1000H484L339 825ZM208 429H332Q365 429 385 436.5Q405 444 415.5 456.5Q426 469 429.5 486.5Q433 504 433 524Q433 543 429.5 560Q426 577 415.5 590Q405 603 385 610Q365 617 332 617H208ZM208 0H70V750H319Q393 750 443 734Q493 718 523 689Q553 660 566 618Q579 576 579 524Q579 453 555 402Q531 351 469 323L639 0H472L327 296H208Z" glyph-name="Racute" horiz-adv-x="654" unicode="&#340;" /><glyph d="M215 1000 297 936 379 1000H475L350 825H244L119 1000ZM208 429H332Q365 429 385 436.5Q405 444 415.5 456.5Q426 469 429.5 486.5Q433 504 433 524Q433 543 429.5 560Q426 577 415.5 590Q405 603 385 610Q365 617 332 617H208ZM208 0H70V750H319Q393 750 443 734Q493 718 523 689Q553 660 566 618Q579 576 579 524Q579 453 555 402Q531 351 469 323L639 0H472L327 296H208Z" glyph-name="Rcaron" horiz-adv-x="654" unicode="&#344;" /><glyph d="M265 -250 278 -192Q246 -168 246 -127Q246 -93 269.5 -69Q293 -45 327 -45Q361 -45 385 -69Q409 -93 409 -127Q409 -138 406 -148Q403 -158 399 -166L360 -250ZM208 429H332Q365 429 385 436.5Q405 444 415.5 456.5Q426 469 429.5 486.5Q433 504 433 524Q433 543 429.5 560Q426 577 415.5 590Q405 603 385 610Q365 617 332 617H208ZM208 0H70V750H319Q393 750 443 734Q493 718 523 689Q553 660 566 618Q579 576 579 524Q579 453 555 402Q531 351 469 323L639 0H472L327 296H208Z" glyph-name="Rcommaaccent" horiz-adv-x="654" unicode="&#342;" /><glyph d="M323 454Q383 446 429 431.5Q475 417 505.5 391.5Q536 366 551.5 327.5Q567 289 567 232Q567 191 554.5 147Q542 103 509.5 67Q477 31 420.5 7.5Q364 -16 277 -16Q252 -16 220 -12Q188 -8 156 -1Q124 6 96 14.5Q68 23 50 32V171Q62 164 83.5 155Q105 146 135 137.5Q165 129 201 123Q237 117 278 117Q321 117 349 126Q377 135 394 151Q411 167 418 188Q425 209 425 232Q425 278 396.5 295.5Q368 313 301 321Q232 330 184.5 345.5Q137 361 107 386Q77 411 63.5 447.5Q50 484 50 535Q50 570 60.5 610.5Q71 651 100 685.5Q129 720 181 743Q233 766 316 766Q382 766 436 753Q490 740 530 722V579Q494 596 465 606.5Q436 617 410.5 623Q385 629 362 631Q339 633 316 633Q277 633 252.5 624.5Q228 616 214 602.5Q200 589 195 571Q190 553 190 534Q190 511 198.5 497Q207 483 224 475Q241 467 266 462.5Q291 458 323 454Z" glyph-name="S" horiz-adv-x="617" unicode="S" /><glyph d="M262 825 342 1000H493L348 825ZM323 454Q383 446 429 431.5Q475 417 505.5 391.5Q536 366 551.5 327.5Q567 289 567 232Q567 191 554.5 147Q542 103 509.5 67Q477 31 420.5 7.5Q364 -16 277 -16Q252 -16 220 -12Q188 -8 156 -1Q124 6 96 14.5Q68 23 50 32V171Q62 164 83.5 155Q105 146 135 137.5Q165 129 201 123Q237 117 278 117Q321 117 349 126Q377 135 394 151Q411 167 418 188Q425 209 425 232Q425 278 396.5 295.5Q368 313 301 321Q232 330 184.5 345.5Q137 361 107 386Q77 411 63.5 447.5Q50 484 50 535Q50 570 60.5 610.5Q71 651 100 685.5Q129 720 181 743Q233 766 316 766Q382 766 436 753Q490 740 530 722V579Q494 596 465 606.5Q436 617 410.5 623Q385 629 362 631Q339 633 316 633Q277 633 252.5 624.5Q228 616 214 602.5Q200 589 195 571Q190 553 190 534Q190 511 198.5 497Q207 483 224 475Q241 467 266 462.5Q291 458 323 454Z" glyph-name="Sacute" horiz-adv-x="617" unicode="&#346;" /><glyph d="M490 1000 365 825H259L134 1000H230L312 936L394 1000ZM323 454Q383 446 429 431.5Q475 417 505.5 391.5Q536 366 551.5 327.5Q567 289 567 232Q567 191 554.5 147Q542 103 509.5 67Q477 31 420.5 7.5Q364 -16 277 -16Q252 -16 220 -12Q188 -8 156 -1Q124 6 96 14.5Q68 23 50 32V171Q62 164 83.5 155Q105 146 135 137.5Q165 129 201 123Q237 117 278 117Q321 117 349 126Q377 135 394 151Q411 167 418 188Q425 209 425 232Q425 278 396.5 295.5Q368 313 301 321Q232 330 184.5 345.5Q137 361 107 386Q77 411 63.5 447.5Q50 484 50 535Q50 570 60.5 610.5Q71 651 100 685.5Q129 720 181 743Q233 766 316 766Q382 766 436 753Q490 740 530 722V579Q494 596 465 606.5Q436 617 410.5 623Q385 629 362 631Q339 633 316 633Q277 633 252.5 624.5Q228 616 214 602.5Q200 589 195 571Q190 553 190 534Q190 511 198.5 497Q207 483 224 475Q241 467 266 462.5Q291 458 323 454Z" glyph-name="Scaron" horiz-adv-x="617" unicode="&#352;" /><glyph d="M213 -185Q223 -176 232 -165Q241 -154 245.5 -142.5Q250 -131 248.5 -121.5Q247 -112 237 -106Q220 -97 213.5 -85Q207 -73 208 -60Q209 -47 215 -35Q221 -23 228 -13Q204 -10 178 -5.5Q152 -1 128 5Q104 11 83.5 18Q63 25 50 32V171Q62 164 83.5 155Q105 146 135 137.5Q165 129 201 123Q237 117 278 117Q321 117 349 126Q377 135 394 151Q411 167 418 188Q425 209 425 232Q425 278 396.5 295.5Q368 313 301 321Q232 330 184.5 345.5Q137 361 107 386Q77 411 63.5 447.5Q50 484 50 535Q50 570 60.5 610.5Q71 651 100 685.5Q129 720 181 743Q233 766 316 766Q382 766 436 753Q490 740 530 722V579Q494 596 465 606.5Q436 617 410.5 623Q385 629 362 631Q339 633 316 633Q277 633 252.5 624.5Q228 616 214 602.5Q200 589 195 571Q190 553 190 534Q190 511 198.5 497Q207 483 224 475Q241 467 266 462.5Q291 458 323 454Q383 446 429 431.5Q475 417 505.5 391.5Q536 366 551.5 327.5Q567 289 567 232Q567 193 556 152Q545 111 517 76Q489 41 441 16.5Q393 -8 318 -14Q309 -28 308.5 -43Q308 -58 330 -71Q355 -85 362 -101Q369 -117 366 -133Q363 -149 353.5 -162.5Q344 -176 335 -185Z" glyph-name="Scedilla" horiz-adv-x="617" unicode="&#350;" /><glyph d="M134 825 259 1000H365L490 825H394L312 889L230 825ZM323 454Q383 446 429 431.5Q475 417 505.5 391.5Q536 366 551.5 327.5Q567 289 567 232Q567 191 554.5 147Q542 103 509.5 67Q477 31 420.5 7.5Q364 -16 277 -16Q252 -16 220 -12Q188 -8 156 -1Q124 6 96 14.5Q68 23 50 32V171Q62 164 83.5 155Q105 146 135 137.5Q165 129 201 123Q237 117 278 117Q321 117 349 126Q377 135 394 151Q411 167 418 188Q425 209 425 232Q425 278 396.5 295.5Q368 313 301 321Q232 330 184.5 345.5Q137 361 107 386Q77 411 63.5 447.5Q50 484 50 535Q50 570 60.5 610.5Q71 651 100 685.5Q129 720 181 743Q233 766 316 766Q382 766 436 753Q490 740 530 722V579Q494 596 465 606.5Q436 617 410.5 623Q385 629 362 631Q339 633 316 633Q277 633 252.5 624.5Q228 616 214 602.5Q200 589 195 571Q190 553 190 534Q190 511 198.5 497Q207 483 224 475Q241 467 266 462.5Q291 458 323 454Z" glyph-name="Scircumflex" horiz-adv-x="617" unicode="&#348;" /><glyph d="M215 -250 228 -192Q196 -168 196 -127Q196 -93 219.5 -69Q243 -45 277 -45Q311 -45 335 -69Q359 -93 359 -127Q359 -138 356 -148Q353 -158 349 -166L310 -250ZM323 454Q383 446 429 431.5Q475 417 505.5 391.5Q536 366 551.5 327.5Q567 289 567 232Q567 191 554.5 147Q542 103 509.5 67Q477 31 420.5 7.5Q364 -16 277 -16Q252 -16 220 -12Q188 -8 156 -1Q124 6 96 14.5Q68 23 50 32V171Q62 164 83.5 155Q105 146 135 137.5Q165 129 201 123Q237 117 278 117Q321 117 349 126Q377 135 394 151Q411 167 418 188Q425 209 425 232Q425 278 396.5 295.5Q368 313 301 321Q232 330 184.5 345.5Q137 361 107 386Q77 411 63.5 447.5Q50 484 50 535Q50 570 60.5 610.5Q71 651 100 685.5Q129 720 181 743Q233 766 316 766Q382 766 436 753Q490 740 530 722V579Q494 596 465 606.5Q436 617 410.5 623Q385 629 362 631Q339 633 316 633Q277 633 252.5 624.5Q228 616 214 602.5Q200 589 195 571Q190 553 190 534Q190 511 198.5 497Q207 483 224 475Q241 467 266 462.5Q291 458 323 454Z" glyph-name="Scommaaccent" horiz-adv-x="617" unicode="&#536;" /><glyph d="M362 617V0H223V617H35V750H550V617Z" glyph-name="T" horiz-adv-x="585" unicode="T" /><glyph d="M362 617V446H475V331H362V0H223V331H110V446H223V617H35V750H550V617Z" glyph-name="Tbar" horiz-adv-x="585" unicode="&#358;" /><glyph d="M210 1000 292 936 374 1000H470L345 825H239L114 1000ZM362 617V0H223V617H35V750H550V617Z" glyph-name="Tcaron" horiz-adv-x="585" unicode="&#356;" /><glyph d="M231 -250 244 -192Q212 -168 212 -127Q212 -93 235.5 -69Q259 -45 293 -45Q327 -45 351 -69Q375 -93 375 -127Q375 -138 372 -148Q369 -158 365 -166L326 -250ZM362 617V0H223V617H35V750H550V617Z" glyph-name="Tcommaaccent" horiz-adv-x="585" unicode="&#354;" /><glyph d="M209 268H318Q354 268 376.5 278Q399 288 411.5 303.5Q424 319 428.5 338Q433 357 433 375Q433 393 428.5 412Q424 431 411.5 446Q399 461 376.5 471Q354 481 318 481H209ZM209 0H70V750H209V614H316Q389 614 439.5 594Q490 574 521.5 541Q553 508 566.5 465Q580 422 580 375Q580 328 566.5 284.5Q553 241 521.5 208Q490 175 439.5 155Q389 135 316 135H209Z" glyph-name="Thorn" horiz-adv-x="610" unicode="&#222;" /><glyph d="M342 118Q360 118 384 121.5Q408 125 429.5 139Q451 153 466 180.5Q481 208 481 255V750H619V243Q619 187 605 146.5Q591 106 568 77Q545 48 515.5 30Q486 12 455.5 1.5Q425 -9 395.5 -12.5Q366 -16 342 -16Q318 -16 288.5 -12.5Q259 -9 228.5 1.5Q198 12 168.5 30Q139 48 116 77Q93 106 79 146.5Q65 187 65 243V750H203V255Q203 208 218 180.5Q233 153 254.5 139Q276 125 300 121.5Q324 118 342 118Z" glyph-name="U" horiz-adv-x="684" unicode="U" /><glyph d="M298 825 378 1000H529L384 825ZM342 118Q360 118 384 121.5Q408 125 429.5 139Q451 153 466 180.5Q481 208 481 255V750H619V243Q619 187 605 146.5Q591 106 568 77Q545 48 515.5 30Q486 12 455.5 1.5Q425 -9 395.5 -12.5Q366 -16 342 -16Q318 -16 288.5 -12.5Q259 -9 228.5 1.5Q198 12 168.5 30Q139 48 116 77Q93 106 79 146.5Q65 187 65 243V750H203V255Q203 208 218 180.5Q233 153 254.5 139Q276 125 300 121.5Q324 118 342 118Z" glyph-name="Uacute" horiz-adv-x="684" unicode="&#218;" /><glyph d="M342 809Q252 809 214 858Q176 907 174 1000H276Q277 973 282.5 957Q288 941 297 932.5Q306 924 317.5 921Q329 918 342 918Q355 918 366.5 921Q378 924 387 932.5Q396 941 401.5 957Q407 973 408 1000H510Q508 907 470 858Q432 809 342 809ZM342 118Q360 118 384 121.5Q408 125 429.5 139Q451 153 466 180.5Q481 208 481 255V750H619V243Q619 187 605 146.5Q591 106 568 77Q545 48 515.5 30Q486 12 455.5 1.5Q425 -9 395.5 -12.5Q366 -16 342 -16Q318 -16 288.5 -12.5Q259 -9 228.5 1.5Q198 12 168.5 30Q139 48 116 77Q93 106 79 146.5Q65 187 65 243V750H203V255Q203 208 218 180.5Q233 153 254.5 139Q276 125 300 121.5Q324 118 342 118Z" glyph-name="Ubreve" horiz-adv-x="684" unicode="&#364;" /><glyph d="M424 825 342 889 260 825H164L289 1000H395L520 825ZM342 118Q360 118 384 121.5Q408 125 429.5 139Q451 153 466 180.5Q481 208 481 255V750H619V243Q619 187 605 146.5Q591 106 568 77Q545 48 515.5 30Q486 12 455.5 1.5Q425 -9 395.5 -12.5Q366 -16 342 -16Q318 -16 288.5 -12.5Q259 -9 228.5 1.5Q198 12 168.5 30Q139 48 116 77Q93 106 79 146.5Q65 187 65 243V750H203V255Q203 208 218 180.5Q233 153 254.5 139Q276 125 300 121.5Q324 118 342 118Z" glyph-name="Ucircumflex" horiz-adv-x="684" unicode="&#219;" /><glyph d="M372 908Q372 942 395.5 966Q419 990 453 990Q487 990 511 966Q535 942 535 908Q535 874 511 850.5Q487 827 453 827Q419 827 395.5 850.5Q372 874 372 908ZM149 908Q149 942 172.5 966Q196 990 230 990Q264 990 288 966Q312 942 312 908Q312 874 288 850.5Q264 827 230 827Q196 827 172.5 850.5Q149 874 149 908ZM342 118Q360 118 384 121.5Q408 125 429.5 139Q451 153 466 180.5Q481 208 481 255V750H619V243Q619 187 605 146.5Q591 106 568 77Q545 48 515.5 30Q486 12 455.5 1.5Q425 -9 395.5 -12.5Q366 -16 342 -16Q318 -16 288.5 -12.5Q259 -9 228.5 1.5Q198 12 168.5 30Q139 48 116 77Q93 106 79 146.5Q65 187 65 243V750H203V255Q203 208 218 180.5Q233 153 254.5 139Q276 125 300 121.5Q324 118 342 118Z" glyph-name="Udieresis" horiz-adv-x="684" unicode="&#220;" /><glyph d="M300 825 155 1000H306L386 825ZM342 118Q360 118 384 121.5Q408 125 429.5 139Q451 153 466 180.5Q481 208 481 255V750H619V243Q619 187 605 146.5Q591 106 568 77Q545 48 515.5 30Q486 12 455.5 1.5Q425 -9 395.5 -12.5Q366 -16 342 -16Q318 -16 288.5 -12.5Q259 -9 228.5 1.5Q198 12 168.5 30Q139 48 116 77Q93 106 79 146.5Q65 187 65 243V750H203V255Q203 208 218 180.5Q233 153 254.5 139Q276 125 300 121.5Q324 118 342 118Z" glyph-name="Ugrave" horiz-adv-x="684" unicode="&#217;" /><glyph d="M360 825 440 1000H591L466 825ZM193 825 273 1000H424L299 825ZM342 118Q360 118 384 121.5Q408 125 429.5 139Q451 153 466 180.5Q481 208 481 255V750H619V243Q619 187 605 146.5Q591 106 568 77Q545 48 515.5 30Q486 12 455.5 1.5Q425 -9 395.5 -12.5Q366 -16 342 -16Q318 -16 288.5 -12.5Q259 -9 228.5 1.5Q198 12 168.5 30Q139 48 116 77Q93 106 79 146.5Q65 187 65 243V750H203V255Q203 208 218 180.5Q233 153 254.5 139Q276 125 300 121.5Q324 118 342 118Z" glyph-name="Uhungarumlaut" horiz-adv-x="684" unicode="&#368;" /><glyph d="M479 825H205V953H479ZM342 118Q360 118 384 121.5Q408 125 429.5 139Q451 153 466 180.5Q481 208 481 255V750H619V243Q619 187 605 146.5Q591 106 568 77Q545 48 515.5 30Q486 12 455.5 1.5Q425 -9 395.5 -12.5Q366 -16 342 -16Q318 -16 288.5 -12.5Q259 -9 228.5 1.5Q198 12 168.5 30Q139 48 116 77Q93 106 79 146.5Q65 187 65 243V750H203V255Q203 208 218 180.5Q233 153 254.5 139Q276 125 300 121.5Q324 118 342 118Z" glyph-name="Umacron" horiz-adv-x="684" unicode="&#362;" /><glyph d="M235 -113Q235 -57 272 -9Q237 -3 200 12.5Q163 28 133 57.5Q103 87 84 132Q65 177 65 243V750H203V255Q203 208 218 180.5Q233 153 254.5 139Q276 125 300 121.5Q324 118 342 118Q360 118 384 121.5Q408 125 429.5 139Q451 153 466 180.5Q481 208 481 255V750H619V243Q619 179 601 134.5Q583 90 554 61Q525 32 489.5 15.5Q454 -1 420 -8Q387 -18 367.5 -37Q348 -56 348 -84Q348 -106 365 -113.5Q382 -121 399 -121Q413 -121 424.5 -119Q436 -117 445 -115Q456 -112 464 -109V-213Q456 -218 433 -225Q410 -232 369 -232Q345 -232 321 -225Q297 -218 278 -203.5Q259 -189 247 -166.5Q235 -144 235 -113Z" glyph-name="Uogonek" horiz-adv-x="684" unicode="&#370;" /><glyph d="M378 912Q378 933 368.5 941Q359 949 342 949Q324 949 315 941Q306 933 306 912Q306 892 315 884.5Q324 877 342 877Q359 877 368.5 884.5Q378 892 378 912ZM446 912Q446 858 417.5 833.5Q389 809 342 809Q294 809 265.5 833.5Q237 858 237 912Q237 966 265.5 991Q294 1016 342 1016Q389 1016 417.5 991Q446 966 446 912ZM342 118Q360 118 384 121.5Q408 125 429.5 139Q451 153 466 180.5Q481 208 481 255V750H619V243Q619 187 605 146.5Q591 106 568 77Q545 48 515.5 30Q486 12 455.5 1.5Q425 -9 395.5 -12.5Q366 -16 342 -16Q318 -16 288.5 -12.5Q259 -9 228.5 1.5Q198 12 168.5 30Q139 48 116 77Q93 106 79 146.5Q65 187 65 243V750H203V255Q203 208 218 180.5Q233 153 254.5 139Q276 125 300 121.5Q324 118 342 118Z" glyph-name="Uring" horiz-adv-x="684" unicode="&#366;" /><glyph d="M550 984Q544 895 512 855.5Q480 816 410 818Q379 819 360 830.5Q341 842 327.5 855Q314 868 302.5 878.5Q291 889 276 889Q253 889 245 871.5Q237 854 235 829L133 842Q139 931 171 970.5Q203 1010 273 1008Q304 1007 323 995.5Q342 984 355.5 971Q369 958 380.5 947.5Q392 937 407 937Q430 937 438 954.5Q446 972 448 997ZM342 118Q360 118 384 121.5Q408 125 429.5 139Q451 153 466 180.5Q481 208 481 255V750H619V243Q619 187 605 146.5Q591 106 568 77Q545 48 515.5 30Q486 12 455.5 1.5Q425 -9 395.5 -12.5Q366 -16 342 -16Q318 -16 288.5 -12.5Q259 -9 228.5 1.5Q198 12 168.5 30Q139 48 116 77Q93 106 79 146.5Q65 187 65 243V750H203V255Q203 208 218 180.5Q233 153 254.5 139Q276 125 300 121.5Q324 118 342 118Z" glyph-name="Utilde" horiz-adv-x="684" unicode="&#360;" /><glyph d="M504 750H654L388 -16H291L25 750H175L340 218Z" glyph-name="V" horiz-adv-x="679" unicode="V" /><glyph d="M380 750H503L625 251L712 750H859L694 -16H570L442 505L312 -16H189L25 750H172L259 249Z" glyph-name="W" horiz-adv-x="884" unicode="W" /><glyph d="M524 825 442 889 360 825H264L389 1000H495L620 825ZM380 750H503L625 251L712 750H859L694 -16H570L442 505L312 -16H189L25 750H172L259 249Z" glyph-name="Wcircumflex" horiz-adv-x="884" unicode="&#372;" /><glyph d="M510 750H677L434 379L682 0H512L351 269L190 0H20L268 380L25 750H192L351 485Z" glyph-name="X" horiz-adv-x="702" unicode="X" /><glyph d="M435 307V0H297V307L25 750H189L366 432L543 750H707Z" glyph-name="Y" horiz-adv-x="732" unicode="Y" /><glyph d="M322 825 402 1000H553L408 825ZM435 307V0H297V307L25 750H189L366 432L543 750H707Z" glyph-name="Yacute" horiz-adv-x="732" unicode="&#221;" /><glyph d="M448 825 366 889 284 825H188L313 1000H419L544 825ZM435 307V0H297V307L25 750H189L366 432L543 750H707Z" glyph-name="Ycircumflex" horiz-adv-x="732" unicode="&#374;" /><glyph d="M396 908Q396 942 419.5 966Q443 990 477 990Q511 990 535 966Q559 942 559 908Q559 874 535 850.5Q511 827 477 827Q443 827 419.5 850.5Q396 874 396 908ZM173 908Q173 942 196.5 966Q220 990 254 990Q288 990 312 966Q336 942 336 908Q336 874 312 850.5Q288 827 254 827Q220 827 196.5 850.5Q173 874 173 908ZM435 307V0H297V307L25 750H189L366 432L543 750H707Z" glyph-name="Ydieresis" horiz-adv-x="732" unicode="&#376;" /><glyph d="M35 0V89L387 617H53V750H576V661L224 133H589V0Z" glyph-name="Z" horiz-adv-x="624" unicode="Z" /><glyph d="M262 825 342 1000H493L348 825ZM35 0V89L387 617H53V750H576V661L224 133H589V0Z" glyph-name="Zacute" horiz-adv-x="624" unicode="&#377;" /><glyph d="M484 1000 359 825H253L128 1000H224L306 936L388 1000ZM35 0V89L387 617H53V750H576V661L224 133H589V0Z" glyph-name="Zcaron" horiz-adv-x="624" unicode="&#381;" /><glyph d="M225 908Q225 942 248.5 966Q272 990 306 990Q340 990 364 966Q388 942 388 908Q388 874 364 850.5Q340 827 306 827Q272 827 248.5 850.5Q225 874 225 908ZM35 0V89L387 617H53V750H576V661L224 133H589V0Z" glyph-name="Zdotaccent" horiz-adv-x="624" unicode="&#379;" /><glyph d="M242 217Q207 214 195 198Q183 182 183 163Q183 154 185 144.5Q187 135 193 127Q199 119 210.5 114Q222 109 241 109Q262 109 287.5 117Q313 125 328 133V224ZM328 339Q328 365 312.5 378Q297 391 261 391Q223 391 174.5 382Q126 373 85 359V486Q129 505 177.5 510.5Q226 516 261 516Q320 516 358.5 503Q397 490 419.5 466Q442 442 451 408Q460 374 460 333V0H367L359 15Q332 1 299 -7.5Q266 -16 239 -16Q185 -16 149 -1Q113 14 91 38.5Q69 63 59.5 95.5Q50 128 50 163Q50 196 60 225Q70 254 92 277Q114 300 150 315Q186 330 239 333Z" glyph-name="a" horiz-adv-x="520" unicode="a" /><glyph d="M282 306 250 221H314ZM397 0 357 104H206L167 0H25L237 516H327L539 0Z" glyph-name="a.smcp" horiz-adv-x="574" /><glyph d="M242 217Q207 214 195 198Q183 182 183 163Q183 154 185 144.5Q187 135 193 127Q199 119 210.5 114Q222 109 241 109Q262 109 287.5 117Q313 125 328 133V224ZM217 575 297 750H448L303 575ZM328 339Q328 365 312.5 378Q297 391 261 391Q223 391 174.5 382Q126 373 85 359V486Q129 505 177.5 510.5Q226 516 261 516Q320 516 358.5 503Q397 490 419.5 466Q442 442 451 408Q460 374 460 333V0H367L359 15Q332 1 299 -7.5Q266 -16 239 -16Q185 -16 149 -1Q113 14 91 38.5Q69 63 59.5 95.5Q50 128 50 163Q50 196 60 225Q70 254 92 277Q114 300 150 315Q186 330 239 333Z" glyph-name="aacute" horiz-adv-x="520" unicode="&#225;" /><glyph d="M282 306 250 221H314ZM238 575 318 750H469L324 575ZM397 0 357 104H206L167 0H25L237 516H327L539 0Z" glyph-name="aacute.smcp" horiz-adv-x="564" /><glyph d="M260 559Q170 559 132 608Q94 657 92 750H194Q195 723 200.5 707Q206 691 215 682.5Q224 674 235.5 671Q247 668 260 668Q273 668 284.5 671Q296 674 305 682.5Q314 691 319.5 707Q325 723 326 750H428Q426 657 388 608Q350 559 260 559ZM242 217Q207 214 195 198Q183 182 183 163Q183 154 185 144.5Q187 135 193 127Q199 119 210.5 114Q222 109 241 109Q262 109 287.5 117Q313 125 328 133V224ZM328 339Q328 365 312.5 378Q297 391 261 391Q223 391 174.5 382Q126 373 85 359V486Q129 505 177.5 510.5Q226 516 261 516Q320 516 358.5 503Q397 490 419.5 466Q442 442 451 408Q460 374 460 333V0H367L359 15Q332 1 299 -7.5Q266 -16 239 -16Q185 -16 149 -1Q113 14 91 38.5Q69 63 59.5 95.5Q50 128 50 163Q50 196 60 225Q70 254 92 277Q114 300 150 315Q186 330 239 333Z" glyph-name="abreve" horiz-adv-x="520" unicode="&#259;" /><glyph d="M287 559Q197 559 159 608Q121 657 119 750H221Q222 723 227.5 707Q233 691 242 682.5Q251 674 262.5 671Q274 668 287 668Q300 668 311.5 671Q323 674 332 682.5Q341 691 346.5 707Q352 723 353 750H455Q453 657 415 608Q377 559 287 559ZM282 306 250 221H314ZM397 0 357 104H206L167 0H25L237 516H327L539 0Z" glyph-name="abreve.smcp" horiz-adv-x="574" /><glyph d="M242 217Q207 214 195 198Q183 182 183 163Q183 154 185 144.5Q187 135 193 127Q199 119 210.5 114Q222 109 241 109Q262 109 287.5 117Q313 125 328 133V224ZM343 575 261 639 179 575H83L208 750H314L439 575ZM328 339Q328 365 312.5 378Q297 391 261 391Q223 391 174.5 382Q126 373 85 359V486Q129 505 177.5 510.5Q226 516 261 516Q320 516 358.5 503Q397 490 419.5 466Q442 442 451 408Q460 374 460 333V0H367L359 15Q332 1 299 -7.5Q266 -16 239 -16Q185 -16 149 -1Q113 14 91 38.5Q69 63 59.5 95.5Q50 128 50 163Q50 196 60 225Q70 254 92 277Q114 300 150 315Q186 330 239 333Z" glyph-name="acircumflex" horiz-adv-x="520" unicode="&#226;" /><glyph d="M282 306 250 221H314ZM364 575 282 639 200 575H104L229 750H335L460 575ZM397 0 357 104H206L167 0H25L237 516H327L539 0Z" glyph-name="acircumflex.smcp" horiz-adv-x="564" /><glyph d="M203 575 283 750H434L289 575Z" glyph-name="acute" horiz-adv-x="540" unicode="&#180;" /><glyph d="M242 217Q207 214 195 198Q183 182 183 163Q183 154 185 144.5Q187 135 193 127Q199 119 210.5 114Q222 109 241 109Q262 109 287.5 117Q313 125 328 133V224ZM68 658Q68 692 91.5 716Q115 740 149 740Q183 740 207 716Q231 692 231 658Q231 624 207 600.5Q183 577 149 577Q115 577 91.5 600.5Q68 624 68 658ZM291 658Q291 692 314.5 716Q338 740 372 740Q406 740 430 716Q454 692 454 658Q454 624 430 600.5Q406 577 372 577Q338 577 314.5 600.5Q291 624 291 658ZM328 339Q328 365 312.5 378Q297 391 261 391Q223 391 174.5 382Q126 373 85 359V486Q129 505 177.5 510.5Q226 516 261 516Q320 516 358.5 503Q397 490 419.5 466Q442 442 451 408Q460 374 460 333V0H367L359 15Q332 1 299 -7.5Q266 -16 239 -16Q185 -16 149 -1Q113 14 91 38.5Q69 63 59.5 95.5Q50 128 50 163Q50 196 60 225Q70 254 92 277Q114 300 150 315Q186 330 239 333Z" glyph-name="adieresis" horiz-adv-x="520" unicode="&#228;" /><glyph d="M282 306 250 221H314ZM89 658Q89 692 112.5 716Q136 740 170 740Q204 740 228 716Q252 692 252 658Q252 624 228 600.5Q204 577 170 577Q136 577 112.5 600.5Q89 624 89 658ZM312 658Q312 692 335.5 716Q359 740 393 740Q427 740 451 716Q475 692 475 658Q475 624 451 600.5Q427 577 393 577Q359 577 335.5 600.5Q312 624 312 658ZM397 0 357 104H206L167 0H25L237 516H327L539 0Z" glyph-name="adieresis.smcp" horiz-adv-x="564" /><glyph d="M561 391Q517 391 498 367Q479 343 473 307H629Q627 341 614 366Q601 391 561 391ZM251 108Q279 108 304.5 117Q330 126 347 139Q341 163 338 191H241Q207 191 195 181.5Q183 172 183 156Q183 139 196.5 123.5Q210 108 251 108ZM413 475Q466 516 561 516Q628 516 668.5 494Q709 472 730.5 435.5Q752 399 758.5 350.5Q765 302 765 250V187H474Q475 149 499 129Q523 109 561 109Q583 109 603 110.5Q623 112 644.5 116.5Q666 121 689 128Q712 135 740 147V17Q692 -5 644 -10.5Q596 -16 561 -16Q461 -16 408 29L407 28Q372 5 329.5 -5.5Q287 -16 249 -16Q196 -16 158.5 -2.5Q121 11 97 34.5Q73 58 61.5 89.5Q50 121 50 156Q50 188 58.5 216.5Q67 245 89 266Q111 287 149 299.5Q187 312 246 312H336V336Q336 365 318.5 378Q301 391 259 391Q221 391 173 381.5Q125 372 85 359V486Q105 495 128 500.5Q151 506 174 509.5Q197 513 219 514.5Q241 516 259 516Q316 516 352.5 507.5Q389 499 413 475Z" glyph-name="ae" horiz-adv-x="815" unicode="&#230;" /><glyph d="M388 318V373L353 318ZM745 193H517V125H775V0H388V193H274L152 0H5L334 500H775V375H517V318H745Z" glyph-name="ae.smcp" horiz-adv-x="830" /><glyph d="M1159 277H41V405H1159Z" glyph-name="afii00208" horiz-adv-x="1200" unicode="&#8213;" /><glyph d="M242 217Q207 214 195 198Q183 182 183 163Q183 154 185 144.5Q187 135 193 127Q199 119 210.5 114Q222 109 241 109Q262 109 287.5 117Q313 125 328 133V224ZM217 575 72 750H223L303 575ZM328 339Q328 365 312.5 378Q297 391 261 391Q223 391 174.5 382Q126 373 85 359V486Q129 505 177.5 510.5Q226 516 261 516Q320 516 358.5 503Q397 490 419.5 466Q442 442 451 408Q460 374 460 333V0H367L359 15Q332 1 299 -7.5Q266 -16 239 -16Q185 -16 149 -1Q113 14 91 38.5Q69 63 59.5 95.5Q50 128 50 163Q50 196 60 225Q70 254 92 277Q114 300 150 315Q186 330 239 333Z" glyph-name="agrave" horiz-adv-x="520" unicode="&#224;" /><glyph d="M282 306 250 221H314ZM238 575 93 750H244L324 575ZM397 0 357 104H206L167 0H25L237 516H327L539 0Z" glyph-name="agrave.smcp" horiz-adv-x="564" /><glyph d="M397 575H123V703H397ZM242 217Q207 214 195 198Q183 182 183 163Q183 154 185 144.5Q187 135 193 127Q199 119 210.5 114Q222 109 241 109Q262 109 287.5 117Q313 125 328 133V224ZM328 339Q328 365 312.5 378Q297 391 261 391Q223 391 174.5 382Q126 373 85 359V486Q129 505 177.5 510.5Q226 516 261 516Q320 516 358.5 503Q397 490 419.5 466Q442 442 451 408Q460 374 460 333V0H367L359 15Q332 1 299 -7.5Q266 -16 239 -16Q185 -16 149 -1Q113 14 91 38.5Q69 63 59.5 95.5Q50 128 50 163Q50 196 60 225Q70 254 92 277Q114 300 150 315Q186 330 239 333Z" glyph-name="amacron" horiz-adv-x="520" unicode="&#257;" /><glyph d="M424 575H150V703H424ZM282 306 250 221H314ZM397 0 357 104H206L167 0H25L237 516H327L539 0Z" glyph-name="amacron.smcp" horiz-adv-x="574" /><glyph d="M339 115Q345 115 351.5 115.5Q358 116 365 117Q318 159 282 208Q246 257 220 311Q203 297 193 279.5Q183 262 183 238Q183 206 195 182Q207 158 228 142.5Q249 127 277.5 120Q306 113 339 115ZM396 560Q399 568 400.5 576Q402 584 402 597Q402 608 394 621.5Q386 635 361 635Q341 635 329.5 628Q318 621 311 609.5Q304 598 302 584.5Q300 571 300 559Q300 520 311.5 468.5Q323 417 348.5 364Q374 311 413.5 261.5Q453 212 509 177Q531 197 544.5 225Q558 253 558 290Q558 321 551 340Q544 359 532.5 369.5Q521 380 507.5 383.5Q494 387 482 387Q470 387 456 386Q442 385 428.5 382.5Q415 380 403 377.5Q391 375 383 372V500Q391 503 403.5 506Q416 509 430 511.5Q444 514 458 515Q472 516 484 516Q530 516 569 505Q608 494 636.5 467.5Q665 441 681 397.5Q697 354 697 290Q697 240 682.5 199.5Q668 159 644 125Q678 119 719 119V-16Q662 -16 611 -6Q560 4 515 23Q472 3 427 -6.5Q382 -16 339 -16Q274 -16 220 -2Q166 12 127 42Q88 72 66.5 120.5Q45 169 45 238Q45 310 81 362Q117 414 174 446Q167 475 164 503.5Q161 532 161 559Q161 593 171 629.5Q181 666 204.5 696.5Q228 727 266 746.5Q304 766 361 766Q413 766 447 754Q481 742 500.5 722Q520 702 528 675Q536 648 536 617Q536 600 533 584.5Q530 569 526 560Z" glyph-name="ampersand" horiz-adv-x="754" unicode="&amp;" /><glyph d="M242 217Q207 214 195 198Q183 182 183 163Q183 154 185 144.5Q187 135 193 127Q199 119 210.5 114Q222 109 241 109Q262 109 287.5 117Q313 125 328 133V224ZM328 339Q328 365 312.5 378Q297 391 261 391Q223 391 174.5 382Q126 373 85 359V486Q129 505 177.5 510.5Q226 516 261 516Q320 516 358.5 503Q397 490 419.5 466Q442 442 451 408Q460 374 460 333V0Q403 -15 378.5 -38Q354 -61 354 -84Q354 -106 371 -113.5Q388 -121 405 -121Q419 -121 430.5 -119Q442 -117 451 -115Q462 -112 470 -109V-213Q462 -218 439 -225Q416 -232 375 -232Q351 -232 327 -225.5Q303 -219 284 -206Q265 -193 253 -172.5Q241 -152 241 -123Q241 -81 269.5 -50Q298 -19 365 4L359 15Q332 1 299 -7.5Q266 -16 239 -16Q185 -16 149 -1Q113 14 91 38.5Q69 63 59.5 95.5Q50 128 50 163Q50 196 60 225Q70 254 92 277Q114 300 150 315Q186 330 239 333Z" glyph-name="aogonek" horiz-adv-x="520" unicode="&#261;" /><glyph d="M282 306 250 221H314ZM539 0Q522 0 502.5 -6Q483 -12 466.5 -23Q450 -34 439 -49.5Q428 -65 428 -84Q428 -106 445 -113.5Q462 -121 479 -121Q493 -121 504.5 -119Q516 -117 525 -115Q536 -112 544 -109V-213Q536 -218 513 -225Q490 -232 449 -232Q425 -232 401 -225Q377 -218 358 -203.5Q339 -189 327 -166.5Q315 -144 315 -113Q315 -65 335.5 -31.5Q356 2 387 25L357 104H206L167 0H25L237 516H327Z" glyph-name="aogonek.smcp" horiz-adv-x="574" /><glyph d="M257 327H403V173H257ZM217 367V133H443V367ZM80 500H580V0H80Z" glyph-name="approxequal" horiz-adv-x="660" unicode="&#8776;" /><glyph d="M297 662Q297 683 287.5 691Q278 699 261 699Q243 699 234 691Q225 683 225 662Q225 642 234 634.5Q243 627 261 627Q278 627 287.5 634.5Q297 642 297 662ZM242 217Q207 214 195 198Q183 182 183 163Q183 154 185 144.5Q187 135 193 127Q199 119 210.5 114Q222 109 241 109Q262 109 287.5 117Q313 125 328 133V224ZM365 662Q365 608 336.5 583.5Q308 559 261 559Q213 559 184.5 583.5Q156 608 156 662Q156 716 184.5 741Q213 766 261 766Q308 766 336.5 741Q365 716 365 662ZM328 339Q328 365 312.5 378Q297 391 261 391Q223 391 174.5 382Q126 373 85 359V486Q129 505 177.5 510.5Q226 516 261 516Q320 516 358.5 503Q397 490 419.5 466Q442 442 451 408Q460 374 460 333V0H367L359 15Q332 1 299 -7.5Q266 -16 239 -16Q185 -16 149 -1Q113 14 91 38.5Q69 63 59.5 95.5Q50 128 50 163Q50 196 60 225Q70 254 92 277Q114 300 150 315Q186 330 239 333Z" glyph-name="aring" horiz-adv-x="520" unicode="&#229;" /><glyph d="M282 306 250 221H314ZM318 662Q318 683 308.5 691Q299 699 282 699Q264 699 255 691Q246 683 246 662Q246 642 255 634.5Q264 627 282 627Q299 627 308.5 634.5Q318 642 318 662ZM386 662Q386 608 357.5 583.5Q329 559 282 559Q234 559 205.5 583.5Q177 608 177 662Q177 716 205.5 741Q234 766 282 766Q329 766 357.5 741Q386 716 386 662ZM397 0 357 104H206L167 0H25L237 516H327L539 0Z" glyph-name="aring.smcp" horiz-adv-x="564" /><glyph d="M328 750 513 500H390L280 599L170 500H47L232 750Z" glyph-name="asciicircum" horiz-adv-x="540" unicode="^" /><glyph d="M335 305Q316 319 298.5 324.5Q281 330 260 330Q241 330 226.5 320.5Q212 311 197 300Q182 289 163 279.5Q144 270 116 270Q90 270 68.5 281Q47 292 35 304V426Q54 412 71.5 406.5Q89 401 110 401Q129 401 143.5 410.5Q158 420 173 431Q188 442 207 451.5Q226 461 254 461Q280 461 301.5 450Q323 439 335 427Z" glyph-name="asciitilde" horiz-adv-x="370" unicode="~" /><glyph d="M283 639 387 689 427 546 322 526 399 445 276 361 224 456 172 358 54 447 126 526 18 546 64 688 164 640 149 750H299Z" glyph-name="asterisk" horiz-adv-x="445" unicode="*" /><glyph d="M575 372Q558 378 536 383Q514 388 488 388Q460 388 443 376.5Q426 365 417 346Q408 327 405 302Q402 277 402 250Q402 223 405 198Q408 173 417 154Q426 135 443 123.5Q460 112 488 112Q516 112 537 116.5Q558 121 575 128ZM614 0 606 17Q577 3 548.5 -5Q520 -13 488 -13Q423 -13 381 6Q339 25 313.5 59.5Q288 94 278 142.5Q268 191 268 250Q268 309 278 357.5Q288 406 313.5 440.5Q339 475 381 494Q423 513 488 513Q520 513 548.5 505Q577 497 606 483L612 500H706V127Q770 137 794 190Q818 243 818 332Q818 393 807.5 448Q797 503 765 544.5Q733 586 672 610.5Q611 635 511 635Q410 635 344.5 600.5Q279 566 241 511Q203 456 188.5 387.5Q174 319 174 250Q174 181 188.5 112.5Q203 44 241 -11Q279 -66 344.5 -100.5Q410 -135 511 -135Q583 -135 648.5 -119.5Q714 -104 771 -76L772 -221Q717 -241 651 -252Q585 -263 511 -263Q417 -263 345 -242.5Q273 -222 220.5 -185.5Q168 -149 133 -100Q98 -51 77 6Q56 63 47 125.5Q38 188 38 250Q38 344 59 435.5Q80 527 133 600Q186 673 278 718Q370 763 511 763Q652 763 738.5 728Q825 693 873 634Q921 575 937.5 497Q954 419 954 332Q954 257 940.5 195.5Q927 134 895.5 90.5Q864 47 812 23.5Q760 0 683 0Z" glyph-name="at" horiz-adv-x="1012" unicode="@" /><glyph d="M469 734Q463 645 431 605.5Q399 566 329 568Q298 569 279 580.5Q260 592 246.5 605Q233 618 221.5 628.5Q210 639 195 639Q172 639 164 621.5Q156 604 154 579L52 592Q58 681 90 720.5Q122 760 192 758Q223 757 242 745.5Q261 734 274.5 721Q288 708 299.5 697.5Q311 687 326 687Q349 687 357 704.5Q365 722 367 747ZM242 217Q207 214 195 198Q183 182 183 163Q183 154 185 144.5Q187 135 193 127Q199 119 210.5 114Q222 109 241 109Q262 109 287.5 117Q313 125 328 133V224ZM328 339Q328 365 312.5 378Q297 391 261 391Q223 391 174.5 382Q126 373 85 359V486Q129 505 177.5 510.5Q226 516 261 516Q320 516 358.5 503Q397 490 419.5 466Q442 442 451 408Q460 374 460 333V0H367L359 15Q332 1 299 -7.5Q266 -16 239 -16Q185 -16 149 -1Q113 14 91 38.5Q69 63 59.5 95.5Q50 128 50 163Q50 196 60 225Q70 254 92 277Q114 300 150 315Q186 330 239 333Z" glyph-name="atilde" horiz-adv-x="520" unicode="&#227;" /><glyph d="M495 734Q489 645 457 605.5Q425 566 355 568Q324 569 305 580.5Q286 592 272.5 605Q259 618 247.5 628.5Q236 639 221 639Q198 639 190 621.5Q182 604 180 579L78 592Q84 681 116 720.5Q148 760 218 758Q249 757 268 745.5Q287 734 300.5 721Q314 708 325.5 697.5Q337 687 352 687Q375 687 383 704.5Q391 722 393 747ZM282 306 250 221H314ZM397 0 357 104H206L167 0H25L237 516H327L539 0Z" glyph-name="atilde.smcp" horiz-adv-x="574" /><glyph d="M196 128Q213 121 237.5 115Q262 109 289 109Q319 109 337.5 119.5Q356 130 366.5 149Q377 168 380.5 194Q384 220 384 250Q384 280 380.5 306Q377 332 366.5 351Q356 370 337.5 380.5Q319 391 289 391Q262 391 237.5 385Q213 379 196 372ZM65 750H196V497Q216 505 243 510.5Q270 516 291 516Q357 516 401 498.5Q445 481 471 447.5Q497 414 507.5 364Q518 314 518 250Q518 186 507.5 136.5Q497 87 471 53Q445 19 401 1.5Q357 -16 291 -16Q262 -16 227 -7Q192 2 165 18L158 0H65Z" glyph-name="b" horiz-adv-x="568" unicode="b" /><glyph d="M289 329Q309 329 314 335Q319 341 319 352Q319 363 313 369Q307 375 284 375H198V329ZM336 166Q336 185 327.5 196.5Q319 208 288 208H198V125H288Q319 125 327.5 136.5Q336 148 336 166ZM70 500H276Q370 500 409.5 461Q449 422 449 352Q449 311 426 279Q450 256 459.5 228.5Q469 201 469 166Q469 131 460 101Q451 71 430 48.5Q409 26 375 13Q341 0 290 0H70Z" glyph-name="b.smcp" horiz-adv-x="509" /><glyph d="M351 -206 0 816H147L498 -206Z" glyph-name="backslash" horiz-adv-x="498" unicode="\" /><glyph d="M217 -206H82V816H217Z" glyph-name="bar" horiz-adv-x="299" unicode="|" /><glyph d="M62 374Q66 374 69 376Q72 378 71 386L55 676Q53 714 62.5 740.5Q72 767 91 784Q110 801 137 808.5Q164 816 197 816H249V683H206Q202 683 198.5 681Q195 679 196 672L213 381Q214 358 206.5 339.5Q199 321 187 305Q199 289 206.5 270Q214 251 213 229L196 -62Q195 -69 198.5 -71Q202 -73 206 -73H249V-206H197Q164 -206 137 -198.5Q110 -191 91 -174Q72 -157 62.5 -130.5Q53 -104 55 -66L71 224Q72 232 69 234Q66 236 62 236H23V374Z" glyph-name="braceleft" horiz-adv-x="284" unicode="{" /><glyph d="M261 374V236H222Q218 236 215 234Q212 232 213 224L229 -66Q231 -104 221.5 -130.5Q212 -157 193 -174Q174 -191 147 -198.5Q120 -206 87 -206H35V-73H78Q82 -73 85.5 -71Q89 -69 88 -62L71 229Q69 251 76.5 270Q84 289 97 305Q84 321 76.5 339.5Q69 358 71 381L88 672Q89 679 85.5 681Q82 683 78 683H35V816H87Q120 816 147 808.5Q174 801 193 784Q212 767 221.5 740.5Q231 714 229 676L213 386Q212 374 219 374Z" glyph-name="braceright" horiz-adv-x="284" unicode="}" /><glyph d="M207 -73H271V-206H70V816H271V683H207Z" glyph-name="bracketleft" horiz-adv-x="306" unicode="[" /><glyph d="M99 683H35V816H236V-206H35V-73H99Z" glyph-name="bracketright" horiz-adv-x="306" unicode="]" /><glyph d="M270 559Q180 559 142 608Q104 657 102 750H204Q205 723 210.5 707Q216 691 225 682.5Q234 674 245.5 671Q257 668 270 668Q283 668 294.5 671Q306 674 315 682.5Q324 691 329.5 707Q335 723 336 750H438Q436 657 398 608Q360 559 270 559Z" glyph-name="breve" horiz-adv-x="540" unicode="&#728;" /><glyph d="M82 284H217V-206H82ZM82 816H217V326H82Z" glyph-name="brokenbar" horiz-adv-x="299" unicode="&#166;" /><glyph d="M65 375Q65 403 75.5 427.5Q86 452 104.5 470.5Q123 489 147.5 499.5Q172 510 200 510Q228 510 252.5 499.5Q277 489 295.5 470.5Q314 452 324.5 427.5Q335 403 335 375Q335 347 324.5 322.5Q314 298 295.5 279.5Q277 261 252.5 250.5Q228 240 200 240Q172 240 147.5 250.5Q123 261 104.5 279.5Q86 298 75.5 322.5Q65 347 65 375Z" glyph-name="bullet" horiz-adv-x="400" unicode="&#8226;" /><glyph d="M184 250Q184 222 187.5 196.5Q191 171 201 151.5Q211 132 229 120.5Q247 109 276 109Q318 109 357.5 117Q397 125 440 141V15Q398 -5 353.5 -10.5Q309 -16 276 -16Q212 -16 168.5 3.5Q125 23 99 58Q73 93 61.5 142Q50 191 50 250Q50 309 61.5 358Q73 407 99 442Q125 477 168.5 496.5Q212 516 276 516Q309 516 353.5 510.5Q398 505 440 485V359Q397 375 357.5 383Q318 391 276 391Q247 391 229 379.5Q211 368 201 348.5Q191 329 187.5 303.5Q184 278 184 250Z" glyph-name="c" horiz-adv-x="490" unicode="c" /><glyph d="M55 250Q55 304 68.5 352.5Q82 401 111 437Q140 473 185.5 494.5Q231 516 295 516Q330 516 372.5 511.5Q415 507 460 488V363Q417 380 377 385.5Q337 391 294 391Q263 391 242.5 378.5Q222 366 209.5 346Q197 326 192 300.5Q187 275 187 250Q187 224 192 199Q197 174 209.5 154Q222 134 242.5 121.5Q263 109 294 109Q337 109 377 114.5Q417 120 460 137V12Q415 -7 372.5 -11.5Q330 -16 295 -16Q231 -16 185.5 5.5Q140 27 111 63Q82 99 68.5 147.5Q55 196 55 250Z" glyph-name="c.smcp" horiz-adv-x="515" /><glyph d="M221 575 301 750H452L307 575ZM184 250Q184 222 187.5 196.5Q191 171 201 151.5Q211 132 229 120.5Q247 109 276 109Q318 109 357.5 117Q397 125 440 141V15Q398 -5 353.5 -10.5Q309 -16 276 -16Q212 -16 168.5 3.5Q125 23 99 58Q73 93 61.5 142Q50 191 50 250Q50 309 61.5 358Q73 407 99 442Q125 477 168.5 496.5Q212 516 276 516Q309 516 353.5 510.5Q398 505 440 485V359Q397 375 357.5 383Q318 391 276 391Q247 391 229 379.5Q211 368 201 348.5Q191 329 187.5 303.5Q184 278 184 250Z" glyph-name="cacute" horiz-adv-x="490" unicode="&#263;" /><glyph d="M239 575 319 750H470L325 575ZM55 250Q55 304 68.5 352.5Q82 401 111 437Q140 473 185.5 494.5Q231 516 295 516Q330 516 372.5 511.5Q415 507 460 488V363Q417 380 377 385.5Q337 391 294 391Q263 391 242.5 378.5Q222 366 209.5 346Q197 326 192 300.5Q187 275 187 250Q187 224 192 199Q197 174 209.5 154Q222 134 242.5 121.5Q263 109 294 109Q337 109 377 114.5Q417 120 460 137V12Q415 -7 372.5 -11.5Q330 -16 295 -16Q231 -16 185.5 5.5Q140 27 111 63Q82 99 68.5 147.5Q55 196 55 250Z" glyph-name="cacute.smcp" horiz-adv-x="515" /><glyph d="M458 750 333 575H227L102 750H198L280 686L362 750Z" glyph-name="caron" horiz-adv-x="540" unicode="&#711;" /><glyph d="M357 750 309 550H243L259 750Z" glyph-name="caronSlovak" horiz-adv-x="300" /><glyph d="M184 750 266 686 348 750H444L319 575H213L88 750ZM184 250Q184 222 187.5 196.5Q191 171 201 151.5Q211 132 229 120.5Q247 109 276 109Q318 109 357.5 117Q397 125 440 141V15Q398 -5 353.5 -10.5Q309 -16 276 -16Q212 -16 168.5 3.5Q125 23 99 58Q73 93 61.5 142Q50 191 50 250Q50 309 61.5 358Q73 407 99 442Q125 477 168.5 496.5Q212 516 276 516Q309 516 353.5 510.5Q398 505 440 485V359Q397 375 357.5 383Q318 391 276 391Q247 391 229 379.5Q211 368 201 348.5Q191 329 187.5 303.5Q184 278 184 250Z" glyph-name="ccaron" horiz-adv-x="490" unicode="&#269;" /><glyph d="M201 750 283 686 365 750H461L336 575H230L105 750ZM55 250Q55 304 68.5 352.5Q82 401 111 437Q140 473 185.5 494.5Q231 516 295 516Q330 516 372.5 511.5Q415 507 460 488V363Q417 380 377 385.5Q337 391 294 391Q263 391 242.5 378.5Q222 366 209.5 346Q197 326 192 300.5Q187 275 187 250Q187 224 192 199Q197 174 209.5 154Q222 134 242.5 121.5Q263 109 294 109Q337 109 377 114.5Q417 120 460 137V12Q415 -7 372.5 -11.5Q330 -16 295 -16Q231 -16 185.5 5.5Q140 27 111 63Q82 99 68.5 147.5Q55 196 55 250Z" glyph-name="ccaron.smcp" horiz-adv-x="515" /><glyph d="M204 -185Q214 -176 223 -165Q232 -154 236.5 -142.5Q241 -131 239.5 -121.5Q238 -112 228 -106Q210 -97 204 -84.5Q198 -72 199 -59Q200 -46 206.5 -33.5Q213 -21 220 -11Q172 -3 139.5 19Q107 41 87 75Q67 109 58.5 153Q50 197 50 250Q50 309 61.5 358Q73 407 99 442Q125 477 168.5 496.5Q212 516 276 516Q309 516 353.5 510.5Q398 505 440 485V359Q397 375 357.5 383Q318 391 276 391Q247 391 229 379.5Q211 368 201 348.5Q191 329 187.5 303.5Q184 278 184 250Q184 222 187.5 196.5Q191 171 201 151.5Q211 132 229 120.5Q247 109 276 109Q318 109 357.5 117Q397 125 440 141V15Q408 0 373.5 -6.5Q339 -13 309 -15Q300 -29 299.5 -43.5Q299 -58 321 -71Q346 -85 353 -101Q360 -117 357 -133Q354 -149 344.5 -162.5Q335 -176 326 -185Z" glyph-name="ccedilla" horiz-adv-x="490" unicode="&#231;" /><glyph d="M222 -185Q232 -176 241 -165Q250 -154 254.5 -142.5Q259 -131 257.5 -121.5Q256 -112 246 -106Q228 -97 222 -84.5Q216 -72 217.5 -59Q219 -46 225 -33.5Q231 -21 238 -11Q189 -2 154.5 22Q120 46 98 81Q76 116 65.5 159Q55 202 55 250Q55 304 68.5 352.5Q82 401 111 437Q140 473 185.5 494.5Q231 516 295 516Q330 516 372.5 511.5Q415 507 460 488V363Q417 380 377 385.5Q337 391 294 391Q263 391 242.5 378.5Q222 366 209.5 346Q197 326 192 300.5Q187 275 187 250Q187 224 192 199Q197 174 209.5 154Q222 134 242.5 121.5Q263 109 294 109Q337 109 377 114.5Q417 120 460 137V12Q425 -2 390.5 -8Q356 -14 326 -15Q318 -29 318 -43.5Q318 -58 339 -71Q364 -85 371 -101Q378 -117 375 -133Q372 -149 362.5 -162.5Q353 -176 344 -185Z" glyph-name="ccedilla.smcp" horiz-adv-x="515" /><glyph d="M348 575 266 639 184 575H88L213 750H319L444 575ZM184 250Q184 222 187.5 196.5Q191 171 201 151.5Q211 132 229 120.5Q247 109 276 109Q318 109 357.5 117Q397 125 440 141V15Q398 -5 353.5 -10.5Q309 -16 276 -16Q212 -16 168.5 3.5Q125 23 99 58Q73 93 61.5 142Q50 191 50 250Q50 309 61.5 358Q73 407 99 442Q125 477 168.5 496.5Q212 516 276 516Q309 516 353.5 510.5Q398 505 440 485V359Q397 375 357.5 383Q318 391 276 391Q247 391 229 379.5Q211 368 201 348.5Q191 329 187.5 303.5Q184 278 184 250Z" glyph-name="ccircumflex" horiz-adv-x="490" unicode="&#265;" /><glyph d="M365 575 283 639 201 575H105L230 750H336L461 575ZM55 250Q55 304 68.5 352.5Q82 401 111 437Q140 473 185.5 494.5Q231 516 295 516Q330 516 372.5 511.5Q415 507 460 488V363Q417 380 377 385.5Q337 391 294 391Q263 391 242.5 378.5Q222 366 209.5 346Q197 326 192 300.5Q187 275 187 250Q187 224 192 199Q197 174 209.5 154Q222 134 242.5 121.5Q263 109 294 109Q337 109 377 114.5Q417 120 460 137V12Q415 -7 372.5 -11.5Q330 -16 295 -16Q231 -16 185.5 5.5Q140 27 111 63Q82 99 68.5 147.5Q55 196 55 250Z" glyph-name="ccircumflex.smcp" horiz-adv-x="515" /><glyph d="M185 658Q185 692 208.5 716Q232 740 266 740Q300 740 324 716Q348 692 348 658Q348 624 324 600.5Q300 577 266 577Q232 577 208.5 600.5Q185 624 185 658ZM184 250Q184 222 187.5 196.5Q191 171 201 151.5Q211 132 229 120.5Q247 109 276 109Q318 109 357.5 117Q397 125 440 141V15Q398 -5 353.5 -10.5Q309 -16 276 -16Q212 -16 168.5 3.5Q125 23 99 58Q73 93 61.5 142Q50 191 50 250Q50 309 61.5 358Q73 407 99 442Q125 477 168.5 496.5Q212 516 276 516Q309 516 353.5 510.5Q398 505 440 485V359Q397 375 357.5 383Q318 391 276 391Q247 391 229 379.5Q211 368 201 348.5Q191 329 187.5 303.5Q184 278 184 250Z" glyph-name="cdotaccent" horiz-adv-x="490" unicode="&#267;" /><glyph d="M202 658Q202 692 225.5 716Q249 740 283 740Q317 740 341 716Q365 692 365 658Q365 624 341 600.5Q317 577 283 577Q249 577 225.5 600.5Q202 624 202 658ZM55 250Q55 304 68.5 352.5Q82 401 111 437Q140 473 185.5 494.5Q231 516 295 516Q330 516 372.5 511.5Q415 507 460 488V363Q417 380 377 385.5Q337 391 294 391Q263 391 242.5 378.5Q222 366 209.5 346Q197 326 192 300.5Q187 275 187 250Q187 224 192 199Q197 174 209.5 154Q222 134 242.5 121.5Q263 109 294 109Q337 109 377 114.5Q417 120 460 137V12Q415 -7 372.5 -11.5Q330 -16 295 -16Q231 -16 185.5 5.5Q140 27 111 63Q82 99 68.5 147.5Q55 196 55 250Z" glyph-name="cdotaccent.smcp" horiz-adv-x="515" /><glyph d="M208 -185Q218 -176 227 -165Q236 -154 240.5 -142.5Q245 -131 243.5 -121.5Q242 -112 232 -106Q212 -95 207 -80.5Q202 -66 205.5 -51Q209 -36 217.5 -22.5Q226 -9 233 0H324Q317 -9 311.5 -18Q306 -27 304.5 -36Q303 -45 307 -54Q311 -63 325 -71Q350 -85 357 -101Q364 -117 361 -133Q358 -149 348.5 -162.5Q339 -176 330 -185Z" glyph-name="cedilla" horiz-adv-x="540" unicode="&#184;" /><glyph d="M55 375Q55 509 125.5 577.5Q196 646 325 651L359 750H500L458 641Q508 633 546 618V493Q525 501 498.5 507.5Q472 514 444.5 518Q417 522 390 524Q363 526 340 526Q307 526 279 518Q251 510 230 492Q209 474 197 445.5Q185 417 185 375Q185 333 197 304.5Q209 276 230 258Q251 240 279 232Q307 224 340 224Q363 224 390 226Q417 228 444.5 232Q472 236 498.5 242.5Q525 249 546 257V132Q523 123 495 116.5Q467 110 439 106Q411 102 385 100.5Q359 99 341 99H337L303 0H162L206 121Q133 149 94 212Q55 275 55 375Z" glyph-name="cent" horiz-adv-x="600" unicode="&#162;" /><glyph d="M189 250Q189 222 192.5 197Q196 172 206 153Q216 134 234 123Q252 112 281 112Q323 112 362.5 121.5Q402 131 445 147V21Q403 1 359 -6Q315 -13 282 -13L248 -110H107L154 16Q99 48 77 108.5Q55 169 55 250Q55 306 66 352.5Q77 399 101 433Q125 467 164 487.5Q203 508 260 512L294 610H435L392 499Q416 493 445 480V353Q402 369 362.5 378.5Q323 388 281 388Q252 388 234 377Q216 366 206 347Q196 328 192.5 303Q189 278 189 250Z" glyph-name="cent.OP" horiz-adv-x="495" /><glyph d="M362 575 280 639 198 575H102L227 750H333L458 575Z" glyph-name="circumflex" horiz-adv-x="540" unicode="&#710;" /><glyph d="M29 375Q29 409 52.5 433Q76 457 110 457Q144 457 168 433Q192 409 192 375Q192 341 168 317.5Q144 294 110 294Q76 294 52.5 317.5Q29 341 29 375ZM29 65Q29 99 52.5 123Q76 147 110 147Q144 147 168 123Q192 99 192 65Q192 31 168 7.5Q144 -16 110 -16Q76 -16 52.5 7.5Q29 31 29 65Z" glyph-name="colon" horiz-adv-x="220" unicode=":" /><glyph d="M36 -114 61 0Q29 24 29 65Q29 99 52.5 123Q76 147 110 147Q144 147 168 123Q192 99 192 65Q192 54 189 44Q186 34 182 26L117 -114Z" glyph-name="comma" horiz-adv-x="220" unicode="," /><glyph d="M208 -250 221 -192Q189 -168 189 -127Q189 -93 212.5 -69Q236 -45 270 -45Q304 -45 328 -69Q352 -93 352 -127Q352 -138 349 -148Q346 -158 342 -166L303 -250Z" glyph-name="commaaccent" horiz-adv-x="540" unicode="&#63171;" /><glyph d="M345 197Q365 197 389 201Q413 205 433 210V116Q411 111 385 107.5Q359 104 340 104Q273 104 238 136Q203 168 203 250Q203 332 238 364Q273 396 340 396Q359 396 385 392.5Q411 389 433 384V290Q413 295 389 299Q365 303 345 303Q321 303 309 291.5Q297 280 297 250Q297 220 309 208.5Q321 197 345 197ZM340 77Q378 77 409.5 83Q441 89 464 107.5Q487 126 500 160Q513 194 513 250Q513 306 500 340Q487 374 464 392.5Q441 411 409.5 417Q378 423 340 423Q302 423 270.5 417Q239 411 216 392.5Q193 374 180 340Q167 306 167 250Q167 194 180 160Q193 126 216 107.5Q239 89 270.5 83Q302 77 340 77ZM340 -16Q286 -16 236.5 -5Q187 6 150 35Q113 64 91 116Q69 168 69 250Q69 332 91 384Q113 436 150 465Q187 494 236.5 505Q286 516 340 516Q394 516 443.5 505Q493 494 530 465Q567 436 589 384Q611 332 611 250Q611 168 589 116Q567 64 530 35Q493 6 443.5 -5Q394 -16 340 -16Z" glyph-name="copyright" horiz-adv-x="680" unicode="&#169;" /><glyph d="M473 524 429 395H223V355H416L372 226H238Q247 191 261 168.5Q275 146 293 132.5Q311 119 333 114Q355 109 380 109Q423 109 467.5 119Q512 129 555 143V17Q510 -2 462.5 -9Q415 -16 380 -16Q323 -16 276.5 -5Q230 6 194.5 33.5Q159 61 135.5 108Q112 155 100 226H32V355H90V395H32V524H100Q112 595 135.5 642Q159 689 194.5 716.5Q230 744 276.5 755Q323 766 380 766Q415 766 462.5 759Q510 752 555 733V607Q512 621 467.5 631Q423 641 380 641Q355 641 333 635.5Q311 630 293 617Q275 604 261 581Q247 558 238 524Z" glyph-name="currency" horiz-adv-x="600" unicode="&#164;" /><glyph d="M372 372Q355 379 330.5 385Q306 391 279 391Q249 391 230.5 380.5Q212 370 201.5 351Q191 332 187.5 306Q184 280 184 250Q184 220 187.5 194Q191 168 201.5 149Q212 130 230.5 119.5Q249 109 279 109Q306 109 330.5 115Q355 121 372 128ZM503 0H410L403 18Q376 2 341 -7Q306 -16 277 -16Q211 -16 167 1.5Q123 19 97 53Q71 87 60.5 136.5Q50 186 50 250Q50 314 60.5 364Q71 414 97 447.5Q123 481 167 498.5Q211 516 277 516Q298 516 325 510.5Q352 505 372 497V750H503Z" glyph-name="d" horiz-adv-x="568" unicode="d" /><glyph d="M252 125Q285 125 307.5 134Q330 143 343 159Q356 175 361.5 198Q367 221 367 250Q367 278 361.5 301.5Q356 325 343 341Q330 357 307.5 366Q285 375 252 375H198V125ZM70 0V500H251Q316 500 362.5 482.5Q409 465 438.5 432.5Q468 400 482 353.5Q496 307 496 250Q496 193 482 146.5Q468 100 438.5 67.5Q409 35 362.5 17.5Q316 0 251 0Z" glyph-name="d.smcp" horiz-adv-x="551" /><glyph d="M260 624 386 642V492L260 510L288 289H118L146 510L20 492V642L145 624L128 750H278Z" glyph-name="dagger" horiz-adv-x="406" unicode="&#8224;" /><glyph d="M278 615 414 634V473L278 492L283 460L279 430L414 449V287L278 307L308 70H126L156 307L20 287V449L155 430L151 460L155 492L20 473V634L155 615L136 750H298Z" glyph-name="daggerdbl" horiz-adv-x="434" unicode="&#8225;" /><glyph d="M657 750 609 550H543L559 750ZM372 372Q355 379 330.5 385Q306 391 279 391Q249 391 230.5 380.5Q212 370 201.5 351Q191 332 187.5 306Q184 280 184 250Q184 220 187.5 194Q191 168 201.5 149Q212 130 230.5 119.5Q249 109 279 109Q306 109 330.5 115Q355 121 372 128ZM503 0H410L403 18Q376 2 341 -7Q306 -16 277 -16Q211 -16 167 1.5Q123 19 97 53Q71 87 60.5 136.5Q50 186 50 250Q50 314 60.5 364Q71 414 97 447.5Q123 481 167 498.5Q211 516 277 516Q298 516 325 510.5Q352 505 372 497V750H503Z" glyph-name="dcaron" horiz-adv-x="568" unicode="&#271;" /><glyph d="M434 750 309 575H203L78 750H174L256 686L338 750ZM252 125Q285 125 307.5 134Q330 143 343 159Q356 175 361.5 198Q367 221 367 250Q367 278 361.5 301.5Q356 325 343 341Q330 357 307.5 366Q285 375 252 375H198V125ZM70 0V500H251Q316 500 362.5 482.5Q409 465 438.5 432.5Q468 400 482 353.5Q496 307 496 250Q496 193 482 146.5Q468 100 438.5 67.5Q409 35 362.5 17.5Q316 0 251 0Z" glyph-name="dcaron.smcp" horiz-adv-x="551" /><glyph d="M372 372Q355 379 330.5 385Q306 391 279 391Q249 391 230.5 380.5Q212 370 201.5 351Q191 332 187.5 306Q184 280 184 250Q184 220 187.5 194Q191 168 201.5 149Q212 130 230.5 119.5Q249 109 279 109Q306 109 330.5 115Q355 121 372 128ZM503 670H583V561H503V0H410L403 18Q376 2 341 -7Q306 -16 277 -16Q211 -16 167 1.5Q123 19 97 53Q71 87 60.5 136.5Q50 186 50 250Q50 314 60.5 364Q71 414 97 447.5Q123 481 167 498.5Q211 516 277 516Q298 516 325 510.5Q352 505 372 497V561H269V670H372V750H503Z" glyph-name="dcroat" horiz-adv-x="568" unicode="&#273;" /><glyph d="M282 125Q315 125 337.5 134Q360 143 373 159Q386 175 391.5 198Q397 221 397 250Q397 278 391.5 301.5Q386 325 373 341Q360 357 337.5 366Q315 375 282 375H228V312H348V196H228V125ZM281 500Q346 500 392.5 482.5Q439 465 468.5 432.5Q498 400 512 353.5Q526 307 526 250Q526 193 512 146.5Q498 100 468.5 67.5Q439 35 392.5 17.5Q346 0 281 0H100V196H10V312H100V500Z" glyph-name="dcroat.smcp" horiz-adv-x="581" /><glyph d="M183 668Q163 668 152 658.5Q141 649 141 625Q141 601 152 591.5Q163 582 183 582Q203 582 214 591.5Q225 601 225 625Q225 649 214 658.5Q203 668 183 668ZM183 484Q157 484 131 490.5Q105 497 84.5 513.5Q64 530 51.5 557Q39 584 39 625Q39 666 51.5 693.5Q64 721 84.5 737Q105 753 131 759.5Q157 766 183 766Q209 766 235 759.5Q261 753 281.5 737Q302 721 314.5 693.5Q327 666 327 625Q327 584 314.5 557Q302 530 281.5 513.5Q261 497 235 490.5Q209 484 183 484Z" glyph-name="degree" horiz-adv-x="366" unicode="&#176;" /><glyph d="M300 658Q300 692 323.5 716Q347 740 381 740Q415 740 439 716Q463 692 463 658Q463 624 439 600.5Q415 577 381 577Q347 577 323.5 600.5Q300 624 300 658ZM77 658Q77 692 100.5 716Q124 740 158 740Q192 740 216 716Q240 692 240 658Q240 624 216 600.5Q192 577 158 577Q124 577 100.5 600.5Q77 624 77 658Z" glyph-name="dieresis" horiz-adv-x="540" unicode="&#168;" /><glyph d="M179 517Q179 551 202.5 574.5Q226 598 260 598Q294 598 318 574.5Q342 551 342 517Q342 483 318 459Q294 435 260 435Q226 435 202.5 459Q179 483 179 517ZM179 165Q179 199 202.5 223Q226 247 260 247Q294 247 318 223Q342 199 342 165Q342 131 318 107.5Q294 84 260 84Q226 84 202.5 107.5Q179 131 179 165ZM55 405H465V277H55Z" glyph-name="divide" horiz-adv-x="520" unicode="&#247;" /><glyph d="M193 475Q193 466 202.5 460.5Q212 455 227.5 451.5Q243 448 263.5 446.5Q284 445 307 443Q362 438 404.5 429.5Q447 421 476 403.5Q505 386 520 357Q535 328 535 282Q535 204 476 154Q417 104 302 99L268 0H127L166 107Q138 110 113 115Q88 120 74 127V254Q92 246 118.5 240.5Q145 235 174 231.5Q203 228 231.5 226Q260 224 282 224Q342 224 373.5 238Q405 252 405 281Q405 290 396 297Q387 304 372 308.5Q357 313 337 316Q317 319 295 321Q241 326 198.5 333.5Q156 341 126 356.5Q96 372 80.5 398.5Q65 425 65 468Q65 551 122.5 598.5Q180 646 289 650L324 750H465L424 643Q448 640 471 634.5Q494 629 513 621V498Q492 506 465.5 511.5Q439 517 411 520Q383 523 356.5 524.5Q330 526 308 526Q253 526 223 512.5Q193 499 193 475Z" glyph-name="dollar" horiz-adv-x="600" unicode="$" /><glyph d="M184 347Q184 336 196.5 329Q209 322 252 318Q308 313 343.5 300.5Q379 288 399.5 268Q420 248 427.5 220.5Q435 193 435 158Q435 129 425.5 100.5Q416 72 394 48.5Q372 25 337.5 8.5Q303 -8 253 -12Q245 -35 236.5 -61.5Q228 -88 220 -110H79L120 -1Q89 7 60 19V148Q95 135 139.5 123.5Q184 112 226 112Q272 112 288.5 126Q305 140 305 157Q305 172 292 182Q279 192 238 196Q183 201 147.5 214.5Q112 228 91.5 247.5Q71 267 63 292.5Q55 318 55 347Q55 375 64 403.5Q73 432 93.5 455.5Q114 479 148 494.5Q182 510 232 513L265 610H407L364 499Q375 496 388 491Q401 486 413 481V354Q371 368 331.5 378Q292 388 252 388Q210 388 197 376Q184 364 184 347Z" glyph-name="dollar.OP" horiz-adv-x="490" /><glyph d="M199 658Q199 692 222.5 716Q246 740 280 740Q314 740 338 716Q362 692 362 658Q362 624 338 600.5Q314 577 280 577Q246 577 222.5 600.5Q199 624 199 658Z" glyph-name="dotaccent" horiz-adv-x="540" unicode="&#729;" /><glyph d="M189 -127Q189 -93 212.5 -69Q236 -45 270 -45Q304 -45 328 -69Q352 -93 352 -127Q352 -161 328 -184.5Q304 -208 270 -208Q236 -208 212.5 -184.5Q189 -161 189 -127Z" glyph-name="dotbelow" horiz-adv-x="540" /><glyph d="M203 -16Q138 -16 105 13Q72 42 72 115V500H203V137Q203 123 211 116Q219 109 239 109V-16Z" glyph-name="dotlessi" horiz-adv-x="300" unicode="&#305;" /><glyph d="M154 575 29 750H180L260 575ZM321 575 196 750H347L427 575Z" glyph-name="doublegrave" horiz-adv-x="540" /><glyph d="M276 391Q232 391 213 367Q194 343 188 307H344Q342 341 329 366Q316 391 276 391ZM189 187Q191 155 211 132Q231 109 276 109Q320 109 364.5 118Q409 127 455 147V17Q435 7 411 0.5Q387 -6 363 -9.5Q339 -13 316.5 -14.5Q294 -16 276 -16Q212 -16 168.5 3.5Q125 23 99 58Q73 93 61.5 142Q50 191 50 250Q50 309 61.5 358Q73 407 99 442Q125 477 168.5 496.5Q212 516 276 516Q343 516 383.5 494Q424 472 445.5 435.5Q467 399 473.5 350.5Q480 302 480 250V187Z" glyph-name="e" horiz-adv-x="530" unicode="e" /><glyph d="M427 193H199V125H457V0H70V500H457V375H199V318H427Z" glyph-name="e.smcp" horiz-adv-x="512" /><glyph d="M276 391Q232 391 213 367Q194 343 188 307H344Q342 341 329 366Q316 391 276 391ZM232 575 312 750H463L318 575ZM189 187Q191 155 211 132Q231 109 276 109Q320 109 364.5 118Q409 127 455 147V17Q435 7 411 0.5Q387 -6 363 -9.5Q339 -13 316.5 -14.5Q294 -16 276 -16Q212 -16 168.5 3.5Q125 23 99 58Q73 93 61.5 142Q50 191 50 250Q50 309 61.5 358Q73 407 99 442Q125 477 168.5 496.5Q212 516 276 516Q343 516 383.5 494Q424 472 445.5 435.5Q467 399 473.5 350.5Q480 302 480 250V187Z" glyph-name="eacute" horiz-adv-x="530" unicode="&#233;" /><glyph d="M220 575 300 750H451L306 575ZM427 193H199V125H457V0H70V500H457V375H199V318H427Z" glyph-name="eacute.smcp" horiz-adv-x="512" /><glyph d="M266 559Q176 559 138 608Q100 657 98 750H200Q201 723 206.5 707Q212 691 221 682.5Q230 674 241.5 671Q253 668 266 668Q279 668 290.5 671Q302 674 311 682.5Q320 691 325.5 707Q331 723 332 750H434Q432 657 394 608Q356 559 266 559ZM276 391Q232 391 213 367Q194 343 188 307H344Q342 341 329 366Q316 391 276 391ZM189 187Q191 155 211 132Q231 109 276 109Q320 109 364.5 118Q409 127 455 147V17Q435 7 411 0.5Q387 -6 363 -9.5Q339 -13 316.5 -14.5Q294 -16 276 -16Q212 -16 168.5 3.5Q125 23 99 58Q73 93 61.5 142Q50 191 50 250Q50 309 61.5 358Q73 407 99 442Q125 477 168.5 496.5Q212 516 276 516Q343 516 383.5 494Q424 472 445.5 435.5Q467 399 473.5 350.5Q480 302 480 250V187Z" glyph-name="ebreve" horiz-adv-x="530" unicode="&#277;" /><glyph d="M264 559Q174 559 136 608Q98 657 96 750H198Q199 723 204.5 707Q210 691 219 682.5Q228 674 239.5 671Q251 668 264 668Q277 668 288.5 671Q300 674 309 682.5Q318 691 323.5 707Q329 723 330 750H432Q430 657 392 608Q354 559 264 559ZM427 193H199V125H457V0H70V500H457V375H199V318H427Z" glyph-name="ebreve.smcp" horiz-adv-x="512" /><glyph d="M276 391Q232 391 213 367Q194 343 188 307H344Q342 341 329 366Q316 391 276 391ZM184 750 266 686 348 750H444L319 575H213L88 750ZM189 187Q191 155 211 132Q231 109 276 109Q320 109 364.5 118Q409 127 455 147V17Q435 7 411 0.5Q387 -6 363 -9.5Q339 -13 316.5 -14.5Q294 -16 276 -16Q212 -16 168.5 3.5Q125 23 99 58Q73 93 61.5 142Q50 191 50 250Q50 309 61.5 358Q73 407 99 442Q125 477 168.5 496.5Q212 516 276 516Q343 516 383.5 494Q424 472 445.5 435.5Q467 399 473.5 350.5Q480 302 480 250V187Z" glyph-name="ecaron" horiz-adv-x="530" unicode="&#283;" /><glyph d="M442 750 317 575H211L86 750H182L264 686L346 750ZM427 193H199V125H457V0H70V500H457V375H199V318H427Z" glyph-name="ecaron.smcp" horiz-adv-x="512" /><glyph d="M276 391Q232 391 213 367Q194 343 188 307H344Q342 341 329 366Q316 391 276 391ZM358 575 276 639 194 575H98L223 750H329L454 575ZM189 187Q191 155 211 132Q231 109 276 109Q320 109 364.5 118Q409 127 455 147V17Q435 7 411 0.5Q387 -6 363 -9.5Q339 -13 316.5 -14.5Q294 -16 276 -16Q212 -16 168.5 3.5Q125 23 99 58Q73 93 61.5 142Q50 191 50 250Q50 309 61.5 358Q73 407 99 442Q125 477 168.5 496.5Q212 516 276 516Q343 516 383.5 494Q424 472 445.5 435.5Q467 399 473.5 350.5Q480 302 480 250V187Z" glyph-name="ecircumflex" horiz-adv-x="530" unicode="&#234;" /><glyph d="M346 575 264 639 182 575H86L211 750H317L442 575ZM427 193H199V125H457V0H70V500H457V375H199V318H427Z" glyph-name="ecircumflex.smcp" horiz-adv-x="512" /><glyph d="M276 391Q232 391 213 367Q194 343 188 307H344Q342 341 329 366Q316 391 276 391ZM83 658Q83 692 106.5 716Q130 740 164 740Q198 740 222 716Q246 692 246 658Q246 624 222 600.5Q198 577 164 577Q130 577 106.5 600.5Q83 624 83 658ZM306 658Q306 692 329.5 716Q353 740 387 740Q421 740 445 716Q469 692 469 658Q469 624 445 600.5Q421 577 387 577Q353 577 329.5 600.5Q306 624 306 658ZM189 187Q191 155 211 132Q231 109 276 109Q320 109 364.5 118Q409 127 455 147V17Q435 7 411 0.5Q387 -6 363 -9.5Q339 -13 316.5 -14.5Q294 -16 276 -16Q212 -16 168.5 3.5Q125 23 99 58Q73 93 61.5 142Q50 191 50 250Q50 309 61.5 358Q73 407 99 442Q125 477 168.5 496.5Q212 516 276 516Q343 516 383.5 494Q424 472 445.5 435.5Q467 399 473.5 350.5Q480 302 480 250V187Z" glyph-name="edieresis" horiz-adv-x="530" unicode="&#235;" /><glyph d="M294 658Q294 692 317.5 716Q341 740 375 740Q409 740 433 716Q457 692 457 658Q457 624 433 600.5Q409 577 375 577Q341 577 317.5 600.5Q294 624 294 658ZM71 658Q71 692 94.5 716Q118 740 152 740Q186 740 210 716Q234 692 234 658Q234 624 210 600.5Q186 577 152 577Q118 577 94.5 600.5Q71 624 71 658ZM427 193H199V125H457V0H70V500H457V375H199V318H427Z" glyph-name="edieresis.smcp" horiz-adv-x="512" /><glyph d="M185 658Q185 692 208.5 716Q232 740 266 740Q300 740 324 716Q348 692 348 658Q348 624 324 600.5Q300 577 266 577Q232 577 208.5 600.5Q185 624 185 658ZM276 391Q232 391 213 367Q194 343 188 307H344Q342 341 329 366Q316 391 276 391ZM189 187Q191 155 211 132Q231 109 276 109Q320 109 364.5 118Q409 127 455 147V17Q435 7 411 0.5Q387 -6 363 -9.5Q339 -13 316.5 -14.5Q294 -16 276 -16Q212 -16 168.5 3.5Q125 23 99 58Q73 93 61.5 142Q50 191 50 250Q50 309 61.5 358Q73 407 99 442Q125 477 168.5 496.5Q212 516 276 516Q343 516 383.5 494Q424 472 445.5 435.5Q467 399 473.5 350.5Q480 302 480 250V187Z" glyph-name="edotaccent" horiz-adv-x="530" unicode="&#279;" /><glyph d="M182 658Q182 692 205.5 716Q229 740 263 740Q297 740 321 716Q345 692 345 658Q345 624 321 600.5Q297 577 263 577Q229 577 205.5 600.5Q182 624 182 658ZM427 193H199V125H457V0H70V500H457V375H199V318H427Z" glyph-name="edotaccent.smcp" horiz-adv-x="512" /><glyph d="M276 391Q232 391 213 367Q194 343 188 307H344Q342 341 329 366Q316 391 276 391ZM232 575 87 750H238L318 575ZM189 187Q191 155 211 132Q231 109 276 109Q320 109 364.5 118Q409 127 455 147V17Q435 7 411 0.5Q387 -6 363 -9.5Q339 -13 316.5 -14.5Q294 -16 276 -16Q212 -16 168.5 3.5Q125 23 99 58Q73 93 61.5 142Q50 191 50 250Q50 309 61.5 358Q73 407 99 442Q125 477 168.5 496.5Q212 516 276 516Q343 516 383.5 494Q424 472 445.5 435.5Q467 399 473.5 350.5Q480 302 480 250V187Z" glyph-name="egrave" horiz-adv-x="530" unicode="&#232;" /><glyph d="M220 575 75 750H226L306 575ZM427 193H199V125H457V0H70V500H457V375H199V318H427Z" glyph-name="egrave.smcp" horiz-adv-x="512" /><glyph d="M300 449Q327 449 345.5 458.5Q364 468 375.5 482.5Q387 497 392.5 513.5Q398 530 398 545Q398 560 394 577Q390 594 379.5 608.5Q369 623 349.5 632Q330 641 300 641Q270 641 250.5 632Q231 623 220.5 608.5Q210 594 206 577Q202 560 202 545Q202 530 207.5 513.5Q213 497 224.5 482.5Q236 468 254.5 458.5Q273 449 300 449ZM300 325Q241 325 211 294.5Q181 264 181 216Q181 199 186.5 180Q192 161 205.5 145.5Q219 130 242 119.5Q265 109 300 109Q335 109 358 119.5Q381 130 394.5 145.5Q408 161 413.5 180Q419 199 419 216Q419 264 389 294.5Q359 325 300 325ZM300 -16Q229 -16 180.5 3.5Q132 23 102 55Q72 87 58.5 129Q45 171 45 216Q45 239 50 265Q55 291 65 316Q75 341 90 362Q105 383 126 397Q113 410 102 428Q91 446 83.5 466Q76 486 71.5 506.5Q67 527 67 545Q67 587 79 626.5Q91 666 118.5 697Q146 728 190.5 747Q235 766 300 766Q365 766 409.5 747Q454 728 481.5 697Q509 666 521 626.5Q533 587 533 545Q533 527 528.5 506.5Q524 486 516.5 466Q509 446 498 428Q487 410 474 397Q495 383 510 362Q525 341 535 316Q545 291 550 265Q555 239 555 216Q555 171 541.5 129Q528 87 498 55Q468 23 419.5 3.5Q371 -16 300 -16Z" glyph-name="eight" horiz-adv-x="600" unicode="8" /><glyph d="M300 449Q327 449 345.5 458.5Q364 468 375.5 482.5Q387 497 392.5 513.5Q398 530 398 545Q398 560 394 577Q390 594 379.5 608.5Q369 623 349.5 632Q330 641 300 641Q270 641 250.5 632Q231 623 220.5 608.5Q210 594 206 577Q202 560 202 545Q202 530 207.5 513.5Q213 497 224.5 482.5Q236 468 254.5 458.5Q273 449 300 449ZM300 325Q241 325 211 294.5Q181 264 181 216Q181 199 186.5 180Q192 161 205.5 145.5Q219 130 242 119.5Q265 109 300 109Q335 109 358 119.5Q381 130 394.5 145.5Q408 161 413.5 180Q419 199 419 216Q419 264 389 294.5Q359 325 300 325ZM300 -16Q229 -16 180.5 3.5Q132 23 102 55Q72 87 58.5 129Q45 171 45 216Q45 239 50 265Q55 291 65 316Q75 341 90 362Q105 383 126 397Q113 410 102 428Q91 446 83.5 466Q76 486 71.5 506.5Q67 527 67 545Q67 587 79 626.5Q91 666 118.5 697Q146 728 190.5 747Q235 766 300 766Q365 766 409.5 747Q454 728 481.5 697Q509 666 521 626.5Q533 587 533 545Q533 527 528.5 506.5Q524 486 516.5 466Q509 446 498 428Q487 410 474 397Q495 383 510 362Q525 341 535 316Q545 291 550 265Q555 239 555 216Q555 171 541.5 129Q528 87 498 55Q468 23 419.5 3.5Q371 -16 300 -16Z" glyph-name="eight.LP" horiz-adv-x="600" /><glyph d="M300 449Q327 449 345.5 458.5Q364 468 375.5 482.5Q387 497 392.5 513.5Q398 530 398 545Q398 560 394 577Q390 594 379.5 608.5Q369 623 349.5 632Q330 641 300 641Q270 641 250.5 632Q231 623 220.5 608.5Q210 594 206 577Q202 560 202 545Q202 530 207.5 513.5Q213 497 224.5 482.5Q236 468 254.5 458.5Q273 449 300 449ZM300 325Q241 325 211 294.5Q181 264 181 216Q181 199 186.5 180Q192 161 205.5 145.5Q219 130 242 119.5Q265 109 300 109Q335 109 358 119.5Q381 130 394.5 145.5Q408 161 413.5 180Q419 199 419 216Q419 264 389 294.5Q359 325 300 325ZM300 -16Q229 -16 180.5 3.5Q132 23 102 55Q72 87 58.5 129Q45 171 45 216Q45 239 50 265Q55 291 65 316Q75 341 90 362Q105 383 126 397Q113 410 102 428Q91 446 83.5 466Q76 486 71.5 506.5Q67 527 67 545Q67 587 79 626.5Q91 666 118.5 697Q146 728 190.5 747Q235 766 300 766Q365 766 409.5 747Q454 728 481.5 697Q509 666 521 626.5Q533 587 533 545Q533 527 528.5 506.5Q524 486 516.5 466Q509 446 498 428Q487 410 474 397Q495 383 510 362Q525 341 535 316Q545 291 550 265Q555 239 555 216Q555 171 541.5 129Q528 87 498 55Q468 23 419.5 3.5Q371 -16 300 -16Z" glyph-name="eight.OP" horiz-adv-x="600" /><glyph d="M744 68Q744 102 767.5 126Q791 150 825 150Q859 150 883 126Q907 102 907 68Q907 34 883 10.5Q859 -13 825 -13Q791 -13 767.5 10.5Q744 34 744 68ZM414 68Q414 102 437.5 126Q461 150 495 150Q529 150 553 126Q577 102 577 68Q577 34 553 10.5Q529 -13 495 -13Q461 -13 437.5 10.5Q414 34 414 68ZM84 68Q84 102 107.5 126Q131 150 165 150Q199 150 223 126Q247 102 247 68Q247 34 223 10.5Q199 -13 165 -13Q131 -13 107.5 10.5Q84 34 84 68Z" glyph-name="ellipsis" horiz-adv-x="990" unicode="&#8230;" /><glyph d="M403 575H129V703H403ZM276 391Q232 391 213 367Q194 343 188 307H344Q342 341 329 366Q316 391 276 391ZM189 187Q191 155 211 132Q231 109 276 109Q320 109 364.5 118Q409 127 455 147V17Q435 7 411 0.5Q387 -6 363 -9.5Q339 -13 316.5 -14.5Q294 -16 276 -16Q212 -16 168.5 3.5Q125 23 99 58Q73 93 61.5 142Q50 191 50 250Q50 309 61.5 358Q73 407 99 442Q125 477 168.5 496.5Q212 516 276 516Q343 516 383.5 494Q424 472 445.5 435.5Q467 399 473.5 350.5Q480 302 480 250V187Z" glyph-name="emacron" horiz-adv-x="530" unicode="&#275;" /><glyph d="M401 575H127V703H401ZM427 193H199V125H457V0H70V500H457V375H199V318H427Z" glyph-name="emacron.smcp" horiz-adv-x="512" /><glyph d="M959 277H41V405H959Z" glyph-name="emdash" horiz-adv-x="1000" unicode="&#8212;" /><glyph glyph-name="emspace" horiz-adv-x="1000" unicode="&#8195;" /><glyph d="M459 277H41V405H459Z" glyph-name="endash" horiz-adv-x="500" unicode="&#8211;" /><glyph d="M260 -144Q279 -144 298.5 -139.5Q318 -135 334 -126.5Q350 -118 359.5 -106Q369 -94 369 -78V330Q369 357 353 374Q337 391 302 391Q286 391 270 388.5Q254 386 239.5 382.5Q225 379 214.5 375Q204 371 198 369V0H65V500H158L166 484Q178 489 194.5 495Q211 501 229.5 505.5Q248 510 266.5 513Q285 516 302 516Q358 516 396.5 503.5Q435 491 458.5 467.5Q482 444 492 409.5Q502 375 502 330V-81Q502 -125 483.5 -159.5Q465 -194 432 -217.5Q399 -241 355 -253.5Q311 -266 260 -266Z" glyph-name="eng" horiz-adv-x="562" unicode="&#331;" /><glyph d="M264 -144Q283 -144 303.5 -139.5Q324 -135 340 -126.5Q356 -118 366.5 -105.5Q377 -93 377 -77V49L198 261L200 0H70V500H157L378 239L376 500H506V-81Q506 -125 487.5 -159.5Q469 -194 436 -217.5Q403 -241 359 -253.5Q315 -266 264 -266Z" glyph-name="eng.smcp" horiz-adv-x="576" /><glyph glyph-name="enspace" horiz-adv-x="500" unicode="&#8194;" /><glyph d="M276 391Q232 391 213 367Q194 343 188 307H344Q342 341 329 366Q316 391 276 391ZM192 -113Q192 -58 226 -13Q176 -6 142.5 16Q109 38 88.5 72.5Q68 107 59 152Q50 197 50 250Q50 309 61.5 358Q73 407 99 442Q125 477 168.5 496.5Q212 516 276 516Q343 516 383.5 494Q424 472 445.5 435.5Q467 399 473.5 350.5Q480 302 480 250V187H189Q191 155 211 132Q231 109 276 109Q320 109 364.5 118Q409 127 455 147V17Q439 9 422 4Q405 -1 387 -5Q349 -15 327 -34.5Q305 -54 305 -84Q305 -106 322 -113.5Q339 -121 356 -121Q370 -121 381.5 -119Q393 -117 402 -115Q413 -112 421 -109V-213Q413 -218 390 -225Q367 -232 326 -232Q302 -232 278 -225Q254 -218 235 -203.5Q216 -189 204 -166.5Q192 -144 192 -113Z" glyph-name="eogonek" horiz-adv-x="530" unicode="&#281;" /><glyph d="M427 193H199V125H457V0H453Q436 0 417 -6.5Q398 -13 382.5 -24Q367 -35 356.5 -50.5Q346 -66 346 -84Q346 -106 363 -113.5Q380 -121 397 -121Q411 -121 422.5 -119Q434 -117 443 -115Q454 -112 462 -109V-213Q454 -218 431 -225Q408 -232 367 -232Q343 -232 319 -225Q295 -218 276 -203.5Q257 -189 245 -166.5Q233 -144 233 -113Q233 -76 245 -48.5Q257 -21 277 0H70V500H457V375H199V318H427Z" glyph-name="eogonek.smcp" horiz-adv-x="512" /><glyph d="M465 200H55V329H465ZM465 353H55V482H465Z" glyph-name="equal" horiz-adv-x="520" unicode="=" /><glyph d="M363 250Q363 279 360 305Q357 331 347.5 350Q338 369 319.5 380Q301 391 270 391Q238 391 220 380Q202 369 192 350Q182 331 179.5 305Q177 279 177 250Q177 221 179.5 195Q182 169 192 150Q202 131 220 120Q238 109 270 109Q301 109 319.5 120Q338 131 347.5 150Q357 169 360 195Q363 221 363 250ZM383 647Q435 577 465 477.5Q495 378 495 250Q495 191 486 142.5Q477 94 452 58.5Q427 23 383 3.5Q339 -16 270 -16Q201 -16 157.5 3.5Q114 23 89 58.5Q64 94 54.5 142.5Q45 191 45 250Q45 308 54.5 357Q64 406 89 441.5Q114 477 157.5 496.5Q201 516 270 516Q298 516 322 513Q304 553 274 591L123 514V596L222 647Q187 679 146.5 705Q106 731 62 750H269Q300 731 332 703L424 750V668Z" glyph-name="eth" horiz-adv-x="560" unicode="&#240;" /><glyph d="M282 125Q315 125 337.5 134Q360 143 373 159Q386 175 391.5 198Q397 221 397 250Q397 278 391.5 301.5Q386 325 373 341Q360 357 337.5 366Q315 375 282 375H228V312H348V196H228V125ZM281 500Q346 500 392.5 482.5Q439 465 468.5 432.5Q498 400 512 353.5Q526 307 526 250Q526 193 512 146.5Q498 100 468.5 67.5Q439 35 392.5 17.5Q346 0 281 0H100V196H10V312H100V500Z" glyph-name="eth.smcp" horiz-adv-x="581" /><glyph d="M41 68Q41 102 64.5 126Q88 150 122 150Q156 150 180 126Q204 102 204 68Q204 34 180 10.5Q156 -13 122 -13Q88 -13 64.5 10.5Q41 34 41 68ZM77 210 41 750H203L167 210Z" glyph-name="exclam" horiz-adv-x="245" unicode="!" /><glyph d="M38 432Q38 466 61.5 489.5Q85 513 119 513Q153 513 177 489.5Q201 466 201 432Q201 398 177 374Q153 350 119 350Q85 350 61.5 374Q38 398 38 432ZM164 290 200 -250H38L74 290Z" glyph-name="exclamdown" horiz-adv-x="240" unicode="&#161;" /><glyph d="M404 627Q376 635 351 638Q326 641 308 641Q282 641 265 631.5Q248 622 248 600V500H385V381H248V0H117V381H30V472L117 496V600Q117 680 162 723Q207 766 308 766Q322 766 349.5 763Q377 760 404 752Z" glyph-name="f" horiz-adv-x="425" unicode="f" /><glyph d="M419 193H199V0H70V500H449V375H199V318H419Z" glyph-name="f.smcp" horiz-adv-x="494" /><glyph d="M628 -16Q563 -16 530 13Q497 42 497 115V500H628V137Q628 123 636 116Q644 109 664 109V-16ZM404 627Q376 635 351 638Q326 641 308 641Q282 641 265 631.5Q248 622 248 600V500H385V381H248V0H117V381H30V472L117 496V600Q117 680 162 723Q207 766 308 766Q322 766 349.5 763Q377 760 404 752Z" glyph-name="f_dotlessi" horiz-adv-x="725" /><glyph d="M483 658Q483 692 506.5 716Q530 740 564 740Q598 740 622 716Q646 692 646 658Q646 624 622 600.5Q598 577 564 577Q530 577 506.5 600.5Q483 624 483 658ZM628 -16Q563 -16 530 13Q497 42 497 115V500H628V137Q628 123 636 116Q644 109 664 109V-16ZM404 627Q376 635 351 638Q326 641 308 641Q282 641 265 631.5Q248 622 248 600V500H385V381H248V0H117V381H30V472L117 496V600Q117 680 162 723Q207 766 308 766Q322 766 349.5 763Q377 760 404 752Z" glyph-name="fi" horiz-adv-x="725" unicode="&#64257;" /><glyph d="M559 277H41V405H559Z" glyph-name="figuredash" horiz-adv-x="600" unicode="&#8210;" /><glyph glyph-name="figurespace" horiz-adv-x="600" unicode="&#8199;" /><glyph d="M246 -16Q177 -16 130 -6Q83 4 54 18V150Q69 142 91.5 135Q114 128 139.5 123Q165 118 192.5 115.5Q220 113 247 113Q276 113 304.5 116.5Q333 120 355.5 133Q378 146 392 170.5Q406 195 406 236Q406 273 392 292Q378 311 355.5 319.5Q333 328 305.5 328.5Q278 329 251 329H74V750H527V624H204V457Q217 458 239 458Q261 458 271 458Q322 458 370 452.5Q418 447 456 424.5Q494 402 517 357.5Q540 313 540 236Q540 151 513 101Q486 51 444 25Q402 -1 349.5 -8.5Q297 -16 246 -16Z" glyph-name="five" horiz-adv-x="600" unicode="5" /><glyph d="M246 -16Q177 -16 130 -6Q83 4 54 18V150Q69 142 91.5 135Q114 128 139.5 123Q165 118 192.5 115.5Q220 113 247 113Q276 113 304.5 116.5Q333 120 355.5 133Q378 146 392 170.5Q406 195 406 236Q406 273 392 292Q378 311 355.5 319.5Q333 328 305.5 328.5Q278 329 251 329H74V750H527V624H204V457Q217 458 239 458Q261 458 271 458Q322 458 370 452.5Q418 447 456 424.5Q494 402 517 357.5Q540 313 540 236Q540 151 513 101Q486 51 444 25Q402 -1 349.5 -8.5Q297 -16 246 -16Z" glyph-name="five.LP" horiz-adv-x="600" /><glyph d="M226 -266Q172 -266 130.5 -257.5Q89 -249 54 -232V-96Q82 -111 105 -120Q128 -129 148.5 -133.5Q169 -138 188 -139Q207 -140 227 -140Q249 -140 273.5 -135Q298 -130 318.5 -116.5Q339 -103 352.5 -78.5Q366 -54 366 -14Q366 22 354 41Q342 60 323 68.5Q304 77 280 78Q256 79 231 79H74V500H487V374H204V207Q217 208 229 208Q241 208 251 208Q297 208 341.5 201Q386 194 421.5 171Q457 148 478.5 104Q500 60 500 -14Q500 -96 473 -145.5Q446 -195 405.5 -222Q365 -249 316.5 -257.5Q268 -266 226 -266Z" glyph-name="five.OP" horiz-adv-x="530" /><glyph d="M628 -16Q563 -16 530 13Q497 42 497 115V750H628V137Q628 123 636 116Q644 109 664 109V-16ZM404 627Q376 635 351 638Q326 641 308 641Q282 641 265 631.5Q248 622 248 600V500H385V381H248V0H117V381H30V472L117 496V600Q117 680 162 723Q207 766 308 766Q322 766 349.5 763Q377 760 404 752Z" glyph-name="fl" horiz-adv-x="725" unicode="&#64258;" /><glyph d="M364 766Q382 766 406.5 764Q431 762 457 758.5Q483 755 508 749Q533 743 551 735V609Q505 625 455.5 632.5Q406 640 364 640Q326 640 299 620Q272 600 272 554V454H478V335H272V0H142V335H55V426L142 450V557Q142 670 197 718Q252 766 364 766Z" glyph-name="florin" horiz-adv-x="600" unicode="&#402;" /><glyph d="M304 516Q322 516 343 514.5Q364 513 386.5 510Q409 507 431 501.5Q453 496 471 488V362Q425 378 385.5 384Q346 390 304 390Q278 390 260 376.5Q242 363 242 337V306H448V187H242V-250H112V187H25V278L112 302V337Q112 419 158 467.5Q204 516 304 516Z" glyph-name="florin.OP" horiz-adv-x="530" /><glyph d="M327 293V498L197 293ZM33 248 363 766H457V293H567V167H457V0H327V167H33Z" glyph-name="four" horiz-adv-x="600" unicode="4" /><glyph d="M327 293V498L197 293ZM33 248 363 766H457V293H567V167H457V0H327V167H33Z" glyph-name="four.LP" horiz-adv-x="600" /><glyph d="M310 126V249L225 126ZM46 81 346 516H440V126H550V0H440V-250H310V0H46Z" glyph-name="four.OP" horiz-adv-x="600" /><glyph glyph-name="fourperemspace" horiz-adv-x="250" unicode="&#8197;" /><glyph d="M-50 0 482 750H637L105 0Z" glyph-name="fraction" horiz-adv-x="587" unicode="&#8260;" /><glyph d="M200 -35Q151 -63 151 -97Q151 -124 177 -132.5Q203 -141 252 -141Q277 -141 301 -138.5Q325 -136 343.5 -129Q362 -122 373 -111Q384 -100 384 -83Q384 -68 374 -61Q364 -54 343 -52ZM174 317Q174 300 177 286Q180 272 189 262.5Q198 253 214 247.5Q230 242 256 242Q282 242 298 247.5Q314 253 323 262.5Q332 272 335.5 286Q339 300 339 317Q339 334 335.5 348Q332 362 323 371.5Q314 381 298 386.5Q282 392 256 392Q230 392 214 386.5Q198 381 189 371.5Q180 362 177 348Q174 334 174 317ZM467 317Q467 272 456.5 235Q446 198 421 172Q396 146 356 132Q316 118 256 118H231Q221 113 218 108Q215 103 215 96Q215 83 234 80L373 64Q446 56 483 23Q520 -10 520 -83Q520 -132 498 -166.5Q476 -201 438.5 -223Q401 -245 352.5 -255.5Q304 -266 252 -266Q198 -266 154.5 -257Q111 -248 80 -228.5Q49 -209 32.5 -177.5Q16 -146 16 -101Q16 -59 39.5 -28Q63 3 96 22V23Q84 44 84 77Q84 100 93 118.5Q102 137 116 151Q78 177 62 219Q46 261 46 317Q46 362 56.5 399Q67 436 92 462Q117 488 157 502Q197 516 256 516Q288 516 314 512Q340 508 361 500H513V409L458 394Q467 359 467 317Z" glyph-name="g" horiz-adv-x="550" unicode="g" /><glyph d="M294 109Q311 109 327 110.5Q343 112 357 114V175H263V300H486V20Q467 10 443 3.5Q419 -3 393 -7.5Q367 -12 341.5 -14Q316 -16 294 -16Q230 -16 184.5 5.5Q139 27 110.5 63Q82 99 68.5 147.5Q55 196 55 250Q55 304 68.5 352.5Q82 401 110.5 437Q139 473 184.5 494.5Q230 516 294 516Q336 516 386.5 509Q437 502 477 482V356Q436 374 389.5 382.5Q343 391 294 391Q263 391 242.5 378.5Q222 366 209.5 346Q197 326 192 300.5Q187 275 187 250Q187 224 192 199Q197 174 209.5 154Q222 134 242.5 121.5Q263 109 294 109Z" glyph-name="g.smcp" horiz-adv-x="536" /><glyph d="M275 559Q185 559 147 608Q109 657 107 750H209Q210 723 215.5 707Q221 691 230 682.5Q239 674 250.5 671Q262 668 275 668Q288 668 299.5 671Q311 674 320 682.5Q329 691 334.5 707Q340 723 341 750H443Q441 657 403 608Q365 559 275 559ZM200 -35Q151 -63 151 -97Q151 -124 177 -132.5Q203 -141 252 -141Q277 -141 301 -138.5Q325 -136 343.5 -129Q362 -122 373 -111Q384 -100 384 -83Q384 -68 374 -61Q364 -54 343 -52ZM174 317Q174 300 177 286Q180 272 189 262.5Q198 253 214 247.5Q230 242 256 242Q282 242 298 247.5Q314 253 323 262.5Q332 272 335.5 286Q339 300 339 317Q339 334 335.5 348Q332 362 323 371.5Q314 381 298 386.5Q282 392 256 392Q230 392 214 386.5Q198 381 189 371.5Q180 362 177 348Q174 334 174 317ZM467 317Q467 272 456.5 235Q446 198 421 172Q396 146 356 132Q316 118 256 118H231Q221 113 218 108Q215 103 215 96Q215 83 234 80L373 64Q446 56 483 23Q520 -10 520 -83Q520 -132 498 -166.5Q476 -201 438.5 -223Q401 -245 352.5 -255.5Q304 -266 252 -266Q198 -266 154.5 -257Q111 -248 80 -228.5Q49 -209 32.5 -177.5Q16 -146 16 -101Q16 -59 39.5 -28Q63 3 96 22V23Q84 44 84 77Q84 100 93 118.5Q102 137 116 151Q78 177 62 219Q46 261 46 317Q46 362 56.5 399Q67 436 92 462Q117 488 157 502Q197 516 256 516Q288 516 314 512Q340 508 361 500H513V409L458 394Q467 359 467 317Z" glyph-name="gbreve" horiz-adv-x="550" unicode="&#287;" /><glyph d="M288 559Q198 559 160 608Q122 657 120 750H222Q223 723 228.5 707Q234 691 243 682.5Q252 674 263.5 671Q275 668 288 668Q301 668 312.5 671Q324 674 333 682.5Q342 691 347.5 707Q353 723 354 750H456Q454 657 416 608Q378 559 288 559ZM294 109Q311 109 327 110.5Q343 112 357 114V175H263V300H486V20Q467 10 443 3.5Q419 -3 393 -7.5Q367 -12 341.5 -14Q316 -16 294 -16Q230 -16 184.5 5.5Q139 27 110.5 63Q82 99 68.5 147.5Q55 196 55 250Q55 304 68.5 352.5Q82 401 110.5 437Q139 473 184.5 494.5Q230 516 294 516Q336 516 386.5 509Q437 502 477 482V356Q436 374 389.5 382.5Q343 391 294 391Q263 391 242.5 378.5Q222 366 209.5 346Q197 326 192 300.5Q187 275 187 250Q187 224 192 199Q197 174 209.5 154Q222 134 242.5 121.5Q263 109 294 109Z" glyph-name="gbreve.smcp" horiz-adv-x="536" /><glyph d="M337 575 275 639 213 575H97L222 750H328L453 575ZM200 -35Q151 -63 151 -97Q151 -124 177 -132.5Q203 -141 252 -141Q277 -141 301 -138.5Q325 -136 343.5 -129Q362 -122 373 -111Q384 -100 384 -83Q384 -68 374 -61Q364 -54 343 -52ZM174 317Q174 300 177 286Q180 272 189 262.5Q198 253 214 247.5Q230 242 256 242Q282 242 298 247.5Q314 253 323 262.5Q332 272 335.5 286Q339 300 339 317Q339 334 335.5 348Q332 362 323 371.5Q314 381 298 386.5Q282 392 256 392Q230 392 214 386.5Q198 381 189 371.5Q180 362 177 348Q174 334 174 317ZM467 317Q467 272 456.5 235Q446 198 421 172Q396 146 356 132Q316 118 256 118H231Q221 113 218 108Q215 103 215 96Q215 83 234 80L373 64Q446 56 483 23Q520 -10 520 -83Q520 -132 498 -166.5Q476 -201 438.5 -223Q401 -245 352.5 -255.5Q304 -266 252 -266Q198 -266 154.5 -257Q111 -248 80 -228.5Q49 -209 32.5 -177.5Q16 -146 16 -101Q16 -59 39.5 -28Q63 3 96 22V23Q84 44 84 77Q84 100 93 118.5Q102 137 116 151Q78 177 62 219Q46 261 46 317Q46 362 56.5 399Q67 436 92 462Q117 488 157 502Q197 516 256 516Q288 516 314 512Q340 508 361 500H513V409L458 394Q467 359 467 317Z" glyph-name="gcircumflex" horiz-adv-x="550" unicode="&#285;" /><glyph d="M370 575 288 639 206 575H110L235 750H341L466 575ZM294 109Q311 109 327 110.5Q343 112 357 114V175H263V300H486V20Q467 10 443 3.5Q419 -3 393 -7.5Q367 -12 341.5 -14Q316 -16 294 -16Q230 -16 184.5 5.5Q139 27 110.5 63Q82 99 68.5 147.5Q55 196 55 250Q55 304 68.5 352.5Q82 401 110.5 437Q139 473 184.5 494.5Q230 516 294 516Q336 516 386.5 509Q437 502 477 482V356Q436 374 389.5 382.5Q343 391 294 391Q263 391 242.5 378.5Q222 366 209.5 346Q197 326 192 300.5Q187 275 187 250Q187 224 192 199Q197 174 209.5 154Q222 134 242.5 121.5Q263 109 294 109Z" glyph-name="gcircumflex.smcp" horiz-adv-x="536" /><glyph d="M318 750 305 692Q337 668 337 627Q337 593 313.5 569Q290 545 256 545Q222 545 198 569Q174 593 174 627Q174 638 177 648Q180 658 184 666L223 750ZM200 -35Q151 -63 151 -97Q151 -124 177 -132.5Q203 -141 252 -141Q277 -141 301 -138.5Q325 -136 343.5 -129Q362 -122 373 -111Q384 -100 384 -83Q384 -68 374 -61Q364 -54 343 -52ZM174 317Q174 300 177 286Q180 272 189 262.5Q198 253 214 247.5Q230 242 256 242Q282 242 298 247.5Q314 253 323 262.5Q332 272 335.5 286Q339 300 339 317Q339 334 335.5 348Q332 362 323 371.5Q314 381 298 386.5Q282 392 256 392Q230 392 214 386.5Q198 381 189 371.5Q180 362 177 348Q174 334 174 317ZM467 317Q467 272 456.5 235Q446 198 421 172Q396 146 356 132Q316 118 256 118H231Q221 113 218 108Q215 103 215 96Q215 83 234 80L373 64Q446 56 483 23Q520 -10 520 -83Q520 -132 498 -166.5Q476 -201 438.5 -223Q401 -245 352.5 -255.5Q304 -266 252 -266Q198 -266 154.5 -257Q111 -248 80 -228.5Q49 -209 32.5 -177.5Q16 -146 16 -101Q16 -59 39.5 -28Q63 3 96 22V23Q84 44 84 77Q84 100 93 118.5Q102 137 116 151Q78 177 62 219Q46 261 46 317Q46 362 56.5 399Q67 436 92 462Q117 488 157 502Q197 516 256 516Q288 516 314 512Q340 508 361 500H513V409L458 394Q467 359 467 317Z" glyph-name="gcommaaccent" horiz-adv-x="550" unicode="&#291;" /><glyph d="M226 -250 239 -192Q207 -168 207 -127Q207 -93 230.5 -69Q254 -45 288 -45Q322 -45 346 -69Q370 -93 370 -127Q370 -138 367 -148Q364 -158 360 -166L321 -250ZM294 109Q311 109 327 110.5Q343 112 357 114V175H263V300H486V20Q467 10 443 3.5Q419 -3 393 -7.5Q367 -12 341.5 -14Q316 -16 294 -16Q230 -16 184.5 5.5Q139 27 110.5 63Q82 99 68.5 147.5Q55 196 55 250Q55 304 68.5 352.5Q82 401 110.5 437Q139 473 184.5 494.5Q230 516 294 516Q336 516 386.5 509Q437 502 477 482V356Q436 374 389.5 382.5Q343 391 294 391Q263 391 242.5 378.5Q222 366 209.5 346Q197 326 192 300.5Q187 275 187 250Q187 224 192 199Q197 174 209.5 154Q222 134 242.5 121.5Q263 109 294 109Z" glyph-name="gcommaaccent.smcp" horiz-adv-x="536" /><glyph d="M194 658Q194 692 217.5 716Q241 740 275 740Q309 740 333 716Q357 692 357 658Q357 624 333 600.5Q309 577 275 577Q241 577 217.5 600.5Q194 624 194 658ZM200 -35Q151 -63 151 -97Q151 -124 177 -132.5Q203 -141 252 -141Q277 -141 301 -138.5Q325 -136 343.5 -129Q362 -122 373 -111Q384 -100 384 -83Q384 -68 374 -61Q364 -54 343 -52ZM174 317Q174 300 177 286Q180 272 189 262.5Q198 253 214 247.5Q230 242 256 242Q282 242 298 247.5Q314 253 323 262.5Q332 272 335.5 286Q339 300 339 317Q339 334 335.5 348Q332 362 323 371.5Q314 381 298 386.5Q282 392 256 392Q230 392 214 386.5Q198 381 189 371.5Q180 362 177 348Q174 334 174 317ZM467 317Q467 272 456.5 235Q446 198 421 172Q396 146 356 132Q316 118 256 118H231Q221 113 218 108Q215 103 215 96Q215 83 234 80L373 64Q446 56 483 23Q520 -10 520 -83Q520 -132 498 -166.5Q476 -201 438.5 -223Q401 -245 352.5 -255.5Q304 -266 252 -266Q198 -266 154.5 -257Q111 -248 80 -228.5Q49 -209 32.5 -177.5Q16 -146 16 -101Q16 -59 39.5 -28Q63 3 96 22V23Q84 44 84 77Q84 100 93 118.5Q102 137 116 151Q78 177 62 219Q46 261 46 317Q46 362 56.5 399Q67 436 92 462Q117 488 157 502Q197 516 256 516Q288 516 314 512Q340 508 361 500H513V409L458 394Q467 359 467 317Z" glyph-name="gdotaccent" horiz-adv-x="550" unicode="&#289;" /><glyph d="M207 658Q207 692 230.5 716Q254 740 288 740Q322 740 346 716Q370 692 370 658Q370 624 346 600.5Q322 577 288 577Q254 577 230.5 600.5Q207 624 207 658ZM294 109Q311 109 327 110.5Q343 112 357 114V175H263V300H486V20Q467 10 443 3.5Q419 -3 393 -7.5Q367 -12 341.5 -14Q316 -16 294 -16Q230 -16 184.5 5.5Q139 27 110.5 63Q82 99 68.5 147.5Q55 196 55 250Q55 304 68.5 352.5Q82 401 110.5 437Q139 473 184.5 494.5Q230 516 294 516Q336 516 386.5 509Q437 502 477 482V356Q436 374 389.5 382.5Q343 391 294 391Q263 391 242.5 378.5Q222 366 209.5 346Q197 326 192 300.5Q187 275 187 250Q187 224 192 199Q197 174 209.5 154Q222 134 242.5 121.5Q263 109 294 109Z" glyph-name="gdotaccent.smcp" horiz-adv-x="536" /><glyph d="M321 637Q291 637 269 630.5Q247 624 233 614.5Q219 605 212 593Q205 581 205 570V0H75V569Q75 607 87.5 642Q100 677 128.5 704Q157 731 204.5 747Q252 763 321 763Q390 763 437.5 747Q485 731 514 704Q543 677 555.5 642Q568 607 568 569Q568 534 560.5 507Q553 480 537 459Q521 438 495 423Q469 408 430 398Q404 391 393 381.5Q382 372 382 358Q382 347 395 340Q408 333 448 329Q504 322 540 308.5Q576 295 596.5 274.5Q617 254 625 226.5Q633 199 633 164Q633 132 622.5 101Q612 70 587.5 45.5Q563 21 522.5 5.5Q482 -10 423 -10Q406 -10 384 -7Q362 -4 339.5 0.5Q317 5 295.5 11Q274 17 259 24V151Q294 138 338 127Q382 116 424 116Q470 116 486 131Q502 146 502 163Q502 179 490 191Q478 203 437 207Q383 213 347.5 226.5Q312 240 291 259.5Q270 279 261.5 304Q253 329 253 358Q253 419 284.5 456.5Q316 494 399 516Q422 523 429.5 539Q437 555 437 570Q437 581 430.5 593Q424 605 409.5 614.5Q395 624 373 630.5Q351 637 321 637Z" glyph-name="germandbls" horiz-adv-x="675" unicode="&#223;" /><glyph d="M688 350Q688 333 707.5 327.5Q727 322 772 318Q827 313 864.5 302Q902 291 925.5 272Q949 253 959.5 225Q970 197 970 157Q970 122 958.5 90.5Q947 59 920.5 35.5Q894 12 851.5 -2Q809 -16 746 -16Q728 -16 704 -14.5Q680 -13 655 -9.5Q630 -6 607.5 -0.5Q585 5 569 12V139Q587 131 608.5 125.5Q630 120 653.5 116.5Q677 113 701 111Q725 109 747 109Q799 109 819.5 121.5Q840 134 840 156Q840 173 822.5 182Q805 191 760 196Q706 201 668 210.5Q630 220 606 237Q582 254 571 280Q560 306 560 343Q560 380 571.5 412Q583 444 608.5 467Q634 490 674.5 503Q715 516 774 516Q810 516 857 511Q904 506 948 486V363Q905 380 861 385.5Q817 391 773 391Q725 391 706.5 379.5Q688 368 688 350ZM178 350Q178 333 197.5 327.5Q217 322 262 318Q317 313 354.5 302Q392 291 415.5 272Q439 253 449.5 225Q460 197 460 157Q460 122 448.5 90.5Q437 59 410.5 35.5Q384 12 341.5 -2Q299 -16 236 -16Q218 -16 194 -14.5Q170 -13 145 -9.5Q120 -6 97.5 -0.5Q75 5 59 12V139Q77 131 98.5 125.5Q120 120 143.5 116.5Q167 113 191 111Q215 109 237 109Q289 109 309.5 121.5Q330 134 330 156Q330 173 312.5 182Q295 191 250 196Q196 201 158 210.5Q120 220 96 237Q72 254 61 280Q50 306 50 343Q50 380 61.5 412Q73 444 98.5 467Q124 490 164.5 503Q205 516 264 516Q300 516 347 511Q394 506 438 486V363Q395 380 351 385.5Q307 391 263 391Q215 391 196.5 379.5Q178 368 178 350Z" glyph-name="germandbls.smcp" horiz-adv-x="1020" /><glyph d="M58 750H209L289 575H203Z" glyph-name="grave" horiz-adv-x="540" unicode="`" /><glyph d="M41 241 173 341 154 356Q128 376 97 399.5Q66 423 41 441V582L329 389V293L41 100Z" glyph-name="greater" horiz-adv-x="365" unicode="&gt;" /><glyph d="M60 439H558L536 451L303 601V766L810 406V344L303 -16V149L536 299L558 311H60Z" glyph-name="greaterequal" horiz-adv-x="860" unicode="&#8805;" /><glyph d="M245 296 435 446V329L356 250L435 171V53L245 204ZM55 296 245 446V329L166 250L245 171V53L55 204Z" glyph-name="guillemotleft" horiz-adv-x="495" unicode="&#171;" /><glyph d="M250 204 60 53V171L138 250L60 329V446L250 296ZM440 204 250 53V171L328 250L250 329V446L440 296Z" glyph-name="guillemotright" horiz-adv-x="495" unicode="&#187;" /><glyph d="M55 296 245 446V329L166 250L245 171V53L55 204Z" glyph-name="guilsinglleft" horiz-adv-x="305" unicode="&#8249;" /><glyph d="M250 204 60 53V171L138 250L60 329V446L250 296Z" glyph-name="guilsinglright" horiz-adv-x="305" unicode="&#8250;" /><glyph d="M368 330Q368 357 352 374Q336 391 301 391Q285 391 269 388.5Q253 386 238.5 382.5Q224 379 213.5 375Q203 371 197 369V0H65V750H197V495Q221 504 249 510Q277 516 301 516Q357 516 395.5 503.5Q434 491 457.5 467.5Q481 444 491 409.5Q501 375 501 330V0H368Z" glyph-name="h" horiz-adv-x="561" unicode="h" /><glyph d="M376 0V193H200V0H70V500H200V318H376V500H506V0Z" glyph-name="h.smcp" horiz-adv-x="576" /><glyph glyph-name="hairspace" horiz-adv-x="50" unicode="&#8202;" /><glyph d="M368 330Q368 357 352 374Q336 391 301 391Q285 391 269 388.5Q253 386 238.5 382.5Q224 379 213.5 375Q203 371 197 369V0H65V561H-14V670H65V750H197V670H300V561H197V495Q221 504 249 510Q277 516 301 516Q357 516 395.5 503.5Q434 491 457.5 467.5Q481 444 491 409.5Q501 375 501 330V0H368Z" glyph-name="hbar" horiz-adv-x="561" unicode="&#295;" /><glyph d="M376 258V322H200V258ZM376 0V163H200V0H70V500H200V417H376V500H506V0Z" glyph-name="hbar.smcp" horiz-adv-x="576" /><glyph d="M213 825 131 889 49 825H-47L78 1000H184L309 825ZM368 330Q368 357 352 374Q336 391 301 391Q285 391 269 388.5Q253 386 238.5 382.5Q224 379 213.5 375Q203 371 197 369V0H65V750H197V495Q221 504 249 510Q277 516 301 516Q357 516 395.5 503.5Q434 491 457.5 467.5Q481 444 491 409.5Q501 375 501 330V0H368Z" glyph-name="hcircumflex" horiz-adv-x="561" unicode="&#293;" /><glyph d="M370 575 288 639 206 575H110L235 750H341L466 575ZM376 0V193H200V0H70V500H200V318H376V500H506V0Z" glyph-name="hcircumflex.smcp" horiz-adv-x="576" /><glyph d="M310 575 390 750H541L396 575ZM143 575 223 750H374L229 575Z" glyph-name="hungarumlaut" horiz-adv-x="540" unicode="&#733;" /><glyph d="M329 277H41V405H329Z" glyph-name="hyphen" horiz-adv-x="370" unicode="-" /><glyph d="M58 658Q58 692 81.5 716Q105 740 139 740Q173 740 197 716Q221 692 221 658Q221 624 197 600.5Q173 577 139 577Q105 577 81.5 600.5Q58 624 58 658ZM203 -16Q138 -16 105 13Q72 42 72 115V500H203V137Q203 123 211 116Q219 109 239 109V-16Z" glyph-name="i" horiz-adv-x="300" unicode="i" /><glyph d="M80 0V500H208V0Z" glyph-name="i.smcp" horiz-adv-x="288" /><glyph d="M95 575 175 750H326L181 575ZM203 -16Q138 -16 105 13Q72 42 72 115V500H203V137Q203 123 211 116Q219 109 239 109V-16Z" glyph-name="iacute" horiz-adv-x="300" unicode="&#237;" /><glyph d="M102 575 182 750H333L188 575ZM80 0V500H208V0Z" glyph-name="iacute.smcp" horiz-adv-x="288" /><glyph d="M150 559Q60 559 22 608Q-16 657 -18 750H84Q85 723 90.5 707Q96 691 105 682.5Q114 674 125.5 671Q137 668 150 668Q163 668 174.5 671Q186 674 195 682.5Q204 691 209.5 707Q215 723 216 750H318Q316 657 278 608Q240 559 150 559ZM203 -16Q138 -16 105 13Q72 42 72 115V500H203V137Q203 123 211 116Q219 109 239 109V-16Z" glyph-name="ibreve" horiz-adv-x="300" unicode="&#301;" /><glyph d="M144 559Q54 559 16 608Q-22 657 -24 750H78Q79 723 84.5 707Q90 691 99 682.5Q108 674 119.5 671Q131 668 144 668Q157 668 168.5 671Q180 674 189 682.5Q198 691 203.5 707Q209 723 210 750H312Q310 657 272 608Q234 559 144 559ZM80 0V500H208V0Z" glyph-name="ibreve.smcp" horiz-adv-x="288" /><glyph d="M221 575 139 639 57 575H-39L86 750H192L317 575ZM203 -16Q138 -16 105 13Q72 42 72 115V500H203V137Q203 123 211 116Q219 109 239 109V-16Z" glyph-name="icircumflex" horiz-adv-x="300" unicode="&#238;" /><glyph d="M226 575 144 639 62 575H-34L91 750H197L322 575ZM80 0V500H208V0Z" glyph-name="icircumflex.smcp" horiz-adv-x="288" /><glyph d="M-54 658Q-54 692 -30.5 716Q-7 740 27 740Q61 740 85 716Q109 692 109 658Q109 624 85 600.5Q61 577 27 577Q-7 577 -30.5 600.5Q-54 624 -54 658ZM169 658Q169 692 192.5 716Q216 740 250 740Q284 740 308 716Q332 692 332 658Q332 624 308 600.5Q284 577 250 577Q216 577 192.5 600.5Q169 624 169 658ZM203 -16Q138 -16 105 13Q72 42 72 115V500H203V137Q203 123 211 116Q219 109 239 109V-16Z" glyph-name="idieresis" horiz-adv-x="300" unicode="&#239;" /><glyph d="M174 658Q174 692 197.5 716Q221 740 255 740Q289 740 313 716Q337 692 337 658Q337 624 313 600.5Q289 577 255 577Q221 577 197.5 600.5Q174 624 174 658ZM-49 658Q-49 692 -25.5 716Q-2 740 32 740Q66 740 90 716Q114 692 114 658Q114 624 90 600.5Q66 577 32 577Q-2 577 -25.5 600.5Q-49 624 -49 658ZM80 0V500H208V0Z" glyph-name="idieresis.smcp" horiz-adv-x="288" /><glyph d="M58 658Q58 692 81.5 716Q105 740 139 740Q173 740 197 716Q221 692 221 658Q221 624 197 600.5Q173 577 139 577Q105 577 81.5 600.5Q58 624 58 658ZM203 -16Q138 -16 105 13Q72 42 72 115V500H203V137Q203 123 211 116Q219 109 239 109V-16Z" glyph-name="idotaccent" horiz-adv-x="300" /><glyph d="M63 658Q63 692 86.5 716Q110 740 144 740Q178 740 202 716Q226 692 226 658Q226 624 202 600.5Q178 577 144 577Q110 577 86.5 600.5Q63 624 63 658ZM80 0V500H208V0Z" glyph-name="idotaccent.smcp" horiz-adv-x="288" /><glyph d="M95 575 -50 750H101L181 575ZM203 -16Q138 -16 105 13Q72 42 72 115V500H203V137Q203 123 211 116Q219 109 239 109V-16Z" glyph-name="igrave" horiz-adv-x="300" unicode="&#236;" /><glyph d="M102 575 -43 750H108L188 575ZM80 0V500H208V0Z" glyph-name="igrave.smcp" horiz-adv-x="288" /><glyph d="M358 658Q358 692 381.5 716Q405 740 439 740Q473 740 497 716Q521 692 521 658Q521 624 497 600.5Q473 577 439 577Q405 577 381.5 600.5Q358 624 358 658ZM262 -144Q281 -144 301 -139.5Q321 -135 336.5 -126.5Q352 -118 362 -106Q372 -94 372 -78V500H504V-81Q504 -125 485.5 -159.5Q467 -194 434 -217.5Q401 -241 357 -253.5Q313 -266 262 -266ZM58 658Q58 692 81.5 716Q105 740 139 740Q173 740 197 716Q221 692 221 658Q221 624 197 600.5Q173 577 139 577Q105 577 81.5 600.5Q58 624 58 658ZM203 -16Q138 -16 105 13Q72 42 72 115V500H203V137Q203 123 211 116Q219 109 239 109V-16Z" glyph-name="ij" horiz-adv-x="579" unicode="&#307;" /><glyph d="M318 120Q339 113 366.5 110Q394 107 414 107Q440 107 456 115Q472 123 472 145V500H601V150Q601 70 557.5 27Q514 -16 414 -16Q400 -16 373.5 -14Q347 -12 318 -4ZM80 0V500H208V0Z" glyph-name="ij.smcp" horiz-adv-x="681" /><glyph d="M287 575H13V703H287ZM203 -16Q138 -16 105 13Q72 42 72 115V500H203V137Q203 123 211 116Q219 109 239 109V-16Z" glyph-name="imacron" horiz-adv-x="300" unicode="&#299;" /><glyph d="M281 575H7V703H281ZM80 0V500H208V0Z" glyph-name="imacron.smcp" horiz-adv-x="288" /><glyph d="M93 674Q93 663 138 658Q168 655 186.5 649Q205 643 215.5 634Q226 625 229.5 611.5Q233 598 233 579Q233 544 207.5 519Q182 494 120 494Q111 494 99.5 495Q88 496 75.5 498.5Q63 501 51 504Q39 507 31 511V574Q51 567 76 562Q101 557 121 557Q147 557 156.5 562.5Q166 568 166 578Q166 586 157 590.5Q148 595 127 597Q70 602 48.5 618.5Q27 635 27 673Q27 710 51.5 733Q76 756 135 756Q152 756 175 753Q198 750 221 739V676Q198 683 176 688Q154 693 134 693Q110 693 101.5 688Q93 683 93 674ZM400 520 336 648 338 500H270V750H349L420 614L491 750H570V500H502L504 648L440 520Z" glyph-name="infinity" horiz-adv-x="615" unicode="&#8734;" /><glyph d="M217 617V133H693V617ZM80 750H830V0H80Z" glyph-name="integral" horiz-adv-x="910" unicode="&#8747;" /><glyph d="M270 766Q360 766 398 717Q436 668 438 575H336Q335 602 329.5 618Q324 634 315 642.5Q306 651 294.5 654Q283 657 270 657Q257 657 245.5 654Q234 651 225 642.5Q216 634 210.5 618Q205 602 204 575H102Q104 668 142 717Q180 766 270 766Z" glyph-name="invertedbreve" horiz-adv-x="540" /><glyph d="M58 658Q58 692 81.5 716Q105 740 139 740Q173 740 197 716Q221 692 221 658Q221 624 197 600.5Q173 577 139 577Q105 577 81.5 600.5Q58 624 58 658ZM37 -113Q37 -75 54.5 -42.5Q72 -10 103 15Q72 46 72 115V500H203V137Q203 123 211 116Q219 109 239 109V-16Q203 -21 176.5 -38Q150 -55 150 -84Q150 -106 167 -113.5Q184 -121 201 -121Q215 -121 226.5 -119Q238 -117 247 -115Q258 -112 266 -109V-213Q258 -218 235 -225Q212 -232 171 -232Q147 -232 123 -225Q99 -218 80 -203.5Q61 -189 49 -166.5Q37 -144 37 -113Z" glyph-name="iogonek" horiz-adv-x="300" unicode="&#303;" /><glyph d="M206 0Q196 0 182.5 -6.5Q169 -13 156.5 -24Q144 -35 135.5 -50.5Q127 -66 127 -84Q127 -106 144 -113.5Q161 -121 178 -121Q192 -121 203.5 -119Q215 -117 224 -115Q235 -112 243 -109V-213Q235 -218 212 -225Q189 -232 148 -232Q124 -232 100 -225Q76 -218 57 -203.5Q38 -189 26 -166.5Q14 -144 14 -113Q14 -71 32 -34.5Q50 2 80 27V500H208V0Z" glyph-name="iogonek.smcp" horiz-adv-x="288" /><glyph d="M359 734Q353 645 321 605.5Q289 566 219 568Q188 569 169 580.5Q150 592 136.5 605Q123 618 111.5 628.5Q100 639 85 639Q62 639 54 621.5Q46 604 44 579L-58 592Q-52 681 -20 720.5Q12 760 82 758Q113 757 132 745.5Q151 734 164.5 721Q178 708 189.5 697.5Q201 687 216 687Q239 687 247 704.5Q255 722 257 747ZM203 -16Q138 -16 105 13Q72 42 72 115V500H203V137Q203 123 211 116Q219 109 239 109V-16Z" glyph-name="itilde" horiz-adv-x="300" unicode="&#297;" /><glyph d="M353 734Q347 645 315 605.5Q283 566 213 568Q182 569 163 580.5Q144 592 130.5 605Q117 618 105.5 628.5Q94 639 79 639Q56 639 48 621.5Q40 604 38 579L-64 592Q-58 681 -26 720.5Q6 760 76 758Q107 757 126 745.5Q145 734 158.5 721Q172 708 183.5 697.5Q195 687 210 687Q233 687 241 704.5Q249 722 251 747ZM80 0V500H208V0Z" glyph-name="itilde.smcp" horiz-adv-x="288" /><glyph d="M58 658Q58 692 81.5 716Q105 740 139 740Q173 740 197 716Q221 692 221 658Q221 624 197 600.5Q173 577 139 577Q105 577 81.5 600.5Q58 624 58 658ZM-38 -144Q-19 -144 1 -139.5Q21 -135 36.5 -126.5Q52 -118 62 -106Q72 -94 72 -78V500H204V-81Q204 -125 185.5 -159.5Q167 -194 134 -217.5Q101 -241 57 -253.5Q13 -266 -38 -266Z" glyph-name="j" horiz-adv-x="279" unicode="j" /><glyph d="M30 120Q51 113 78.5 110Q106 107 126 107Q152 107 168 115Q184 123 184 145V500H313V150Q313 70 269.5 27Q226 -16 126 -16Q112 -16 85.5 -14Q59 -12 30 -4Z" glyph-name="j.smcp" horiz-adv-x="393" /><glyph d="M221 575 139 639 57 575H-39L86 750H192L317 575ZM-38 -144Q-19 -144 1 -139.5Q21 -135 36.5 -126.5Q52 -118 62 -106Q72 -94 72 -78V500H204V-81Q204 -125 185.5 -159.5Q167 -194 134 -217.5Q101 -241 57 -253.5Q13 -266 -38 -266Z" glyph-name="jcircumflex" horiz-adv-x="279" unicode="&#309;" /><glyph d="M330 575 248 639 166 575H70L195 750H301L426 575ZM30 120Q51 113 78.5 110Q106 107 126 107Q152 107 168 115Q184 123 184 145V500H313V150Q313 70 269.5 27Q226 -16 126 -16Q112 -16 85.5 -14Q59 -12 30 -4Z" glyph-name="jcircumflex.smcp" horiz-adv-x="393" /><glyph d="M524 500 299 287 535 0H357L209 199L196 186V0H65V750H196V356L332 500Z" glyph-name="k" horiz-adv-x="545" unicode="k" /><glyph d="M529 502 304 287 540 0H362L214 199L201 186V0H70V500H201V356L337 502Z" glyph-name="k.smcp" horiz-adv-x="555" /><glyph d="M211 -250 224 -192Q192 -168 192 -127Q192 -93 215.5 -69Q239 -45 273 -45Q307 -45 331 -69Q355 -93 355 -127Q355 -138 352 -148Q349 -158 345 -166L306 -250ZM524 500 299 287 535 0H357L209 199L196 186V0H65V750H196V356L332 500Z" glyph-name="kcommaaccent" horiz-adv-x="545" unicode="&#311;" /><glyph d="M215 -250 228 -192Q196 -168 196 -127Q196 -93 219.5 -69Q243 -45 277 -45Q311 -45 335 -69Q359 -93 359 -127Q359 -138 356 -148Q353 -158 349 -166L310 -250ZM529 502 304 287 540 0H362L214 199L201 186V0H70V500H201V356L337 502Z" glyph-name="kcommaaccent.smcp" horiz-adv-x="555" /><glyph d="M524 500 299 287 535 0H357L209 199L196 186V0H65V500H196V356L332 500Z" glyph-name="kgreenlandic" horiz-adv-x="545" unicode="&#312;" /><glyph d="M203 -16Q138 -16 105 13Q72 42 72 115V750H203V137Q203 123 211 116Q219 109 239 109V-16Z" glyph-name="l" horiz-adv-x="300" unicode="l" /><glyph d="M199 125H457V0H70V500H199Z" glyph-name="l.smcp" horiz-adv-x="492" /><glyph d="M95 825 175 1000H326L181 825ZM203 -16Q138 -16 105 13Q72 42 72 115V750H203V137Q203 123 211 116Q219 109 239 109V-16Z" glyph-name="lacute" horiz-adv-x="300" unicode="&#314;" /><glyph d="M93 575 173 750H324L179 575ZM199 125H457V0H70V500H199Z" glyph-name="lacute.smcp" horiz-adv-x="492" /><glyph d="M357 750 309 550H243L259 750ZM203 -16Q138 -16 105 13Q72 42 72 115V750H203V137Q203 123 211 116Q219 109 239 109V-16Z" glyph-name="lcaron" horiz-adv-x="300" unicode="&#318;" /><glyph d="M415 600 367 400H301L317 600ZM199 125H457V0H70V500H199Z" glyph-name="lcaron.smcp" horiz-adv-x="492" /><glyph d="M97 -250 110 -192Q78 -168 78 -127Q78 -93 101.5 -69Q125 -45 159 -45Q193 -45 217 -69Q241 -93 241 -127Q241 -138 238 -148Q235 -158 231 -166L192 -250ZM203 -16Q138 -16 105 13Q72 42 72 115V750H203V137Q203 123 211 116Q219 109 239 109V-16Z" glyph-name="lcommaaccent" horiz-adv-x="300" unicode="&#316;" /><glyph d="M204 -250 217 -192Q185 -168 185 -127Q185 -93 208.5 -69Q232 -45 266 -45Q300 -45 324 -69Q348 -93 348 -127Q348 -138 345 -148Q342 -158 338 -166L299 -250ZM199 125H457V0H70V500H199Z" glyph-name="lcommaaccent.smcp" horiz-adv-x="492" /><glyph d="M256 300Q256 334 279.5 358Q303 382 337 382Q371 382 395 358Q419 334 419 300Q419 266 395 242.5Q371 219 337 219Q303 219 279.5 242.5Q256 266 256 300ZM203 -16Q138 -16 105 13Q72 42 72 115V750H203V137Q203 123 211 116Q219 109 239 109V-16Z" glyph-name="ldot" horiz-adv-x="400" unicode="&#320;" /><glyph d="M299 300Q299 334 322.5 358Q346 382 380 382Q414 382 438 358Q462 334 462 300Q462 266 438 242.5Q414 219 380 219Q346 219 322.5 242.5Q299 266 299 300ZM199 125H457V0H70V500H199Z" glyph-name="ldot.smcp" horiz-adv-x="492" /><glyph d="M324 100 36 293V389L324 582V441L192 341L324 240Z" glyph-name="less" horiz-adv-x="365" unicode="&lt;" /><glyph d="M800 311H302L324 299L557 149V-16L50 344V406L557 766V601L324 451L302 439H800Z" glyph-name="lessequal" horiz-adv-x="860" unicode="&#8804;" /><glyph d="M80 0V500H580V0Z" glyph-name="logicalnot" horiz-adv-x="660" unicode="&#172;" /><glyph d="M265 275 365 375 265 475 355 565 455 465 555 565 645 475 545 375 645 275 555 185 455 285 355 185ZM217 617V133H693V617ZM80 750H830V0H80Z" glyph-name="lozenge" horiz-adv-x="910" unicode="&#9674;" /><glyph d="M12 212V357L102 408V750H233V483L333 540V395L233 338V137Q233 123 241 116Q249 109 269 109V-16H233Q168 -16 135 13Q102 42 102 115V263Z" glyph-name="lslash" horiz-adv-x="360" unicode="&#322;" /><glyph d="M100 281V500H229V328L405 391V270L229 207V125H487V0H100V160L10 128V249Z" glyph-name="lslash.smcp" horiz-adv-x="522" /><glyph d="M288 516Q343 516 375 504Q407 492 427 472Q458 492 497 504Q536 516 568 516Q668 516 713 469Q758 422 758 342V0H625V337Q625 365 609.5 378Q594 391 568 391Q534 391 512.5 383.5Q491 376 478 371V0H345V337Q345 365 329.5 378Q314 391 288 391Q258 391 236.5 384.5Q215 378 198 371V0H65V500H159L167 483Q195 498 228 507Q261 516 288 516Z" glyph-name="m" horiz-adv-x="818" unicode="m" /><glyph d="M282 56 194 238 197 0H70V500H202L330 234L458 500H590V0H463L466 238L378 56Z" glyph-name="m.smcp" horiz-adv-x="660" /><glyph d="M407 575H133V703H407Z" glyph-name="macron" horiz-adv-x="540" unicode="&#175;" /><glyph d="M55 405H465V277H55Z" glyph-name="minus" horiz-adv-x="520" unicode="&#8722;" /><glyph d="M193 500V164Q195 139 210.5 124Q226 109 260 109Q276 109 292 111.5Q308 114 322.5 117.5Q337 121 347.5 125Q358 129 364 131V500H497V0H404L396 16Q384 11 367.5 5Q351 -1 332.5 -5.5Q314 -10 295 -13Q276 -16 260 -16Q221 -16 193 -10V-250H60V500Z" glyph-name="mu" horiz-adv-x="562" unicode="&#181;" /><glyph d="M70 241 170 341 70 441 160 531 260 431 360 531 450 441 350 341 450 241 360 151 260 251 160 151Z" glyph-name="multiply" horiz-adv-x="520" unicode="&#215;" /><glyph d="M369 330Q369 357 353 374Q337 391 302 391Q286 391 270 388.5Q254 386 239.5 382.5Q225 379 214.5 375Q204 371 198 369V0H65V500H158L166 484Q178 489 194.5 495Q211 501 229.5 505.5Q248 510 266.5 513Q285 516 302 516Q358 516 396.5 503.5Q435 491 458.5 467.5Q482 444 492 409.5Q502 375 502 330V0H369Z" glyph-name="n" horiz-adv-x="562" unicode="n" /><glyph d="M419 0 198 261 200 0H70V500H157L378 239L376 500H506V0Z" glyph-name="n.smcp" horiz-adv-x="576" /><glyph d="M245 575 325 750H476L331 575ZM369 330Q369 357 353 374Q337 391 302 391Q286 391 270 388.5Q254 386 239.5 382.5Q225 379 214.5 375Q204 371 198 369V0H65V500H158L166 484Q178 489 194.5 495Q211 501 229.5 505.5Q248 510 266.5 513Q285 516 302 516Q358 516 396.5 503.5Q435 491 458.5 467.5Q482 444 492 409.5Q502 375 502 330V0H369Z" glyph-name="nacute" horiz-adv-x="562" unicode="&#324;" /><glyph d="M244 575 324 750H475L330 575ZM419 0 198 261 200 0H70V500H157L378 239L376 500H506V0Z" glyph-name="nacute.smcp" horiz-adv-x="576" /><glyph d="M207 750 289 686 371 750H467L342 575H236L111 750ZM369 330Q369 357 353 374Q337 391 302 391Q286 391 270 388.5Q254 386 239.5 382.5Q225 379 214.5 375Q204 371 198 369V0H65V500H158L166 484Q178 489 194.5 495Q211 501 229.5 505.5Q248 510 266.5 513Q285 516 302 516Q358 516 396.5 503.5Q435 491 458.5 467.5Q482 444 492 409.5Q502 375 502 330V0H369Z" glyph-name="ncaron" horiz-adv-x="562" unicode="&#328;" /><glyph d="M466 750 341 575H235L110 750H206L288 686L370 750ZM419 0 198 261 200 0H70V500H157L378 239L376 500H506V0Z" glyph-name="ncaron.smcp" horiz-adv-x="576" /><glyph d="M219 -250 232 -192Q200 -168 200 -127Q200 -93 223.5 -69Q247 -45 281 -45Q315 -45 339 -69Q363 -93 363 -127Q363 -138 360 -148Q357 -158 353 -166L314 -250ZM369 330Q369 357 353 374Q337 391 302 391Q286 391 270 388.5Q254 386 239.5 382.5Q225 379 214.5 375Q204 371 198 369V0H65V500H158L166 484Q178 489 194.5 495Q211 501 229.5 505.5Q248 510 266.5 513Q285 516 302 516Q358 516 396.5 503.5Q435 491 458.5 467.5Q482 444 492 409.5Q502 375 502 330V0H369Z" glyph-name="ncommaaccent" horiz-adv-x="562" unicode="&#326;" /><glyph d="M235 -250 248 -192Q216 -168 216 -127Q216 -93 239.5 -69Q263 -45 297 -45Q331 -45 355 -69Q379 -93 379 -127Q379 -138 376 -148Q373 -158 369 -166L330 -250ZM419 0 198 261 200 0H70V500H157L378 239L376 500H506V0Z" glyph-name="ncommaaccent.smcp" horiz-adv-x="576" /><glyph d="M403 522Q403 542 399 563Q395 584 383 601.5Q371 619 349.5 630Q328 641 293 641Q260 641 240 628.5Q220 616 209.5 598Q199 580 196 559Q193 538 193 522Q193 505 195.5 484.5Q198 464 208 446Q218 428 238 415.5Q258 403 293 403Q328 403 349.5 414.5Q371 426 383 444Q395 462 399 483Q403 504 403 522ZM80 143Q111 131 160 121Q209 111 269 111Q306 111 332 128Q358 145 374.5 173Q391 201 399 237Q407 273 407 311Q387 297 358.5 287Q330 277 293 277Q214 277 168 301Q122 325 98 361.5Q74 398 67.5 441Q61 484 61 522Q61 560 69 603Q77 646 102 682Q127 718 172.5 742Q218 766 293 766Q374 766 423 741.5Q472 717 497.5 672Q523 627 531 563.5Q539 500 539 423Q539 336 528.5 256.5Q518 177 488.5 116.5Q459 56 406.5 20Q354 -16 269 -16Q212 -16 164.5 -9.5Q117 -3 80 8Z" glyph-name="nine" horiz-adv-x="600" unicode="9" /><glyph d="M403 522Q403 542 399 563Q395 584 383 601.5Q371 619 349.5 630Q328 641 293 641Q260 641 240 628.5Q220 616 209.5 598Q199 580 196 559Q193 538 193 522Q193 505 195.5 484.5Q198 464 208 446Q218 428 238 415.5Q258 403 293 403Q328 403 349.5 414.5Q371 426 383 444Q395 462 399 483Q403 504 403 522ZM80 143Q111 131 160 121Q209 111 269 111Q306 111 332 128Q358 145 374.5 173Q391 201 399 237Q407 273 407 311Q387 297 358.5 287Q330 277 293 277Q214 277 168 301Q122 325 98 361.5Q74 398 67.5 441Q61 484 61 522Q61 560 69 603Q77 646 102 682Q127 718 172.5 742Q218 766 293 766Q374 766 423 741.5Q472 717 497.5 672Q523 627 531 563.5Q539 500 539 423Q539 336 528.5 256.5Q518 177 488.5 116.5Q459 56 406.5 20Q354 -16 269 -16Q212 -16 164.5 -9.5Q117 -3 80 8Z" glyph-name="nine.LP" horiz-adv-x="600" /><glyph d="M403 272Q403 292 399 313Q395 334 383 351.5Q371 369 349.5 380Q328 391 293 391Q260 391 240 378.5Q220 366 209.5 348Q199 330 196 309Q193 288 193 272Q193 255 195.5 234.5Q198 214 208 196Q218 178 238 165.5Q258 153 293 153Q328 153 349.5 164.5Q371 176 383 194Q395 212 399 233Q403 254 403 272ZM80 -107Q111 -119 160 -129Q209 -139 269 -139Q306 -139 332 -122Q358 -105 374.5 -77Q391 -49 399 -13Q407 23 407 61Q387 47 358.5 37Q330 27 293 27Q214 27 168 51Q122 75 98 111.5Q74 148 67.5 191Q61 234 61 272Q61 310 69 353Q77 396 102 432Q127 468 172.5 492Q218 516 293 516Q374 516 423 491.5Q472 467 497.5 422Q523 377 531 313.5Q539 250 539 173Q539 86 528.5 6.5Q518 -73 488.5 -133.5Q459 -194 406.5 -230Q354 -266 269 -266Q212 -266 164.5 -259.5Q117 -253 80 -242Z" glyph-name="nine.OP" horiz-adv-x="600" /><glyph d="M80 0V750H830V0Z" glyph-name="notequal" horiz-adv-x="910" unicode="&#8800;" /><glyph d="M497 734Q491 645 459 605.5Q427 566 357 568Q326 569 307 580.5Q288 592 274.5 605Q261 618 249.5 628.5Q238 639 223 639Q200 639 192 621.5Q184 604 182 579L80 592Q86 681 118 720.5Q150 760 220 758Q251 757 270 745.5Q289 734 302.5 721Q316 708 327.5 697.5Q339 687 354 687Q377 687 385 704.5Q393 722 395 747ZM369 330Q369 357 353 374Q337 391 302 391Q286 391 270 388.5Q254 386 239.5 382.5Q225 379 214.5 375Q204 371 198 369V0H65V500H158L166 484Q178 489 194.5 495Q211 501 229.5 505.5Q248 510 266.5 513Q285 516 302 516Q358 516 396.5 503.5Q435 491 458.5 467.5Q482 444 492 409.5Q502 375 502 330V0H369Z" glyph-name="ntilde" horiz-adv-x="562" unicode="&#241;" /><glyph d="M496 734Q490 645 458 605.5Q426 566 356 568Q325 569 306 580.5Q287 592 273.5 605Q260 618 248.5 628.5Q237 639 222 639Q199 639 191 621.5Q183 604 181 579L79 592Q85 681 117 720.5Q149 760 219 758Q250 757 269 745.5Q288 734 301.5 721Q315 708 326.5 697.5Q338 687 353 687Q376 687 384 704.5Q392 722 394 747ZM419 0 198 261 200 0H70V500H157L378 239L376 500H506V0Z" glyph-name="ntilde.smcp" horiz-adv-x="576" /><glyph d="M258 236H311L323 265H270ZM262 109H210L168 0H33L75 109H7L43 236H123L135 265H66L102 391H182L224 500H360L318 391H371L413 500H549L507 391H578L542 265H459L446 236H519L483 109H399L357 0H222Z" glyph-name="numbersign" horiz-adv-x="585" unicode="#" /><glyph d="M258 236H311L323 265H270ZM262 109H210L168 0H33L75 109H7L43 236H123L135 265H66L102 391H182L224 500H360L318 391H371L413 500H549L507 391H578L542 265H459L446 236H519L483 109H399L357 0H222Z" glyph-name="numbersign.OP" horiz-adv-x="585" /><glyph d="M368 250Q368 279 365 305Q362 331 352.5 350Q343 369 324.5 380Q306 391 275 391Q243 391 225 380Q207 369 197 350Q187 331 184.5 305Q182 279 182 250Q182 221 184.5 195Q187 169 197 150Q207 131 225 120Q243 109 275 109Q306 109 324.5 120Q343 131 352.5 150Q362 169 365 195Q368 221 368 250ZM500 250Q500 191 491 142.5Q482 94 457 58.5Q432 23 388 3.5Q344 -16 275 -16Q206 -16 162.5 3.5Q119 23 94 58.5Q69 94 59.5 142.5Q50 191 50 250Q50 308 59.5 357Q69 406 94 441.5Q119 477 162.5 496.5Q206 516 275 516Q344 516 388 496.5Q432 477 457 441.5Q482 406 491 357Q500 308 500 250Z" glyph-name="o" horiz-adv-x="550" unicode="o" /><glyph d="M395 250Q395 279 390.5 305Q386 331 374.5 350Q363 369 342.5 380Q322 391 290 391Q258 391 237.5 380Q217 369 205.5 350Q194 331 189.5 305Q185 279 185 250Q185 221 189.5 195Q194 169 205.5 150Q217 131 237.5 120Q258 109 290 109Q322 109 342.5 120Q363 131 374.5 150Q386 169 390.5 195Q395 221 395 250ZM525 250Q525 193 513 144Q501 95 473.5 59.5Q446 24 401 4Q356 -16 290 -16Q224 -16 179.5 4Q135 24 107 59.5Q79 95 67 144Q55 193 55 250Q55 307 67 356Q79 405 107 440.5Q135 476 179.5 496Q224 516 290 516Q356 516 401 496Q446 476 473.5 440.5Q501 405 513 356Q525 307 525 250Z" glyph-name="o.smcp" horiz-adv-x="580" /><glyph d="M231 575 311 750H462L317 575ZM368 250Q368 279 365 305Q362 331 352.5 350Q343 369 324.5 380Q306 391 275 391Q243 391 225 380Q207 369 197 350Q187 331 184.5 305Q182 279 182 250Q182 221 184.5 195Q187 169 197 150Q207 131 225 120Q243 109 275 109Q306 109 324.5 120Q343 131 352.5 150Q362 169 365 195Q368 221 368 250ZM500 250Q500 191 491 142.5Q482 94 457 58.5Q432 23 388 3.5Q344 -16 275 -16Q206 -16 162.5 3.5Q119 23 94 58.5Q69 94 59.5 142.5Q50 191 50 250Q50 308 59.5 357Q69 406 94 441.5Q119 477 162.5 496.5Q206 516 275 516Q344 516 388 496.5Q432 477 457 441.5Q482 406 491 357Q500 308 500 250Z" glyph-name="oacute" horiz-adv-x="550" unicode="&#243;" /><glyph d="M246 575 326 750H477L332 575ZM395 250Q395 279 390.5 305Q386 331 374.5 350Q363 369 342.5 380Q322 391 290 391Q258 391 237.5 380Q217 369 205.5 350Q194 331 189.5 305Q185 279 185 250Q185 221 189.5 195Q194 169 205.5 150Q217 131 237.5 120Q258 109 290 109Q322 109 342.5 120Q363 131 374.5 150Q386 169 390.5 195Q395 221 395 250ZM525 250Q525 193 513 144Q501 95 473.5 59.5Q446 24 401 4Q356 -16 290 -16Q224 -16 179.5 4Q135 24 107 59.5Q79 95 67 144Q55 193 55 250Q55 307 67 356Q79 405 107 440.5Q135 476 179.5 496Q224 516 290 516Q356 516 401 496Q446 476 473.5 440.5Q501 405 513 356Q525 307 525 250Z" glyph-name="oacute.smcp" horiz-adv-x="580" /><glyph d="M275 559Q185 559 147 608Q109 657 107 750H209Q210 723 215.5 707Q221 691 230 682.5Q239 674 250.5 671Q262 668 275 668Q288 668 299.5 671Q311 674 320 682.5Q329 691 334.5 707Q340 723 341 750H443Q441 657 403 608Q365 559 275 559ZM368 250Q368 279 365 305Q362 331 352.5 350Q343 369 324.5 380Q306 391 275 391Q243 391 225 380Q207 369 197 350Q187 331 184.5 305Q182 279 182 250Q182 221 184.5 195Q187 169 197 150Q207 131 225 120Q243 109 275 109Q306 109 324.5 120Q343 131 352.5 150Q362 169 365 195Q368 221 368 250ZM500 250Q500 191 491 142.5Q482 94 457 58.5Q432 23 388 3.5Q344 -16 275 -16Q206 -16 162.5 3.5Q119 23 94 58.5Q69 94 59.5 142.5Q50 191 50 250Q50 308 59.5 357Q69 406 94 441.5Q119 477 162.5 496.5Q206 516 275 516Q344 516 388 496.5Q432 477 457 441.5Q482 406 491 357Q500 308 500 250Z" glyph-name="obreve" horiz-adv-x="550" unicode="&#335;" /><glyph d="M290 559Q200 559 162 608Q124 657 122 750H224Q225 723 230.5 707Q236 691 245 682.5Q254 674 265.5 671Q277 668 290 668Q303 668 314.5 671Q326 674 335 682.5Q344 691 349.5 707Q355 723 356 750H458Q456 657 418 608Q380 559 290 559ZM395 250Q395 279 390.5 305Q386 331 374.5 350Q363 369 342.5 380Q322 391 290 391Q258 391 237.5 380Q217 369 205.5 350Q194 331 189.5 305Q185 279 185 250Q185 221 189.5 195Q194 169 205.5 150Q217 131 237.5 120Q258 109 290 109Q322 109 342.5 120Q363 131 374.5 150Q386 169 390.5 195Q395 221 395 250ZM525 250Q525 193 513 144Q501 95 473.5 59.5Q446 24 401 4Q356 -16 290 -16Q224 -16 179.5 4Q135 24 107 59.5Q79 95 67 144Q55 193 55 250Q55 307 67 356Q79 405 107 440.5Q135 476 179.5 496Q224 516 290 516Q356 516 401 496Q446 476 473.5 440.5Q501 405 513 356Q525 307 525 250Z" glyph-name="obreve.smcp" horiz-adv-x="580" /><glyph d="M357 575 275 639 193 575H97L222 750H328L453 575ZM368 250Q368 279 365 305Q362 331 352.5 350Q343 369 324.5 380Q306 391 275 391Q243 391 225 380Q207 369 197 350Q187 331 184.5 305Q182 279 182 250Q182 221 184.5 195Q187 169 197 150Q207 131 225 120Q243 109 275 109Q306 109 324.5 120Q343 131 352.5 150Q362 169 365 195Q368 221 368 250ZM500 250Q500 191 491 142.5Q482 94 457 58.5Q432 23 388 3.5Q344 -16 275 -16Q206 -16 162.5 3.5Q119 23 94 58.5Q69 94 59.5 142.5Q50 191 50 250Q50 308 59.5 357Q69 406 94 441.5Q119 477 162.5 496.5Q206 516 275 516Q344 516 388 496.5Q432 477 457 441.5Q482 406 491 357Q500 308 500 250Z" glyph-name="ocircumflex" horiz-adv-x="550" unicode="&#244;" /><glyph d="M372 575 290 639 208 575H112L237 750H343L468 575ZM395 250Q395 279 390.5 305Q386 331 374.5 350Q363 369 342.5 380Q322 391 290 391Q258 391 237.5 380Q217 369 205.5 350Q194 331 189.5 305Q185 279 185 250Q185 221 189.5 195Q194 169 205.5 150Q217 131 237.5 120Q258 109 290 109Q322 109 342.5 120Q363 131 374.5 150Q386 169 390.5 195Q395 221 395 250ZM525 250Q525 193 513 144Q501 95 473.5 59.5Q446 24 401 4Q356 -16 290 -16Q224 -16 179.5 4Q135 24 107 59.5Q79 95 67 144Q55 193 55 250Q55 307 67 356Q79 405 107 440.5Q135 476 179.5 496Q224 516 290 516Q356 516 401 496Q446 476 473.5 440.5Q501 405 513 356Q525 307 525 250Z" glyph-name="ocircumflex.smcp" horiz-adv-x="580" /><glyph d="M305 658Q305 692 328.5 716Q352 740 386 740Q420 740 444 716Q468 692 468 658Q468 624 444 600.5Q420 577 386 577Q352 577 328.5 600.5Q305 624 305 658ZM82 658Q82 692 105.5 716Q129 740 163 740Q197 740 221 716Q245 692 245 658Q245 624 221 600.5Q197 577 163 577Q129 577 105.5 600.5Q82 624 82 658ZM368 250Q368 279 365 305Q362 331 352.5 350Q343 369 324.5 380Q306 391 275 391Q243 391 225 380Q207 369 197 350Q187 331 184.5 305Q182 279 182 250Q182 221 184.5 195Q187 169 197 150Q207 131 225 120Q243 109 275 109Q306 109 324.5 120Q343 131 352.5 150Q362 169 365 195Q368 221 368 250ZM500 250Q500 191 491 142.5Q482 94 457 58.5Q432 23 388 3.5Q344 -16 275 -16Q206 -16 162.5 3.5Q119 23 94 58.5Q69 94 59.5 142.5Q50 191 50 250Q50 308 59.5 357Q69 406 94 441.5Q119 477 162.5 496.5Q206 516 275 516Q344 516 388 496.5Q432 477 457 441.5Q482 406 491 357Q500 308 500 250Z" glyph-name="odieresis" horiz-adv-x="550" unicode="&#246;" /><glyph d="M320 658Q320 692 343.5 716Q367 740 401 740Q435 740 459 716Q483 692 483 658Q483 624 459 600.5Q435 577 401 577Q367 577 343.5 600.5Q320 624 320 658ZM97 658Q97 692 120.5 716Q144 740 178 740Q212 740 236 716Q260 692 260 658Q260 624 236 600.5Q212 577 178 577Q144 577 120.5 600.5Q97 624 97 658ZM395 250Q395 279 390.5 305Q386 331 374.5 350Q363 369 342.5 380Q322 391 290 391Q258 391 237.5 380Q217 369 205.5 350Q194 331 189.5 305Q185 279 185 250Q185 221 189.5 195Q194 169 205.5 150Q217 131 237.5 120Q258 109 290 109Q322 109 342.5 120Q363 131 374.5 150Q386 169 390.5 195Q395 221 395 250ZM525 250Q525 193 513 144Q501 95 473.5 59.5Q446 24 401 4Q356 -16 290 -16Q224 -16 179.5 4Q135 24 107 59.5Q79 95 67 144Q55 193 55 250Q55 307 67 356Q79 405 107 440.5Q135 476 179.5 496Q224 516 290 516Q356 516 401 496Q446 476 473.5 440.5Q501 405 513 356Q525 307 525 250Z" glyph-name="odieresis.smcp" horiz-adv-x="580" /><glyph d="M594 391Q550 391 531 367Q512 343 506 307H662Q660 341 647 366Q634 391 594 391ZM368 262Q368 289 364 312.5Q360 336 350 353.5Q340 371 322 381Q304 391 275 391Q243 391 225 380Q207 369 197 350Q187 331 184.5 305Q182 279 182 250Q182 221 184.5 195Q187 169 197 150Q207 131 225 120Q243 109 275 109Q306 109 324.5 120Q343 131 352.5 150Q362 169 365 195Q368 221 368 250ZM507 187Q509 155 529 132Q549 109 594 109Q638 109 682.5 118Q727 127 773 147V17Q753 7 729 0.5Q705 -6 681 -9.5Q657 -13 634.5 -14.5Q612 -16 594 -16Q540 -16 501.5 -3Q463 10 437 35Q411 10 371.5 -3Q332 -16 275 -16Q206 -16 162.5 3.5Q119 23 94 58.5Q69 94 59.5 142.5Q50 191 50 250Q50 308 59.5 357Q69 406 94 441.5Q119 477 162.5 496.5Q206 516 275 516Q332 516 371.5 502.5Q411 489 437 465Q463 490 501.5 503Q540 516 594 516Q661 516 701.5 494Q742 472 763.5 435.5Q785 399 791.5 350.5Q798 302 798 250V187Z" glyph-name="oe" horiz-adv-x="848" unicode="&#339;" /><glyph d="M186 250Q186 221 191.5 198Q197 175 210 159Q223 143 245.5 134Q268 125 301 125H334V375H301Q268 375 245.5 366Q223 357 210 341Q197 325 191.5 301.5Q186 278 186 250ZM671 193H463V125H701V0H302Q237 0 190.5 17.5Q144 35 114.5 67.5Q85 100 71 146.5Q57 193 57 250Q57 307 71 353.5Q85 400 114.5 432.5Q144 465 190.5 482.5Q237 500 302 500H701V375H463V318H671Z" glyph-name="oe.smcp" horiz-adv-x="755" /><glyph d="M503 0Q478 0 455.5 -6Q433 -12 415.5 -23Q398 -34 387.5 -49.5Q377 -65 377 -84Q377 -106 394 -113.5Q411 -121 428 -121Q442 -121 453.5 -119Q465 -117 474 -115Q485 -112 493 -109V-213Q485 -218 462 -225Q439 -232 398 -232Q374 -232 350 -225Q326 -218 307 -203.5Q288 -189 276 -166.5Q264 -144 264 -113Q264 -73 282 -37.5Q300 -2 332 26Q364 54 408 72.5Q452 91 503 97Z" glyph-name="ogonek" horiz-adv-x="540" unicode="&#731;" /><glyph d="M231 575 86 750H237L317 575ZM368 250Q368 279 365 305Q362 331 352.5 350Q343 369 324.5 380Q306 391 275 391Q243 391 225 380Q207 369 197 350Q187 331 184.5 305Q182 279 182 250Q182 221 184.5 195Q187 169 197 150Q207 131 225 120Q243 109 275 109Q306 109 324.5 120Q343 131 352.5 150Q362 169 365 195Q368 221 368 250ZM500 250Q500 191 491 142.5Q482 94 457 58.5Q432 23 388 3.5Q344 -16 275 -16Q206 -16 162.5 3.5Q119 23 94 58.5Q69 94 59.5 142.5Q50 191 50 250Q50 308 59.5 357Q69 406 94 441.5Q119 477 162.5 496.5Q206 516 275 516Q344 516 388 496.5Q432 477 457 441.5Q482 406 491 357Q500 308 500 250Z" glyph-name="ograve" horiz-adv-x="550" unicode="&#242;" /><glyph d="M246 575 101 750H252L332 575ZM395 250Q395 279 390.5 305Q386 331 374.5 350Q363 369 342.5 380Q322 391 290 391Q258 391 237.5 380Q217 369 205.5 350Q194 331 189.5 305Q185 279 185 250Q185 221 189.5 195Q194 169 205.5 150Q217 131 237.5 120Q258 109 290 109Q322 109 342.5 120Q363 131 374.5 150Q386 169 390.5 195Q395 221 395 250ZM525 250Q525 193 513 144Q501 95 473.5 59.5Q446 24 401 4Q356 -16 290 -16Q224 -16 179.5 4Q135 24 107 59.5Q79 95 67 144Q55 193 55 250Q55 307 67 356Q79 405 107 440.5Q135 476 179.5 496Q224 516 290 516Q356 516 401 496Q446 476 473.5 440.5Q501 405 513 356Q525 307 525 250Z" glyph-name="ograve.smcp" horiz-adv-x="580" /><glyph d="M310 575 390 750H541L396 575ZM143 575 223 750H374L229 575ZM368 250Q368 279 365 305Q362 331 352.5 350Q343 369 324.5 380Q306 391 275 391Q243 391 225 380Q207 369 197 350Q187 331 184.5 305Q182 279 182 250Q182 221 184.5 195Q187 169 197 150Q207 131 225 120Q243 109 275 109Q306 109 324.5 120Q343 131 352.5 150Q362 169 365 195Q368 221 368 250ZM500 250Q500 191 491 142.5Q482 94 457 58.5Q432 23 388 3.5Q344 -16 275 -16Q206 -16 162.5 3.5Q119 23 94 58.5Q69 94 59.5 142.5Q50 191 50 250Q50 308 59.5 357Q69 406 94 441.5Q119 477 162.5 496.5Q206 516 275 516Q344 516 388 496.5Q432 477 457 441.5Q482 406 491 357Q500 308 500 250Z" glyph-name="ohungarumlaut" horiz-adv-x="550" unicode="&#337;" /><glyph d="M323 575 403 750H554L409 575ZM156 575 236 750H387L242 575ZM395 250Q395 279 390.5 305Q386 331 374.5 350Q363 369 342.5 380Q322 391 290 391Q258 391 237.5 380Q217 369 205.5 350Q194 331 189.5 305Q185 279 185 250Q185 221 189.5 195Q194 169 205.5 150Q217 131 237.5 120Q258 109 290 109Q322 109 342.5 120Q363 131 374.5 150Q386 169 390.5 195Q395 221 395 250ZM525 250Q525 193 513 144Q501 95 473.5 59.5Q446 24 401 4Q356 -16 290 -16Q224 -16 179.5 4Q135 24 107 59.5Q79 95 67 144Q55 193 55 250Q55 307 67 356Q79 405 107 440.5Q135 476 179.5 496Q224 516 290 516Q356 516 401 496Q446 476 473.5 440.5Q501 405 513 356Q525 307 525 250Z" glyph-name="ohungarumlaut.smcp" horiz-adv-x="580" /><glyph d="M412 575H138V703H412ZM368 250Q368 279 365 305Q362 331 352.5 350Q343 369 324.5 380Q306 391 275 391Q243 391 225 380Q207 369 197 350Q187 331 184.5 305Q182 279 182 250Q182 221 184.5 195Q187 169 197 150Q207 131 225 120Q243 109 275 109Q306 109 324.5 120Q343 131 352.5 150Q362 169 365 195Q368 221 368 250ZM500 250Q500 191 491 142.5Q482 94 457 58.5Q432 23 388 3.5Q344 -16 275 -16Q206 -16 162.5 3.5Q119 23 94 58.5Q69 94 59.5 142.5Q50 191 50 250Q50 308 59.5 357Q69 406 94 441.5Q119 477 162.5 496.5Q206 516 275 516Q344 516 388 496.5Q432 477 457 441.5Q482 406 491 357Q500 308 500 250Z" glyph-name="omacron" horiz-adv-x="550" unicode="&#333;" /><glyph d="M427 575H153V703H427ZM395 250Q395 279 390.5 305Q386 331 374.5 350Q363 369 342.5 380Q322 391 290 391Q258 391 237.5 380Q217 369 205.5 350Q194 331 189.5 305Q185 279 185 250Q185 221 189.5 195Q194 169 205.5 150Q217 131 237.5 120Q258 109 290 109Q322 109 342.5 120Q363 131 374.5 150Q386 169 390.5 195Q395 221 395 250ZM525 250Q525 193 513 144Q501 95 473.5 59.5Q446 24 401 4Q356 -16 290 -16Q224 -16 179.5 4Q135 24 107 59.5Q79 95 67 144Q55 193 55 250Q55 307 67 356Q79 405 107 440.5Q135 476 179.5 496Q224 516 290 516Q356 516 401 496Q446 476 473.5 440.5Q501 405 513 356Q525 307 525 250Z" glyph-name="omacron.smcp" horiz-adv-x="580" /><glyph d="M85 119H229V632L90 626V708L298 766H365V119H510V0H85Z" glyph-name="one" horiz-adv-x="600" unicode="1" /><glyph d="M295 766V0H159V632L41 627V714L228 766Z" glyph-name="one.LP" horiz-adv-x="405" /><glyph d="M295 516V0H159V382L41 377V464L228 516Z" glyph-name="one.OP" horiz-adv-x="405" /><glyph d="M292 277H41V405H292Z" glyph-name="onethirdemdash" horiz-adv-x="333" /><glyph d="M189 531Q152 527 152 504Q152 492 158 484Q164 476 181 476Q192 476 208.5 479Q225 482 236 486V536ZM36 501Q36 559 73.5 588.5Q111 618 186 626L236 631Q234 645 226 651Q218 657 198 657Q173 657 140.5 651.5Q108 646 70 632V743Q105 757 139 761.5Q173 766 198 766Q244 766 274 756Q304 746 321 727Q338 708 344.5 682Q351 656 351 624V375H270L263 389Q249 381 223.5 374Q198 367 179 367Q102 367 69 401Q36 435 36 501Z" glyph-name="ordfeminine" horiz-adv-x="400" unicode="&#170;" /><glyph d="M230 526 219 556 208 526ZM165 409 152 375H10L174 766H264L428 375H286L273 409Z" glyph-name="ordfeminine.smcp" horiz-adv-x="438" /><glyph d="M168 567Q168 518 183 498Q198 478 233 478Q269 478 286.5 498.5Q304 519 304 567Q304 615 286.5 635Q269 655 233 655Q198 655 183 635Q168 615 168 567ZM55 567Q55 665 97 715.5Q139 766 233 766Q327 766 372 715.5Q417 665 417 567Q417 468 372 417.5Q327 367 233 367Q139 367 97 417.5Q55 468 55 567Z" glyph-name="ordmasculine" horiz-adv-x="469" unicode="&#186;" /><glyph d="M168 567Q168 518 183 498Q198 478 233 478Q269 478 286.5 498.5Q304 519 304 567Q304 615 286.5 635Q269 655 233 655Q198 655 183 635Q168 615 168 567ZM55 567Q55 665 97 715.5Q139 766 233 766Q327 766 372 715.5Q417 665 417 567Q417 468 372 417.5Q327 367 233 367Q139 367 97 417.5Q55 468 55 567Z" glyph-name="ordmasculine.smcp" horiz-adv-x="469" /><glyph d="M365 250Q365 258 365 264.5Q365 271 364 278L253 110Q258 109 262.5 109Q267 109 272 109Q303 109 321.5 120Q340 131 349.5 150Q359 169 362 195Q365 221 365 250ZM179 250Q179 240 179 231Q179 222 180 213L296 389Q291 390 284.5 390.5Q278 391 272 391Q240 391 222 380Q204 369 194 350Q184 331 181.5 305Q179 279 179 250ZM462 428Q482 393 489.5 348Q497 303 497 250Q497 191 488 142.5Q479 94 454 58.5Q429 23 385 3.5Q341 -16 272 -16Q241 -16 215.5 -12Q190 -8 169 0H40L84 68Q63 103 55 149Q47 195 47 250Q47 308 56.5 357Q66 406 91 441.5Q116 477 159.5 496.5Q203 516 272 516Q303 516 329 512Q355 508 376 500H510Z" glyph-name="oslash" horiz-adv-x="550" unicode="&#248;" /><glyph d="M395 250Q395 274 392 295L270 110Q275 109 280 109Q285 109 290 109Q322 109 342.5 120Q363 131 374.5 150Q386 169 390.5 195Q395 221 395 250ZM185 250Q185 236 186 223Q187 210 189 198L315 389Q309 390 303 390.5Q297 391 290 391Q258 391 237.5 380Q217 369 205.5 350Q194 331 189.5 305Q185 279 185 250ZM525 250Q525 193 513 144Q501 95 473.5 59.5Q446 24 401 4Q356 -16 290 -16Q261 -16 236 -12Q211 -8 190 0H58L102 66Q76 101 65.5 148Q55 195 55 250Q55 307 67 356Q79 405 107 440.5Q135 476 179.5 496Q224 516 290 516Q319 516 344 512Q369 508 390 500H528L481 429Q504 394 514.5 349Q525 304 525 250Z" glyph-name="oslash.smcp" horiz-adv-x="580" /><glyph d="M483 734Q477 645 445 605.5Q413 566 343 568Q312 569 293 580.5Q274 592 260.5 605Q247 618 235.5 628.5Q224 639 209 639Q186 639 178 621.5Q170 604 168 579L66 592Q72 681 104 720.5Q136 760 206 758Q237 757 256 745.5Q275 734 288.5 721Q302 708 313.5 697.5Q325 687 340 687Q363 687 371 704.5Q379 722 381 747ZM368 250Q368 279 365 305Q362 331 352.5 350Q343 369 324.5 380Q306 391 275 391Q243 391 225 380Q207 369 197 350Q187 331 184.5 305Q182 279 182 250Q182 221 184.5 195Q187 169 197 150Q207 131 225 120Q243 109 275 109Q306 109 324.5 120Q343 131 352.5 150Q362 169 365 195Q368 221 368 250ZM500 250Q500 191 491 142.5Q482 94 457 58.5Q432 23 388 3.5Q344 -16 275 -16Q206 -16 162.5 3.5Q119 23 94 58.5Q69 94 59.5 142.5Q50 191 50 250Q50 308 59.5 357Q69 406 94 441.5Q119 477 162.5 496.5Q206 516 275 516Q344 516 388 496.5Q432 477 457 441.5Q482 406 491 357Q500 308 500 250Z" glyph-name="otilde" horiz-adv-x="550" unicode="&#245;" /><glyph d="M498 734Q492 645 460 605.5Q428 566 358 568Q327 569 308 580.5Q289 592 275.5 605Q262 618 250.5 628.5Q239 639 224 639Q201 639 193 621.5Q185 604 183 579L81 592Q87 681 119 720.5Q151 760 221 758Q252 757 271 745.5Q290 734 303.5 721Q317 708 328.5 697.5Q340 687 355 687Q378 687 386 704.5Q394 722 396 747ZM395 250Q395 279 390.5 305Q386 331 374.5 350Q363 369 342.5 380Q322 391 290 391Q258 391 237.5 380Q217 369 205.5 350Q194 331 189.5 305Q185 279 185 250Q185 221 189.5 195Q194 169 205.5 150Q217 131 237.5 120Q258 109 290 109Q322 109 342.5 120Q363 131 374.5 150Q386 169 390.5 195Q395 221 395 250ZM525 250Q525 193 513 144Q501 95 473.5 59.5Q446 24 401 4Q356 -16 290 -16Q224 -16 179.5 4Q135 24 107 59.5Q79 95 67 144Q55 193 55 250Q55 307 67 356Q79 405 107 440.5Q135 476 179.5 496Q224 516 290 516Q356 516 401 496Q446 476 473.5 440.5Q501 405 513 356Q525 307 525 250Z" glyph-name="otilde.smcp" horiz-adv-x="580" /><glyph d="M196 128Q213 121 237.5 115Q262 109 289 109Q319 109 337.5 119.5Q356 130 366.5 149Q377 168 380.5 194Q384 220 384 250Q384 280 380.5 306Q377 332 366.5 351Q356 370 337.5 380.5Q319 391 289 391Q262 391 237.5 385Q213 379 196 372ZM65 500H158L165 482Q192 498 227 507Q262 516 291 516Q357 516 401 498.5Q445 481 471 447Q497 413 507.5 363.5Q518 314 518 250Q518 185 507.5 135.5Q497 86 471 52.5Q445 19 401 1.5Q357 -16 291 -16Q270 -16 243 -10.5Q216 -5 196 3V-250H65Z" glyph-name="p" horiz-adv-x="568" unicode="p" /><glyph d="M327 325Q327 344 320 359.5Q313 375 284 375H199V274H284Q313 274 320 290Q327 306 327 325ZM199 149V0H70V500H281Q331 500 365.5 486Q400 472 421 448Q442 424 451.5 392Q461 360 461 325Q461 290 451.5 258Q442 226 421 202Q400 178 365.5 163.5Q331 149 281 149Z" glyph-name="p.smcp" horiz-adv-x="491" /><glyph d="M177 511Q177 485 186.5 459Q196 433 225 418V603Q196 588 186.5 562Q177 536 177 511ZM401 617H364V404H401ZM225 0V276Q171 285 134 307.5Q97 330 74 361.5Q51 393 40.5 431.5Q30 470 30 511Q30 558 43.5 601Q57 644 88.5 677Q120 710 170 730Q220 750 294 750H540V0H401V271H364V0Z" glyph-name="paragraph" horiz-adv-x="610" unicode="&#182;" /><glyph d="M185 -206Q166 -178 144 -130Q122 -82 103.5 -17Q85 48 72.5 129Q60 210 60 305Q60 400 72.5 481Q85 562 103.5 627Q122 692 144 740Q166 788 185 816H328Q309 788 287 740Q265 692 246 627Q227 562 214.5 481Q202 400 202 305Q202 210 214.5 129Q227 48 246 -17Q265 -82 287 -130Q309 -178 328 -206Z" glyph-name="parenleft" horiz-adv-x="368" unicode="(" /><glyph d="M40 -206Q59 -178 81 -130Q103 -82 122 -17Q141 48 153.5 129Q166 210 166 305Q166 400 153.5 481Q141 562 122 627Q103 692 81 740Q59 788 40 816H183Q202 788 224 740Q246 692 264.5 627Q283 562 295.5 481Q308 400 308 305Q308 210 295.5 129Q283 48 264.5 -17Q246 -82 224 -130Q202 -178 183 -206Z" glyph-name="parenright" horiz-adv-x="368" unicode=")" /><glyph d="M385 250Q385 280 381 306Q377 332 366.5 350.5Q356 369 336.5 380Q317 391 287 391Q256 391 237 380Q218 369 207.5 350.5Q197 332 193 306Q189 280 189 250Q189 220 193 194.5Q197 169 207.5 150Q218 131 237 120Q256 109 287 109Q317 109 336.5 120Q356 131 366.5 150Q377 169 381 194.5Q385 220 385 250ZM520 250Q520 191 509.5 142Q499 93 472.5 58Q446 23 401 3.5Q356 -16 287 -16Q219 -16 174.5 3.5Q130 23 103.5 58Q77 93 66 142Q55 191 55 250Q55 309 66 358Q77 407 103.5 442Q130 477 174.5 496.5Q219 516 287 516Q297 516 310 514.5Q323 513 336 510.5Q349 508 359.5 504.5Q370 501 375 498Q375 535 366 561.5Q357 588 342 605.5Q327 623 306.5 631Q286 639 262 639Q218 639 173.5 628Q129 617 94 600V732Q118 745 159 755.5Q200 766 262 766Q347 766 398 734.5Q449 703 476 638.5Q503 574 511.5 477Q520 380 520 250Z" glyph-name="partialdiff" horiz-adv-x="575" unicode="&#8706;" /><glyph d="M235 483Q264 483 277 500.5Q290 518 290 562Q290 606 277 623.5Q264 641 235 641Q205 641 192 623.5Q179 606 179 562Q179 518 192 500.5Q205 483 235 483ZM758 267Q729 267 716 249.5Q703 232 703 188Q703 144 716 126.5Q729 109 758 109Q788 109 801 126.5Q814 144 814 188Q814 232 801 249.5Q788 267 758 267ZM153 0 685 750H840L308 0ZM235 357Q136 357 93 409Q50 461 50 562Q50 663 93 714.5Q136 766 235 766Q332 766 375 714.5Q418 663 418 562Q418 461 375 409Q332 357 235 357ZM758 393Q857 393 900 341Q943 289 943 188Q943 87 900 35.5Q857 -16 758 -16Q661 -16 618 35.5Q575 87 575 188Q575 289 618 341Q661 393 758 393Z" glyph-name="percent" horiz-adv-x="993" unicode="%" /><glyph d="M29 65Q29 99 52.5 123Q76 147 110 147Q144 147 168 123Q192 99 192 65Q192 31 168 7.5Q144 -16 110 -16Q76 -16 52.5 7.5Q29 31 29 65Z" glyph-name="period" horiz-adv-x="220" unicode="." /><glyph d="M29 375Q29 409 52.5 433Q76 457 110 457Q144 457 168 433Q192 409 192 375Q192 341 168 317.5Q144 294 110 294Q76 294 52.5 317.5Q29 341 29 375Z" glyph-name="periodcentered" horiz-adv-x="220" unicode="&#183;" /><glyph d="M758 267Q729 267 716 249.5Q703 232 703 188Q703 144 716 126.5Q729 109 758 109Q788 109 801 126.5Q814 144 814 188Q814 232 801 249.5Q788 267 758 267ZM235 483Q264 483 277 500.5Q290 518 290 562Q290 606 277 623.5Q264 641 235 641Q205 641 192 623.5Q179 606 179 562Q179 518 192 500.5Q205 483 235 483ZM1173 267Q1144 267 1131 249.5Q1118 232 1118 188Q1118 144 1131 126.5Q1144 109 1173 109Q1203 109 1216 126.5Q1229 144 1229 188Q1229 232 1216 249.5Q1203 267 1173 267ZM153 0 685 750H840L308 0ZM235 357Q136 357 93 409Q50 461 50 562Q50 663 93 714.5Q136 766 235 766Q332 766 375 714.5Q418 663 418 562Q418 461 375 409Q332 357 235 357ZM1173 393Q1272 393 1315 341Q1358 289 1358 188Q1358 87 1315 35.5Q1272 -16 1173 -16Q1076 -16 1033 35.5Q990 87 990 188Q990 289 1033 341Q1076 393 1173 393ZM758 393Q857 393 900 341Q943 289 943 188Q943 87 900 35.5Q857 -16 758 -16Q661 -16 618 35.5Q575 87 575 188Q575 289 618 341Q661 393 758 393Z" glyph-name="perthousand" horiz-adv-x="1408" unicode="&#8240;" /><glyph d="M322 275H361Q369 275 372 279Q375 283 375 288Q375 293 372 297Q369 301 361 301H322ZM322 188V109H230V391H363Q392 391 412 383Q432 375 444.5 361Q457 347 462.5 328.5Q468 310 468 289Q468 269 462.5 251Q457 233 444 219Q431 205 411 196.5Q391 188 363 188ZM340 77Q378 77 409.5 83Q441 89 464 107.5Q487 126 500 160Q513 194 513 250Q513 306 500 340Q487 374 464 392.5Q441 411 409.5 417Q378 423 340 423Q302 423 270.5 417Q239 411 216 392.5Q193 374 180 340Q167 306 167 250Q167 194 180 160Q193 126 216 107.5Q239 89 270.5 83Q302 77 340 77ZM340 -16Q286 -16 236.5 -5Q187 6 150 35Q113 64 91 116Q69 168 69 250Q69 332 91 384Q113 436 150 465Q187 494 236.5 505Q286 516 340 516Q394 516 443.5 505Q493 494 530 465Q567 436 589 384Q611 332 611 250Q611 168 589 116Q567 64 530 35Q493 6 443.5 -5Q394 -16 340 -16Z" glyph-name="pi" horiz-adv-x="680" unicode="&#960;" /><glyph d="M196 136V277H55V405H196V546H324V405H465V277H324V136Z" glyph-name="plus" horiz-adv-x="520" unicode="+" /><glyph d="M55 128H465V0H55ZM196 166V307H55V435H196V576H324V435H465V307H324V166Z" glyph-name="plusminus" horiz-adv-x="520" unicode="&#177;" /><glyph d="M312 285H346Q355 285 355 293Q355 301 346 301H312ZM340 77Q378 77 410.5 83Q443 89 466 109H376L334 195H312V109H221V391H345Q403 391 426.5 363Q450 335 450 294Q450 269 444 250Q438 231 421 217L473 115Q492 135 502.5 167Q513 199 513 250Q513 306 500 340Q487 374 464 392.5Q441 411 409.5 417Q378 423 340 423Q302 423 270.5 417Q239 411 216 392.5Q193 374 180 340Q167 306 167 250Q167 194 180 160Q193 126 216 107.5Q239 89 270.5 83Q302 77 340 77ZM340 -16Q286 -16 236.5 -5Q187 6 150 35Q113 64 91 116Q69 168 69 250Q69 332 91 384Q113 436 150 465Q187 494 236.5 505Q286 516 340 516Q394 516 443.5 505Q493 494 530 465Q567 436 589 384Q611 332 611 250Q611 168 589 116Q567 64 530 35Q493 6 443.5 -5Q394 -16 340 -16Z" glyph-name="product" horiz-adv-x="680" unicode="&#8719;" /><glyph glyph-name="punctuationspace" horiz-adv-x="220" unicode="&#8200;" /><glyph d="M372 372Q355 379 330.5 385Q306 391 279 391Q249 391 230.5 380.5Q212 370 201.5 351Q191 332 187.5 306Q184 280 184 250Q184 220 187.5 194Q191 168 201.5 149Q212 130 230.5 119.5Q249 109 279 109Q306 109 330.5 115Q355 121 372 128ZM503 -250H372V3Q352 -5 325 -10.5Q298 -16 277 -16Q211 -16 167 1.5Q123 19 97 52.5Q71 86 60.5 135.5Q50 185 50 250Q50 314 60.5 363.5Q71 413 97 447Q123 481 167 498.5Q211 516 277 516Q306 516 341 507Q376 498 403 482L410 500H503Z" glyph-name="q" horiz-adv-x="568" unicode="q" /><glyph d="M395 250Q395 279 390.5 305Q386 331 374.5 350Q363 369 342.5 380Q322 391 290 391Q258 391 237.5 380Q217 369 205.5 350Q194 331 189.5 305Q185 279 185 250Q185 221 189.5 195Q194 169 205.5 150Q217 131 237.5 120Q258 109 290 109Q322 109 342.5 120Q363 131 374.5 150Q386 169 390.5 195Q395 221 395 250ZM525 250Q525 184 509 128.5Q493 73 456 40V39L692 0V-130L206 -5Q164 6 135 29.5Q106 53 88.5 86Q71 119 63 161Q55 203 55 250Q55 307 67 356Q79 405 107 440.5Q135 476 179.5 496Q224 516 290 516Q356 516 401 496Q446 476 473.5 440.5Q501 405 513 356Q525 307 525 250Z" glyph-name="q.smcp" horiz-adv-x="580" /><glyph d="M103 68Q103 102 126.5 126Q150 150 184 150Q218 150 242 126Q266 102 266 68Q266 34 242 10.5Q218 -13 184 -13Q150 -13 126.5 10.5Q103 34 103 68ZM237 459Q253 465 267 472Q281 479 292 489.5Q303 500 309.5 515Q316 530 316 551Q316 570 312 585.5Q308 601 295.5 612.5Q283 624 260.5 630Q238 636 201 636Q159 636 112.5 624.5Q66 613 31 601V731Q46 737 68 743Q90 749 113.5 753.5Q137 758 160 760.5Q183 763 200 763Q279 763 328 745Q377 727 404 697.5Q431 668 440 630Q449 592 449 552Q449 501 436 467.5Q423 434 399.5 411Q376 388 343 372Q310 356 269 339Q238 327 231 295.5Q224 264 227 210H125Q119 235 115.5 261.5Q112 288 112 306Q112 329 117.5 350.5Q123 372 137 391.5Q151 411 175 428Q199 445 237 459Z" glyph-name="question" horiz-adv-x="500" unicode="?" /><glyph d="M378 432Q378 398 354.5 374Q331 350 297 350Q263 350 239 374Q215 398 215 432Q215 466 239 489.5Q263 513 297 513Q331 513 354.5 489.5Q378 466 378 432ZM244 41Q228 35 214 28Q200 21 189 10.5Q178 0 171.5 -15Q165 -30 165 -51Q165 -70 169 -85.5Q173 -101 185.5 -112.5Q198 -124 220.5 -130Q243 -136 280 -136Q322 -136 368.5 -124.5Q415 -113 450 -101V-231Q435 -237 413 -243Q391 -249 367.5 -253.5Q344 -258 321 -260.5Q298 -263 281 -263Q201 -263 152.5 -245Q104 -227 77 -197.5Q50 -168 41 -130Q32 -92 32 -52Q32 -1 45 32.5Q58 66 81.5 89Q105 112 138 128Q171 144 212 161Q243 173 249 203.5Q255 234 255 288H357Q362 262 365.5 237Q369 212 369 194Q369 171 363.5 149.5Q358 128 344 108.5Q330 89 305.5 72Q281 55 244 41Z" glyph-name="questiondown" horiz-adv-x="500" unicode="&#191;" /><glyph d="M263 500 232 750H398L367 500ZM63 500 32 750H198L167 500Z" glyph-name="quotedbl" horiz-adv-x="430" unicode="&quot;" /><glyph d="M238 -160Q251 -130 260 -91Q268 -58 271.5 -12.5Q275 33 267 90H422Q420 31 404 -15Q388 -61 368 -93Q345 -131 317 -160ZM38 -160Q51 -130 60 -91Q68 -58 71.5 -12.5Q75 33 67 90H222Q220 31 204 -15Q188 -61 168 -93Q145 -131 117 -160Z" glyph-name="quotedblbase" horiz-adv-x="420" unicode="&#8222;" /><glyph d="M182 750 181 749 179 743Q177 741 177 738Q175 736 174.5 732.5Q174 729 172 724L169 715Q168 714 168 713Q168 712 167 710Q165 704 163.5 696.5Q162 689 160 681L157 667L152 637L149 611Q148 602 148 593Q148 584 148 574Q148 556 149 538Q150 520 153 500H-2Q-2 503 -1.5 505.5Q-1 508 -1 511Q-1 519 0 523V534L3 555Q5 568 8.5 580.5Q12 593 16 604Q18 611 20.5 617.5Q23 624 26 631Q43 671 62 698Q81 725 92 739Q94 741 95.5 742.5Q97 744 98 745L103 750ZM382 750Q381 749 381 748Q380 747 380 746Q380 745 379 743Q377 741 377 738L369 715Q368 714 368 713Q368 712 367 710L363 694L357 667L354 653L352 637L349 611V602Q348 595 348 588.5Q348 582 348 574V554Q348 549 348.5 543.5Q349 538 349 533L351 511L353 500H198V511Q198 514 198.5 517Q199 520 199 523Q201 543 204.5 560.5Q208 578 213 595L219 613Q221 618 222.5 622Q224 626 226 631L236 655Q251 685 266.5 706.5Q282 728 292 739L303 750Z" glyph-name="quotedblleft" horiz-adv-x="420" unicode="&#8220;" /><glyph d="M238 500Q251 530 260 569Q268 602 271.5 647.5Q275 693 267 750H422Q420 691 404 645Q388 599 368 567Q345 529 317 500ZM38 500Q51 530 60 569Q68 602 71.5 647.5Q75 693 67 750H222Q220 691 204 645Q188 599 168 567Q145 529 117 500Z" glyph-name="quotedblright" horiz-adv-x="420" unicode="&#8221;" /><glyph d="M182 750Q169 720 160 681Q152 648 148.5 602.5Q145 557 153 500H-2Q0 558 16 604.5Q32 651 52 683Q75 721 103 750Z" glyph-name="quoteleft" horiz-adv-x="220" unicode="&#8216;" /><glyph d="M38 500Q51 530 60 569Q68 602 71.5 647.5Q75 693 67 750H222Q220 691 204 645Q188 599 168 567Q145 529 117 500Z" glyph-name="quoteright" horiz-adv-x="220" unicode="&#8217;" /><glyph d="M38 -160Q51 -130 60 -91Q68 -58 71.5 -12.5Q75 33 67 90H222Q220 31 204 -15Q188 -61 168 -93Q145 -131 117 -160Z" glyph-name="quotesinglbase" horiz-adv-x="220" unicode="&#8218;" /><glyph d="M63 500 32 750H198L167 500Z" glyph-name="quotesingle" horiz-adv-x="230" unicode="&apos;" /><glyph d="M374 374Q358 381 334 386Q310 391 287 391Q258 391 235 385Q212 379 198 372V0H65V500H159L166 483Q193 499 224.5 507.5Q256 516 287 516Q323 516 345 512Q367 508 374 505Z" glyph-name="r" horiz-adv-x="414" unicode="r" /><glyph d="M336 334Q336 351 327 363Q318 375 287 375H199V292H287Q318 292 327 304Q336 316 336 334ZM273 167H199V0H70V500H291Q341 500 375.5 487Q410 474 431 451.5Q452 429 461 399Q470 369 470 334Q470 291 452.5 254Q435 217 402 194L516 0H366Z" glyph-name="r.smcp" horiz-adv-x="541" /><glyph d="M171 575 251 750H402L257 575ZM374 374Q358 381 334 386Q310 391 287 391Q258 391 235 385Q212 379 198 372V0H65V500H159L166 483Q193 499 224.5 507.5Q256 516 287 516Q323 516 345 512Q367 508 374 505Z" glyph-name="racute" horiz-adv-x="414" unicode="&#341;" /><glyph d="M207 575 287 750H438L293 575ZM336 334Q336 351 327 363Q318 375 287 375H199V292H287Q318 292 327 304Q336 316 336 334ZM273 167H199V0H70V500H291Q341 500 375.5 487Q410 474 431 451.5Q452 429 461 399Q470 369 470 334Q470 291 452.5 254Q435 217 402 194L516 0H366Z" glyph-name="racute.smcp" horiz-adv-x="541" /><glyph d="M217 367V133H443V367ZM80 500H580V0H80Z" glyph-name="radical" horiz-adv-x="660" unicode="&#8730;" /><glyph d="M393 750 268 575H162L37 750H133L215 686L297 750ZM374 374Q358 381 334 386Q310 391 287 391Q258 391 235 385Q212 379 198 372V0H65V500H159L166 483Q193 499 224.5 507.5Q256 516 287 516Q323 516 345 512Q367 508 374 505Z" glyph-name="rcaron" horiz-adv-x="414" unicode="&#345;" /><glyph d="M429 750 304 575H198L73 750H169L251 686L333 750ZM336 334Q336 351 327 363Q318 375 287 375H199V292H287Q318 292 327 304Q336 316 336 334ZM273 167H199V0H70V500H291Q341 500 375.5 487Q410 474 431 451.5Q452 429 461 399Q470 369 470 334Q470 291 452.5 254Q435 217 402 194L516 0H366Z" glyph-name="rcaron.smcp" horiz-adv-x="541" /><glyph d="M70 -250 83 -192Q51 -168 51 -127Q51 -93 74.5 -69Q98 -45 132 -45Q166 -45 190 -69Q214 -93 214 -127Q214 -138 211 -148Q208 -158 204 -166L165 -250ZM374 374Q358 381 334 386Q310 391 287 391Q258 391 235 385Q212 379 198 372V0H65V500H159L166 483Q193 499 224.5 507.5Q256 516 287 516Q323 516 345 512Q367 508 374 505Z" glyph-name="rcommaaccent" horiz-adv-x="414" unicode="&#343;" /><glyph d="M218 -250 231 -192Q199 -168 199 -127Q199 -93 222.5 -69Q246 -45 280 -45Q314 -45 338 -69Q362 -93 362 -127Q362 -138 359 -148Q356 -158 352 -166L313 -250ZM336 334Q336 351 327 363Q318 375 287 375H199V292H287Q318 292 327 304Q336 316 336 334ZM273 167H199V0H70V500H291Q341 500 375.5 487Q410 474 431 451.5Q452 429 461 399Q470 369 470 334Q470 291 452.5 254Q435 217 402 194L516 0H366Z" glyph-name="rcommaaccent.smcp" horiz-adv-x="541" /><glyph d="M189 653Q189 658 187 660.5Q185 663 177 663H151V639H177Q185 639 187 642.5Q189 646 189 653ZM151 598V546H110V704H179Q211 704 222.5 689.5Q234 675 234 653Q234 621 215 608L243 546H196L175 598ZM172 723Q151 723 133 719.5Q115 716 102.5 705.5Q90 695 82.5 676Q75 657 75 625Q75 593 82.5 574Q90 555 102.5 544.5Q115 534 133 530.5Q151 527 172 527Q193 527 211 530.5Q229 534 241.5 544.5Q254 555 261.5 574Q269 593 269 625Q269 657 261.5 676Q254 695 241.5 705.5Q229 716 211 719.5Q193 723 172 723ZM172 766Q200 766 226 760.5Q252 755 271.5 739Q291 723 303 695.5Q315 668 315 625Q315 582 303 554.5Q291 527 271.5 511.5Q252 496 226 490Q200 484 172 484Q144 484 118 490Q92 496 72.5 511.5Q53 527 41 554.5Q29 582 29 625Q29 668 41 695.5Q53 723 72.5 739Q92 755 118 760.5Q144 766 172 766Z" glyph-name="registered" horiz-adv-x="344" unicode="&#174;" /><glyph d="M306 662Q306 683 296.5 691Q287 699 270 699Q252 699 243 691Q234 683 234 662Q234 642 243 634.5Q252 627 270 627Q287 627 296.5 634.5Q306 642 306 662ZM374 662Q374 608 345.5 583.5Q317 559 270 559Q222 559 193.5 583.5Q165 608 165 662Q165 716 193.5 741Q222 766 270 766Q317 766 345.5 741Q374 716 374 662Z" glyph-name="ring" horiz-adv-x="540" unicode="&#730;" /><glyph d="M184 348Q184 337 196.5 329.5Q209 322 252 318Q308 313 343.5 300.5Q379 288 399.5 268Q420 248 427.5 220.5Q435 193 435 158Q435 126 424.5 95Q414 64 389.5 39.5Q365 15 325 -0.5Q285 -16 225 -16Q207 -16 185 -13.5Q163 -11 140.5 -6.5Q118 -2 97 3.5Q76 9 60 15V145Q95 132 139.5 120.5Q184 109 226 109Q272 109 288.5 124Q305 139 305 156Q305 171 292 181.5Q279 192 238 196Q183 201 147.5 214.5Q112 228 91.5 247.5Q71 267 63 292.5Q55 318 55 347Q55 376 65 406Q75 436 98 460.5Q121 485 158.5 500.5Q196 516 252 516Q287 516 327.5 509.5Q368 503 413 483V357Q371 371 331.5 381Q292 391 252 391Q210 391 197 378Q184 365 184 348Z" glyph-name="s" horiz-adv-x="490" unicode="s" /><glyph d="M178 350Q178 333 197.5 327.5Q217 322 262 318Q317 313 354.5 302Q392 291 415.5 272Q439 253 449.5 225Q460 197 460 157Q460 122 448.5 90.5Q437 59 410.5 35.5Q384 12 341.5 -2Q299 -16 236 -16Q218 -16 194 -14.5Q170 -13 145 -9.5Q120 -6 97.5 -0.5Q75 5 59 12V139Q77 131 98.5 125.5Q120 120 143.5 116.5Q167 113 191 111Q215 109 237 109Q289 109 309.5 121.5Q330 134 330 156Q330 173 312.5 182Q295 191 250 196Q196 201 158 210.5Q120 220 96 237Q72 254 61 280Q50 306 50 343Q50 380 61.5 412Q73 444 98.5 467Q124 490 164.5 503Q205 516 264 516Q300 516 347 511Q394 506 438 486V363Q395 380 351 385.5Q307 391 263 391Q215 391 196.5 379.5Q178 368 178 350Z" glyph-name="s.smcp" horiz-adv-x="510" /><glyph d="M201 575 281 750H432L287 575ZM184 348Q184 337 196.5 329.5Q209 322 252 318Q308 313 343.5 300.5Q379 288 399.5 268Q420 248 427.5 220.5Q435 193 435 158Q435 126 424.5 95Q414 64 389.5 39.5Q365 15 325 -0.5Q285 -16 225 -16Q207 -16 185 -13.5Q163 -11 140.5 -6.5Q118 -2 97 3.5Q76 9 60 15V145Q95 132 139.5 120.5Q184 109 226 109Q272 109 288.5 124Q305 139 305 156Q305 171 292 181.5Q279 192 238 196Q183 201 147.5 214.5Q112 228 91.5 247.5Q71 267 63 292.5Q55 318 55 347Q55 376 65 406Q75 436 98 460.5Q121 485 158.5 500.5Q196 516 252 516Q287 516 327.5 509.5Q368 503 413 483V357Q371 371 331.5 381Q292 391 252 391Q210 391 197 378Q184 365 184 348Z" glyph-name="sacute" horiz-adv-x="490" unicode="&#347;" /><glyph d="M212 575 292 750H443L298 575ZM178 350Q178 333 197.5 327.5Q217 322 262 318Q317 313 354.5 302Q392 291 415.5 272Q439 253 449.5 225Q460 197 460 157Q460 122 448.5 90.5Q437 59 410.5 35.5Q384 12 341.5 -2Q299 -16 236 -16Q218 -16 194 -14.5Q170 -13 145 -9.5Q120 -6 97.5 -0.5Q75 5 59 12V139Q77 131 98.5 125.5Q120 120 143.5 116.5Q167 113 191 111Q215 109 237 109Q289 109 309.5 121.5Q330 134 330 156Q330 173 312.5 182Q295 191 250 196Q196 201 158 210.5Q120 220 96 237Q72 254 61 280Q50 306 50 343Q50 380 61.5 412Q73 444 98.5 467Q124 490 164.5 503Q205 516 264 516Q300 516 347 511Q394 506 438 486V363Q395 380 351 385.5Q307 391 263 391Q215 391 196.5 379.5Q178 368 178 350Z" glyph-name="sacute.smcp" horiz-adv-x="510" /><glyph d="M423 750 298 575H192L67 750H163L245 686L327 750ZM184 348Q184 337 196.5 329.5Q209 322 252 318Q308 313 343.5 300.5Q379 288 399.5 268Q420 248 427.5 220.5Q435 193 435 158Q435 126 424.5 95Q414 64 389.5 39.5Q365 15 325 -0.5Q285 -16 225 -16Q207 -16 185 -13.5Q163 -11 140.5 -6.5Q118 -2 97 3.5Q76 9 60 15V145Q95 132 139.5 120.5Q184 109 226 109Q272 109 288.5 124Q305 139 305 156Q305 171 292 181.5Q279 192 238 196Q183 201 147.5 214.5Q112 228 91.5 247.5Q71 267 63 292.5Q55 318 55 347Q55 376 65 406Q75 436 98 460.5Q121 485 158.5 500.5Q196 516 252 516Q287 516 327.5 509.5Q368 503 413 483V357Q371 371 331.5 381Q292 391 252 391Q210 391 197 378Q184 365 184 348Z" glyph-name="scaron" horiz-adv-x="490" unicode="&#353;" /><glyph d="M434 750 309 575H203L78 750H174L256 686L338 750ZM178 350Q178 333 197.5 327.5Q217 322 262 318Q317 313 354.5 302Q392 291 415.5 272Q439 253 449.5 225Q460 197 460 157Q460 122 448.5 90.5Q437 59 410.5 35.5Q384 12 341.5 -2Q299 -16 236 -16Q218 -16 194 -14.5Q170 -13 145 -9.5Q120 -6 97.5 -0.5Q75 5 59 12V139Q77 131 98.5 125.5Q120 120 143.5 116.5Q167 113 191 111Q215 109 237 109Q289 109 309.5 121.5Q330 134 330 156Q330 173 312.5 182Q295 191 250 196Q196 201 158 210.5Q120 220 96 237Q72 254 61 280Q50 306 50 343Q50 380 61.5 412Q73 444 98.5 467Q124 490 164.5 503Q205 516 264 516Q300 516 347 511Q394 506 438 486V363Q395 380 351 385.5Q307 391 263 391Q215 391 196.5 379.5Q178 368 178 350Z" glyph-name="scaron.smcp" horiz-adv-x="510" /><glyph d="M158 -185Q168 -176 177 -165Q186 -154 190.5 -142.5Q195 -131 193.5 -121.5Q192 -112 182 -106Q165 -97 159 -84.5Q153 -72 153.5 -59.5Q154 -47 160 -34.5Q166 -22 173 -12Q143 -7 112 0Q81 7 60 15V145Q95 132 139.5 120.5Q184 109 226 109Q272 109 288.5 124Q305 139 305 156Q305 171 292 181.5Q279 192 238 196Q183 201 147.5 214.5Q112 228 91.5 247.5Q71 267 63 292.5Q55 318 55 347Q55 376 65 406Q75 436 98 460.5Q121 485 158.5 500.5Q196 516 252 516Q287 516 327.5 509.5Q368 503 413 483V357Q371 371 331.5 381Q292 391 252 391Q210 391 197 378Q184 365 184 348Q184 337 196.5 329.5Q209 322 252 318Q308 313 343.5 300.5Q379 288 399.5 268Q420 248 427.5 220.5Q435 193 435 158Q435 129 426.5 100.5Q418 72 397.5 48.5Q377 25 344 8Q311 -9 263 -14Q254 -28 253.5 -43Q253 -58 275 -71Q300 -85 307 -101Q314 -117 311 -133Q308 -149 298.5 -162.5Q289 -176 280 -185Z" glyph-name="scedilla" horiz-adv-x="490" unicode="&#351;" /><glyph d="M179 -185Q189 -176 198 -165Q207 -154 211.5 -142.5Q216 -131 214.5 -121.5Q213 -112 203 -106Q186 -97 180 -85.5Q174 -74 174.5 -61.5Q175 -49 180.5 -36.5Q186 -24 193 -14Q158 -12 120 -5.5Q82 1 59 12V139Q77 131 98.5 125.5Q120 120 143.5 116.5Q167 113 191 111Q215 109 237 109Q289 109 309.5 121.5Q330 134 330 156Q330 173 312.5 182Q295 191 250 196Q196 201 158 210.5Q120 220 96 237Q72 254 61 280Q50 306 50 343Q50 380 61.5 412Q73 444 98.5 467Q124 490 164.5 503Q205 516 264 516Q300 516 347 511Q394 506 438 486V363Q395 380 351 385.5Q307 391 263 391Q215 391 196.5 379.5Q178 368 178 350Q178 333 197.5 327.5Q217 322 262 318Q317 313 354.5 302Q392 291 415.5 272Q439 253 449.5 225Q460 197 460 157Q460 125 451 96.5Q442 68 421 45.5Q400 23 366.5 7.5Q333 -8 285 -13Q275 -28 274.5 -43Q274 -58 296 -71Q321 -85 328 -101Q335 -117 332 -133Q329 -149 319.5 -162.5Q310 -176 301 -185Z" glyph-name="scedilla.smcp" horiz-adv-x="510" /><glyph d="M327 575 245 639 163 575H67L192 750H298L423 575ZM184 348Q184 337 196.5 329.5Q209 322 252 318Q308 313 343.5 300.5Q379 288 399.5 268Q420 248 427.5 220.5Q435 193 435 158Q435 126 424.5 95Q414 64 389.5 39.5Q365 15 325 -0.5Q285 -16 225 -16Q207 -16 185 -13.5Q163 -11 140.5 -6.5Q118 -2 97 3.5Q76 9 60 15V145Q95 132 139.5 120.5Q184 109 226 109Q272 109 288.5 124Q305 139 305 156Q305 171 292 181.5Q279 192 238 196Q183 201 147.5 214.5Q112 228 91.5 247.5Q71 267 63 292.5Q55 318 55 347Q55 376 65 406Q75 436 98 460.5Q121 485 158.5 500.5Q196 516 252 516Q287 516 327.5 509.5Q368 503 413 483V357Q371 371 331.5 381Q292 391 252 391Q210 391 197 378Q184 365 184 348Z" glyph-name="scircumflex" horiz-adv-x="490" unicode="&#349;" /><glyph d="M338 575 256 639 174 575H78L203 750H309L434 575ZM178 350Q178 333 197.5 327.5Q217 322 262 318Q317 313 354.5 302Q392 291 415.5 272Q439 253 449.5 225Q460 197 460 157Q460 122 448.5 90.5Q437 59 410.5 35.5Q384 12 341.5 -2Q299 -16 236 -16Q218 -16 194 -14.5Q170 -13 145 -9.5Q120 -6 97.5 -0.5Q75 5 59 12V139Q77 131 98.5 125.5Q120 120 143.5 116.5Q167 113 191 111Q215 109 237 109Q289 109 309.5 121.5Q330 134 330 156Q330 173 312.5 182Q295 191 250 196Q196 201 158 210.5Q120 220 96 237Q72 254 61 280Q50 306 50 343Q50 380 61.5 412Q73 444 98.5 467Q124 490 164.5 503Q205 516 264 516Q300 516 347 511Q394 506 438 486V363Q395 380 351 385.5Q307 391 263 391Q215 391 196.5 379.5Q178 368 178 350Z" glyph-name="scircumflex.smcp" horiz-adv-x="510" /><glyph d="M162 -250 175 -192Q143 -168 143 -127Q143 -93 166.5 -69Q190 -45 224 -45Q258 -45 282 -69Q306 -93 306 -127Q306 -138 303 -148Q300 -158 296 -166L257 -250ZM184 348Q184 337 196.5 329.5Q209 322 252 318Q308 313 343.5 300.5Q379 288 399.5 268Q420 248 427.5 220.5Q435 193 435 158Q435 126 424.5 95Q414 64 389.5 39.5Q365 15 325 -0.5Q285 -16 225 -16Q207 -16 185 -13.5Q163 -11 140.5 -6.5Q118 -2 97 3.5Q76 9 60 15V145Q95 132 139.5 120.5Q184 109 226 109Q272 109 288.5 124Q305 139 305 156Q305 171 292 181.5Q279 192 238 196Q183 201 147.5 214.5Q112 228 91.5 247.5Q71 267 63 292.5Q55 318 55 347Q55 376 65 406Q75 436 98 460.5Q121 485 158.5 500.5Q196 516 252 516Q287 516 327.5 509.5Q368 503 413 483V357Q371 371 331.5 381Q292 391 252 391Q210 391 197 378Q184 365 184 348Z" glyph-name="scommaaccent" horiz-adv-x="490" unicode="&#537;" /><glyph d="M183 -250 196 -192Q164 -168 164 -127Q164 -93 187.5 -69Q211 -45 245 -45Q279 -45 303 -69Q327 -93 327 -127Q327 -138 324 -148Q321 -158 317 -166L278 -250ZM178 350Q178 333 197.5 327.5Q217 322 262 318Q317 313 354.5 302Q392 291 415.5 272Q439 253 449.5 225Q460 197 460 157Q460 122 448.5 90.5Q437 59 410.5 35.5Q384 12 341.5 -2Q299 -16 236 -16Q218 -16 194 -14.5Q170 -13 145 -9.5Q120 -6 97.5 -0.5Q75 5 59 12V139Q77 131 98.5 125.5Q120 120 143.5 116.5Q167 113 191 111Q215 109 237 109Q289 109 309.5 121.5Q330 134 330 156Q330 173 312.5 182Q295 191 250 196Q196 201 158 210.5Q120 220 96 237Q72 254 61 280Q50 306 50 343Q50 380 61.5 412Q73 444 98.5 467Q124 490 164.5 503Q205 516 264 516Q300 516 347 511Q394 506 438 486V363Q395 380 351 385.5Q307 391 263 391Q215 391 196.5 379.5Q178 368 178 350Z" glyph-name="scommaaccent.smcp" horiz-adv-x="510" /><glyph d="M315 187Q359 179 394.5 170.5Q430 162 459 151Q508 181 508 230Q508 252 500 266Q492 280 476.5 288.5Q461 297 438 302.5Q415 308 385 313Q340 321 305 329.5Q270 338 241 349Q192 317 192 270Q192 248 200 234Q208 220 223.5 211.5Q239 203 262 197.5Q285 192 315 187ZM408 448Q480 437 527 421.5Q574 406 601.5 381Q629 356 640.5 319.5Q652 283 652 229Q652 185 633 137Q614 89 564 51Q576 15 576 -37Q576 -73 565 -113Q554 -153 523.5 -187Q493 -221 439 -243.5Q385 -266 299 -266Q231 -266 175.5 -254.5Q120 -243 78 -225V-78Q114 -95 144 -105Q174 -115 200.5 -120.5Q227 -126 251 -128Q275 -130 300 -130Q340 -130 366 -123Q392 -116 407 -103Q422 -90 427.5 -73Q433 -56 433 -36Q433 -13 424 2Q415 17 397 26Q379 35 352.5 41Q326 47 292 52Q220 63 173 78.5Q126 94 98.5 119Q71 144 59.5 180.5Q48 217 48 271Q48 314 67 362Q86 410 136 449Q124 485 124 537Q124 573 135 613Q146 653 176.5 687Q207 721 261 743.5Q315 766 401 766Q469 766 524.5 754.5Q580 743 622 725V578Q586 594 556 604.5Q526 615 499.5 620.5Q473 626 449 628Q425 630 400 630Q359 630 333.5 623Q308 616 293 603Q278 590 272.5 573Q267 556 267 536Q267 513 276 498Q285 483 303 474Q321 465 347 459Q373 453 408 448Z" glyph-name="section" horiz-adv-x="700" unicode="&#167;" /><glyph d="M29 375Q29 409 52.5 433Q76 457 110 457Q144 457 168 433Q192 409 192 375Q192 341 168 317.5Q144 294 110 294Q76 294 52.5 317.5Q29 341 29 375ZM36 -114 61 0Q29 24 29 65Q29 99 52.5 123Q76 147 110 147Q144 147 168 123Q192 99 192 65Q192 54 189 44Q186 34 182 26L117 -114Z" glyph-name="semicolon" horiz-adv-x="220" unicode=";" /><glyph d="M124 0 412 625H40V750H559V664L270 0Z" glyph-name="seven" horiz-adv-x="600" unicode="7" /><glyph d="M124 0 412 625H40V750H559V664L270 0Z" glyph-name="seven.LP" horiz-adv-x="600" /><glyph d="M33 -250 301 375H17V500H448V414L179 -250Z" glyph-name="seven.OP" horiz-adv-x="465" /><glyph d="M197 228Q197 208 201 187Q205 166 217 148.5Q229 131 250.5 120Q272 109 307 109Q340 109 359.5 121.5Q379 134 389.5 152Q400 170 403.5 190.5Q407 211 407 228Q407 245 404.5 265.5Q402 286 392 304Q382 322 362 334.5Q342 347 307 347Q272 347 250.5 335.5Q229 324 217 306Q205 288 201 267Q197 246 197 228ZM520 607Q489 619 440 629Q391 639 331 639Q294 639 268 622Q242 605 225.5 577Q209 549 201 513Q193 477 193 439Q213 453 241.5 463Q270 473 307 473Q386 473 432 449Q478 425 502 388.5Q526 352 532.5 309Q539 266 539 228Q539 190 531 147Q523 104 498 68Q473 32 427.5 8Q382 -16 307 -16Q226 -16 177 8.5Q128 33 102.5 78Q77 123 69 186.5Q61 250 61 327Q61 414 71.5 493.5Q82 573 111.5 633.5Q141 694 193.5 730Q246 766 331 766Q388 766 435.5 759.5Q483 753 520 742Z" glyph-name="six" horiz-adv-x="600" unicode="6" /><glyph d="M197 228Q197 208 201 187Q205 166 217 148.5Q229 131 250.5 120Q272 109 307 109Q340 109 359.5 121.5Q379 134 389.5 152Q400 170 403.5 190.5Q407 211 407 228Q407 245 404.5 265.5Q402 286 392 304Q382 322 362 334.5Q342 347 307 347Q272 347 250.5 335.5Q229 324 217 306Q205 288 201 267Q197 246 197 228ZM520 607Q489 619 440 629Q391 639 331 639Q294 639 268 622Q242 605 225.5 577Q209 549 201 513Q193 477 193 439Q213 453 241.5 463Q270 473 307 473Q386 473 432 449Q478 425 502 388.5Q526 352 532.5 309Q539 266 539 228Q539 190 531 147Q523 104 498 68Q473 32 427.5 8Q382 -16 307 -16Q226 -16 177 8.5Q128 33 102.5 78Q77 123 69 186.5Q61 250 61 327Q61 414 71.5 493.5Q82 573 111.5 633.5Q141 694 193.5 730Q246 766 331 766Q388 766 435.5 759.5Q483 753 520 742Z" glyph-name="six.LP" horiz-adv-x="600" /><glyph d="M197 228Q197 208 201 187Q205 166 217 148.5Q229 131 250.5 120Q272 109 307 109Q340 109 359.5 121.5Q379 134 389.5 152Q400 170 403.5 190.5Q407 211 407 228Q407 245 404.5 265.5Q402 286 392 304Q382 322 362 334.5Q342 347 307 347Q272 347 250.5 335.5Q229 324 217 306Q205 288 201 267Q197 246 197 228ZM520 607Q489 619 440 629Q391 639 331 639Q294 639 268 622Q242 605 225.5 577Q209 549 201 513Q193 477 193 439Q213 453 241.5 463Q270 473 307 473Q386 473 432 449Q478 425 502 388.5Q526 352 532.5 309Q539 266 539 228Q539 190 531 147Q523 104 498 68Q473 32 427.5 8Q382 -16 307 -16Q226 -16 177 8.5Q128 33 102.5 78Q77 123 69 186.5Q61 250 61 327Q61 414 71.5 493.5Q82 573 111.5 633.5Q141 694 193.5 730Q246 766 331 766Q388 766 435.5 759.5Q483 753 520 742Z" glyph-name="six.OP" horiz-adv-x="600" /><glyph glyph-name="sixperemspace" horiz-adv-x="167" unicode="&#8198;" /><glyph d="M0 -206 351 816H498L147 -206Z" glyph-name="slash" horiz-adv-x="498" unicode="/" /><glyph glyph-name="space" horiz-adv-x="200" unicode=" " /><glyph d="M249 454H478V330H249V125H556V0H45V125H116V330H45V454H116V564Q116 609 128.5 646.5Q141 684 169 710.5Q197 737 240.5 751.5Q284 766 346 766Q363 766 387 764Q411 762 437.5 758Q464 754 490 747.5Q516 741 538 731V606Q519 614 494.5 620Q470 626 443.5 630.5Q417 635 391.5 637.5Q366 640 346 640Q295 640 272 618Q249 596 249 561Z" glyph-name="sterling" horiz-adv-x="600" unicode="&#163;" /><glyph d="M229 319H418V195H229V125H496V0H35V125H96V195H35V319H96V334Q96 374 106 407.5Q116 441 140.5 465Q165 489 205.5 502.5Q246 516 306 516Q341 516 387.5 510Q434 504 478 484V359Q440 375 393.5 382.5Q347 390 306 390Q263 390 246 377Q229 364 229 335Z" glyph-name="sterling.OP" horiz-adv-x="561" /><glyph d="M64 375Q64 456 94.5 527Q125 598 178.5 651.5Q232 705 303 735.5Q374 766 455 766Q536 766 607 735.5Q678 705 731.5 651.5Q785 598 815.5 527Q846 456 846 375Q846 294 815.5 223Q785 152 731.5 98.5Q678 45 607 14.5Q536 -16 455 -16Q374 -16 303 14.5Q232 45 178.5 98.5Q125 152 94.5 223Q64 294 64 375Z" glyph-name="summation" horiz-adv-x="910" unicode="&#8721;" /><glyph d="M366 -7Q334 -15 314.5 -15.5Q295 -16 289 -16Q257 -16 226 -7.5Q195 1 171 19.5Q147 38 132 66Q117 94 117 133V381H30V471L117 496V613L248 649V500H386V381H248V140Q248 122 261 115.5Q274 109 296 109Q309 109 330.5 111Q352 113 366 115Z" glyph-name="t" horiz-adv-x="425" unicode="t" /><glyph d="M312 375V0H179V375H35V500H456V375Z" glyph-name="t.smcp" horiz-adv-x="491" /><glyph d="M366 -7Q334 -15 314.5 -15.5Q295 -16 289 -16Q257 -16 226 -7.5Q195 1 171 19.5Q147 38 132 66Q117 94 117 133V211H37V320H117V381H30V471L117 496V613L248 649V500H386V381H248V320H366V211H248V140Q248 122 261 115.5Q274 109 296 109Q309 109 330.5 111Q352 113 366 115Z" glyph-name="tbar" horiz-adv-x="425" unicode="&#359;" /><glyph d="M312 375V279H428V164H312V0H179V164H63V279H179V375H35V500H456V375Z" glyph-name="tbar.smcp" horiz-adv-x="491" /><glyph d="M402 750 354 550H288L304 750ZM366 -7Q334 -15 314.5 -15.5Q295 -16 289 -16Q257 -16 226 -7.5Q195 1 171 19.5Q147 38 132 66Q117 94 117 133V381H30V471L117 496V613L248 649V500H386V381H248V140Q248 122 261 115.5Q274 109 296 109Q309 109 330.5 111Q352 113 366 115Z" glyph-name="tcaron" horiz-adv-x="425" unicode="&#357;" /><glyph d="M424 750 299 575H193L68 750H164L246 686L328 750ZM312 375V0H179V375H35V500H456V375Z" glyph-name="tcaron.smcp" horiz-adv-x="491" /><glyph d="M174 -250 187 -192Q155 -168 155 -127Q155 -93 178.5 -69Q202 -45 236 -45Q270 -45 294 -69Q318 -93 318 -127Q318 -138 315 -148Q312 -158 308 -166L269 -250ZM366 -7Q334 -15 314.5 -15.5Q295 -16 289 -16Q257 -16 226 -7.5Q195 1 171 19.5Q147 38 132 66Q117 94 117 133V381H30V471L117 496V613L248 649V500H386V381H248V140Q248 122 261 115.5Q274 109 296 109Q309 109 330.5 111Q352 113 366 115Z" glyph-name="tcommaaccent" horiz-adv-x="425" unicode="&#355;" /><glyph d="M183 -250 196 -192Q164 -168 164 -127Q164 -93 187.5 -69Q211 -45 245 -45Q279 -45 303 -69Q327 -93 327 -127Q327 -138 324 -148Q321 -158 317 -166L278 -250ZM312 375V0H179V375H35V500H456V375Z" glyph-name="tcommaaccent.smcp" horiz-adv-x="491" /><glyph glyph-name="thinspace" horiz-adv-x="100" unicode="&#8201;" /><glyph d="M196 128Q213 121 237.5 115Q262 109 289 109Q319 109 337.5 119.5Q356 130 366.5 149Q377 168 380.5 194Q384 220 384 250Q384 280 380.5 306Q377 332 366.5 351Q356 370 337.5 380.5Q319 391 289 391Q262 391 237.5 385Q213 379 196 372ZM196 750V497Q245 516 291 516Q357 516 401 498.5Q445 481 471 447Q497 413 507.5 363.5Q518 314 518 250Q518 185 507.5 135.5Q497 86 471 52.5Q445 19 401 1.5Q357 -16 291 -16Q270 -16 243 -10.5Q216 -5 196 3V-250H65V750Z" glyph-name="thorn" horiz-adv-x="568" unicode="&#254;" /><glyph d="M327 251Q327 270 320 285.5Q313 301 284 301H199V200H284Q313 200 320 216Q327 232 327 251ZM199 75V0H70V500H199V426H281Q331 426 365.5 412Q400 398 421 374Q442 350 451.5 318Q461 286 461 251Q461 216 451.5 184Q442 152 421 128Q400 104 365.5 89.5Q331 75 281 75Z" glyph-name="thorn.smcp" horiz-adv-x="491" /><glyph d="M258 637Q238 637 211 634.5Q184 632 155.5 627.5Q127 623 99.5 616.5Q72 610 51 602V739Q69 746 96.5 751Q124 756 153.5 759.5Q183 763 210.5 764.5Q238 766 258 766Q336 766 387 748Q438 730 468.5 699.5Q499 669 511 629Q523 589 523 545Q523 509 509 467.5Q495 426 468 398Q488 383 502.5 363Q517 343 526.5 320Q536 297 540.5 272.5Q545 248 545 224Q545 177 531 134Q517 91 484.5 57.5Q452 24 398 4Q344 -16 265 -16Q236 -16 205.5 -14Q175 -12 146.5 -7.5Q118 -3 93.5 3Q69 9 51 18V150Q71 142 97.5 135.5Q124 129 152.5 124Q181 119 210 116Q239 113 265 113Q306 113 333 122.5Q360 132 376.5 148Q393 164 399.5 184Q406 204 406 224Q406 273 381.5 297.5Q357 322 289 322H152V454H289Q319 454 337.5 462.5Q356 471 366.5 484Q377 497 380.5 513.5Q384 530 384 545Q384 563 378.5 579.5Q373 596 358.5 608.5Q344 621 319.5 629Q295 637 258 637Z" glyph-name="three" horiz-adv-x="600" unicode="3" /><glyph d="M258 637Q238 637 211 634.5Q184 632 155.5 627.5Q127 623 99.5 616.5Q72 610 51 602V739Q69 746 96.5 751Q124 756 153.5 759.5Q183 763 210.5 764.5Q238 766 258 766Q336 766 387 748Q438 730 468.5 699.5Q499 669 511 629Q523 589 523 545Q523 509 509 467.5Q495 426 468 398Q488 383 502.5 363Q517 343 526.5 320Q536 297 540.5 272.5Q545 248 545 224Q545 177 531 134Q517 91 484.5 57.5Q452 24 398 4Q344 -16 265 -16Q236 -16 205.5 -14Q175 -12 146.5 -7.5Q118 -3 93.5 3Q69 9 51 18V150Q71 142 97.5 135.5Q124 129 152.5 124Q181 119 210 116Q239 113 265 113Q306 113 333 122.5Q360 132 376.5 148Q393 164 399.5 184Q406 204 406 224Q406 273 381.5 297.5Q357 322 289 322H152V454H289Q319 454 337.5 462.5Q356 471 366.5 484Q377 497 380.5 513.5Q384 530 384 545Q384 563 378.5 579.5Q373 596 358.5 608.5Q344 621 319.5 629Q295 637 258 637Z" glyph-name="three.LP" horiz-adv-x="600" /><glyph d="M228 387Q192 387 143 378Q94 369 51 352V489Q69 496 92.5 501Q116 506 140 509.5Q164 513 187 514.5Q210 516 228 516Q297 516 344 498Q391 480 419.5 449.5Q448 419 460.5 379Q473 339 473 295Q473 259 459 217.5Q445 176 418 148Q438 133 452.5 113Q467 93 476.5 70Q486 47 490.5 22.5Q495 -2 495 -26Q495 -73 481.5 -116Q468 -159 437.5 -192.5Q407 -226 357.5 -246Q308 -266 235 -266Q181 -266 133.5 -257.5Q86 -249 51 -232V-100Q91 -115 139.5 -126Q188 -137 235 -137Q272 -137 296 -127.5Q320 -118 333 -102Q346 -86 351 -66Q356 -46 356 -26Q356 23 329.5 47.5Q303 72 240 72H127V204H240Q267 204 285.5 212.5Q304 221 314.5 234Q325 247 329.5 263.5Q334 280 334 295Q334 313 330 329.5Q326 346 314 358.5Q302 371 281.5 379Q261 387 228 387Z" glyph-name="three.OP" horiz-adv-x="550" /><glyph glyph-name="threeperemspace" horiz-adv-x="333" unicode="&#8196;" /><glyph d="M709 277H41V405H709Z" glyph-name="threequarteremdash" horiz-adv-x="750" /><glyph d="M478 734Q472 645 440 605.5Q408 566 338 568Q307 569 288 580.5Q269 592 255.5 605Q242 618 230.5 628.5Q219 639 204 639Q181 639 173 621.5Q165 604 163 579L61 592Q67 681 99 720.5Q131 760 201 758Q232 757 251 745.5Q270 734 283.5 721Q297 708 308.5 697.5Q320 687 335 687Q358 687 366 704.5Q374 722 376 747Z" glyph-name="tilde" horiz-adv-x="540" unicode="&#732;" /><glyph d="M164 684V500H92V684H25V750H230V684ZM390 520 326 648 328 500H260V750H339L410 614L481 750H560V500H492L494 648L430 520Z" glyph-name="trademark" horiz-adv-x="605" unicode="&#8482;" /><glyph d="M398 554Q398 572 394 587.5Q390 603 378 615Q366 627 344.5 634Q323 641 289 641Q268 641 247 639Q226 637 203 631.5Q180 626 152 617Q124 608 90 593V725Q129 742 178.5 754Q228 766 288 766Q368 766 416.5 745Q465 724 490.5 692.5Q516 661 524 624Q532 587 532 554Q532 503 508.5 457.5Q485 412 441 364L228 128H541V0H49V90L367 481Q384 501 391 517.5Q398 534 398 554Z" glyph-name="two" horiz-adv-x="600" unicode="2" /><glyph d="M398 554Q398 572 394 587.5Q390 603 378 615Q366 627 344.5 634Q323 641 289 641Q268 641 247 639Q226 637 203 631.5Q180 626 152 617Q124 608 90 593V725Q129 742 178.5 754Q228 766 288 766Q368 766 416.5 745Q465 724 490.5 692.5Q516 661 524 624Q532 587 532 554Q532 503 508.5 457.5Q485 412 441 364L228 128H541V0H49V90L367 481Q384 501 391 517.5Q398 534 398 554Z" glyph-name="two.LP" horiz-adv-x="600" /><glyph d="M51 0V98L291 281Q315 300 323 313.5Q331 327 331 342Q331 370 311 380.5Q291 391 253 391Q205 391 155.5 379Q106 367 75 350V483Q85 490 105 496Q125 502 150 506.5Q175 511 200.5 513.5Q226 516 247 516Q310 516 352 504.5Q394 493 419 471Q444 449 454.5 418.5Q465 388 465 350Q465 306 445 273.5Q425 241 393.5 214.5Q362 188 324 167Q286 146 250 125H469V0Z" glyph-name="two.OP" horiz-adv-x="520" /><glyph d="M193 170Q193 143 209 126Q225 109 260 109Q276 109 292 111.5Q308 114 322.5 117.5Q337 121 347.5 125Q358 129 364 131V500H497V0H404L396 16Q384 11 367.5 5Q351 -1 332.5 -5.5Q314 -10 295 -13Q276 -16 260 -16Q204 -16 165.5 -3.5Q127 9 103.5 32.5Q80 56 70 90.5Q60 125 60 170V500H193Z" glyph-name="u" horiz-adv-x="562" unicode="u" /><glyph d="M287 -16Q229 -16 187 -3Q145 10 118 34Q91 58 78 92.5Q65 127 65 170V500H198V170Q198 137 222 123Q246 109 287 109Q328 109 352 123Q376 137 376 170V500H509V170Q509 84 455.5 34Q402 -16 287 -16Z" glyph-name="u.smcp" horiz-adv-x="574" /><glyph d="M235 575 315 750H466L321 575ZM193 170Q193 143 209 126Q225 109 260 109Q276 109 292 111.5Q308 114 322.5 117.5Q337 121 347.5 125Q358 129 364 131V500H497V0H404L396 16Q384 11 367.5 5Q351 -1 332.5 -5.5Q314 -10 295 -13Q276 -16 260 -16Q204 -16 165.5 -3.5Q127 9 103.5 32.5Q80 56 70 90.5Q60 125 60 170V500H193Z" glyph-name="uacute" horiz-adv-x="562" unicode="&#250;" /><glyph d="M243 575 323 750H474L329 575ZM287 -16Q229 -16 187 -3Q145 10 118 34Q91 58 78 92.5Q65 127 65 170V500H198V170Q198 137 222 123Q246 109 287 109Q328 109 352 123Q376 137 376 170V500H509V170Q509 84 455.5 34Q402 -16 287 -16Z" glyph-name="uacute.smcp" horiz-adv-x="574" /><glyph d="M281 559Q191 559 153 608Q115 657 113 750H215Q216 723 221.5 707Q227 691 236 682.5Q245 674 256.5 671Q268 668 281 668Q294 668 305.5 671Q317 674 326 682.5Q335 691 340.5 707Q346 723 347 750H449Q447 657 409 608Q371 559 281 559ZM193 170Q193 143 209 126Q225 109 260 109Q276 109 292 111.5Q308 114 322.5 117.5Q337 121 347.5 125Q358 129 364 131V500H497V0H404L396 16Q384 11 367.5 5Q351 -1 332.5 -5.5Q314 -10 295 -13Q276 -16 260 -16Q204 -16 165.5 -3.5Q127 9 103.5 32.5Q80 56 70 90.5Q60 125 60 170V500H193Z" glyph-name="ubreve" horiz-adv-x="562" unicode="&#365;" /><glyph d="M287 559Q197 559 159 608Q121 657 119 750H221Q222 723 227.5 707Q233 691 242 682.5Q251 674 262.5 671Q274 668 287 668Q300 668 311.5 671Q323 674 332 682.5Q341 691 346.5 707Q352 723 353 750H455Q453 657 415 608Q377 559 287 559ZM287 -16Q229 -16 187 -3Q145 10 118 34Q91 58 78 92.5Q65 127 65 170V500H198V170Q198 137 222 123Q246 109 287 109Q328 109 352 123Q376 137 376 170V500H509V170Q509 84 455.5 34Q402 -16 287 -16Z" glyph-name="ubreve.smcp" horiz-adv-x="574" /><glyph d="M361 575 279 639 197 575H101L226 750H332L457 575ZM193 170Q193 143 209 126Q225 109 260 109Q276 109 292 111.5Q308 114 322.5 117.5Q337 121 347.5 125Q358 129 364 131V500H497V0H404L396 16Q384 11 367.5 5Q351 -1 332.5 -5.5Q314 -10 295 -13Q276 -16 260 -16Q204 -16 165.5 -3.5Q127 9 103.5 32.5Q80 56 70 90.5Q60 125 60 170V500H193Z" glyph-name="ucircumflex" horiz-adv-x="562" unicode="&#251;" /><glyph d="M369 575 287 639 205 575H109L234 750H340L465 575ZM287 -16Q229 -16 187 -3Q145 10 118 34Q91 58 78 92.5Q65 127 65 170V500H198V170Q198 137 222 123Q246 109 287 109Q328 109 352 123Q376 137 376 170V500H509V170Q509 84 455.5 34Q402 -16 287 -16Z" glyph-name="ucircumflex.smcp" horiz-adv-x="574" /><glyph d="M86 658Q86 692 109.5 716Q133 740 167 740Q201 740 225 716Q249 692 249 658Q249 624 225 600.5Q201 577 167 577Q133 577 109.5 600.5Q86 624 86 658ZM309 658Q309 692 332.5 716Q356 740 390 740Q424 740 448 716Q472 692 472 658Q472 624 448 600.5Q424 577 390 577Q356 577 332.5 600.5Q309 624 309 658ZM193 170Q193 143 209 126Q225 109 260 109Q276 109 292 111.5Q308 114 322.5 117.5Q337 121 347.5 125Q358 129 364 131V500H497V0H404L396 16Q384 11 367.5 5Q351 -1 332.5 -5.5Q314 -10 295 -13Q276 -16 260 -16Q204 -16 165.5 -3.5Q127 9 103.5 32.5Q80 56 70 90.5Q60 125 60 170V500H193Z" glyph-name="udieresis" horiz-adv-x="562" unicode="&#252;" /><glyph d="M317 658Q317 692 340.5 716Q364 740 398 740Q432 740 456 716Q480 692 480 658Q480 624 456 600.5Q432 577 398 577Q364 577 340.5 600.5Q317 624 317 658ZM94 658Q94 692 117.5 716Q141 740 175 740Q209 740 233 716Q257 692 257 658Q257 624 233 600.5Q209 577 175 577Q141 577 117.5 600.5Q94 624 94 658ZM287 -16Q229 -16 187 -3Q145 10 118 34Q91 58 78 92.5Q65 127 65 170V500H198V170Q198 137 222 123Q246 109 287 109Q328 109 352 123Q376 137 376 170V500H509V170Q509 84 455.5 34Q402 -16 287 -16Z" glyph-name="udieresis.smcp" horiz-adv-x="574" /><glyph d="M235 575 90 750H241L321 575ZM193 170Q193 143 209 126Q225 109 260 109Q276 109 292 111.5Q308 114 322.5 117.5Q337 121 347.5 125Q358 129 364 131V500H497V0H404L396 16Q384 11 367.5 5Q351 -1 332.5 -5.5Q314 -10 295 -13Q276 -16 260 -16Q204 -16 165.5 -3.5Q127 9 103.5 32.5Q80 56 70 90.5Q60 125 60 170V500H193Z" glyph-name="ugrave" horiz-adv-x="562" unicode="&#249;" /><glyph d="M243 575 98 750H249L329 575ZM287 -16Q229 -16 187 -3Q145 10 118 34Q91 58 78 92.5Q65 127 65 170V500H198V170Q198 137 222 123Q246 109 287 109Q328 109 352 123Q376 137 376 170V500H509V170Q509 84 455.5 34Q402 -16 287 -16Z" glyph-name="ugrave.smcp" horiz-adv-x="574" /><glyph d="M309 575 389 750H540L395 575ZM142 575 222 750H373L228 575ZM193 170Q193 143 209 126Q225 109 260 109Q276 109 292 111.5Q308 114 322.5 117.5Q337 121 347.5 125Q358 129 364 131V500H497V0H404L396 16Q384 11 367.5 5Q351 -1 332.5 -5.5Q314 -10 295 -13Q276 -16 260 -16Q204 -16 165.5 -3.5Q127 9 103.5 32.5Q80 56 70 90.5Q60 125 60 170V500H193Z" glyph-name="uhungarumlaut" horiz-adv-x="562" unicode="&#369;" /><glyph d="M320 575 400 750H551L406 575ZM153 575 233 750H384L239 575ZM287 -16Q229 -16 187 -3Q145 10 118 34Q91 58 78 92.5Q65 127 65 170V500H198V170Q198 137 222 123Q246 109 287 109Q328 109 352 123Q376 137 376 170V500H509V170Q509 84 455.5 34Q402 -16 287 -16Z" glyph-name="uhungarumlaut.smcp" horiz-adv-x="574" /><glyph d="M418 575H144V703H418ZM193 170Q193 143 209 126Q225 109 260 109Q276 109 292 111.5Q308 114 322.5 117.5Q337 121 347.5 125Q358 129 364 131V500H497V0H404L396 16Q384 11 367.5 5Q351 -1 332.5 -5.5Q314 -10 295 -13Q276 -16 260 -16Q204 -16 165.5 -3.5Q127 9 103.5 32.5Q80 56 70 90.5Q60 125 60 170V500H193Z" glyph-name="umacron" horiz-adv-x="562" unicode="&#363;" /><glyph d="M424 575H150V703H424ZM287 -16Q229 -16 187 -3Q145 10 118 34Q91 58 78 92.5Q65 127 65 170V500H198V170Q198 137 222 123Q246 109 287 109Q328 109 352 123Q376 137 376 170V500H509V170Q509 84 455.5 34Q402 -16 287 -16Z" glyph-name="umacron.smcp" horiz-adv-x="574" /><glyph d="M320 -250H0V-122H320Z" glyph-name="underscore" horiz-adv-x="320" unicode="_" /><glyph d="M329 277H41V405H329Z" glyph-name="uni00AD" horiz-adv-x="370" unicode="&#173;" /><glyph d="M193 170Q193 143 209 126Q225 109 260 109Q276 109 292 111.5Q308 114 322.5 117.5Q337 121 347.5 125Q358 129 364 131V500H497V0Q440 -15 415.5 -38Q391 -61 391 -84Q391 -106 408 -113.5Q425 -121 442 -121Q456 -121 467.5 -119Q479 -117 488 -115Q499 -112 507 -109V-213Q499 -218 476 -225Q453 -232 412 -232Q388 -232 364 -225.5Q340 -219 321 -206Q302 -193 290 -172.5Q278 -152 278 -123Q278 -81 306.5 -50Q335 -19 402 4L396 16Q384 11 367.5 5Q351 -1 332.5 -5.5Q314 -10 295 -13Q276 -16 260 -16Q204 -16 165.5 -3.5Q127 9 103.5 32.5Q80 56 70 90.5Q60 125 60 170V500H193Z" glyph-name="uogonek" horiz-adv-x="562" unicode="&#371;" /><glyph d="M509 170Q509 104 478.5 59Q448 14 382 -4Q367 -8 353 -15.5Q339 -23 327.5 -33.5Q316 -44 309 -56.5Q302 -69 302 -84Q302 -106 319 -113.5Q336 -121 353 -121Q367 -121 378.5 -119Q390 -117 399 -115Q410 -112 418 -109V-213Q410 -218 387 -225Q364 -232 323 -232Q299 -232 275 -225Q251 -218 232 -203.5Q213 -189 201 -166.5Q189 -144 189 -113Q189 -81 198 -56Q207 -31 223 -11Q141 3 103 50Q65 97 65 170V500H198V170Q198 137 222 123Q246 109 287 109Q328 109 352 123Q376 137 376 170V500H509Z" glyph-name="uogonek.smcp" horiz-adv-x="574" /><glyph d="M317 662Q317 683 307.5 691Q298 699 281 699Q263 699 254 691Q245 683 245 662Q245 642 254 634.5Q263 627 281 627Q298 627 307.5 634.5Q317 642 317 662ZM385 662Q385 608 356.5 583.5Q328 559 281 559Q233 559 204.5 583.5Q176 608 176 662Q176 716 204.5 741Q233 766 281 766Q328 766 356.5 741Q385 716 385 662ZM193 170Q193 143 209 126Q225 109 260 109Q276 109 292 111.5Q308 114 322.5 117.5Q337 121 347.5 125Q358 129 364 131V500H497V0H404L396 16Q384 11 367.5 5Q351 -1 332.5 -5.5Q314 -10 295 -13Q276 -16 260 -16Q204 -16 165.5 -3.5Q127 9 103.5 32.5Q80 56 70 90.5Q60 125 60 170V500H193Z" glyph-name="uring" horiz-adv-x="562" unicode="&#367;" /><glyph d="M323 662Q323 683 313.5 691Q304 699 287 699Q269 699 260 691Q251 683 251 662Q251 642 260 634.5Q269 627 287 627Q304 627 313.5 634.5Q323 642 323 662ZM391 662Q391 608 362.5 583.5Q334 559 287 559Q239 559 210.5 583.5Q182 608 182 662Q182 716 210.5 741Q239 766 287 766Q334 766 362.5 741Q391 716 391 662ZM287 -16Q229 -16 187 -3Q145 10 118 34Q91 58 78 92.5Q65 127 65 170V500H198V170Q198 137 222 123Q246 109 287 109Q328 109 352 123Q376 137 376 170V500H509V170Q509 84 455.5 34Q402 -16 287 -16Z" glyph-name="uring.smcp" horiz-adv-x="574" /><glyph d="M489 734Q483 645 451 605.5Q419 566 349 568Q318 569 299 580.5Q280 592 266.5 605Q253 618 241.5 628.5Q230 639 215 639Q192 639 184 621.5Q176 604 174 579L72 592Q78 681 110 720.5Q142 760 212 758Q243 757 262 745.5Q281 734 294.5 721Q308 708 319.5 697.5Q331 687 346 687Q369 687 377 704.5Q385 722 387 747ZM193 170Q193 143 209 126Q225 109 260 109Q276 109 292 111.5Q308 114 322.5 117.5Q337 121 347.5 125Q358 129 364 131V500H497V0H404L396 16Q384 11 367.5 5Q351 -1 332.5 -5.5Q314 -10 295 -13Q276 -16 260 -16Q204 -16 165.5 -3.5Q127 9 103.5 32.5Q80 56 70 90.5Q60 125 60 170V500H193Z" glyph-name="utilde" horiz-adv-x="562" unicode="&#361;" /></font>
</defs>
</svg>
